<mxfile host="app.diagrams.net" modified="2020-10-26T15:56:20.684Z" agent="5.0 (Windows NT 10.0; Win64; x64) AppleWebKit/537.36 (KHTML, like Gecko) Chrome/86.0.4240.111 Safari/537.36" etag="9sXoASpdKwfUdKb_CX23" version="13.8.3" type="github">
  <diagram id="C5RBs43oDa-KdzZeNtuy" name="Page-1">
    <mxGraphModel dx="6409" dy="1972" grid="1" gridSize="10" guides="1" tooltips="1" connect="1" arrows="1" fold="1" page="1" pageScale="1" pageWidth="827" pageHeight="1169" math="0" shadow="0">
      <root>
        <mxCell id="WIyWlLk6GJQsqaUBKTNV-0" />
        <mxCell id="WIyWlLk6GJQsqaUBKTNV-1" parent="WIyWlLk6GJQsqaUBKTNV-0" />
        <mxCell id="syF4AaAk_7wiC__grxCZ-0" value="" style="shape=cylinder;whiteSpace=wrap;html=1;boundedLbl=1;backgroundOutline=1;fillColor=#d5e8d4;strokeColor=#82b366;" parent="WIyWlLk6GJQsqaUBKTNV-1" vertex="1">
          <mxGeometry x="-2215" y="-535" width="30" height="40" as="geometry" />
        </mxCell>
        <mxCell id="syF4AaAk_7wiC__grxCZ-1" value="" style="whiteSpace=wrap;html=1;aspect=fixed;fillColor=#f8cecc;strokeColor=#b85450;" parent="WIyWlLk6GJQsqaUBKTNV-1" vertex="1">
          <mxGeometry x="-2220" y="-615" width="40" height="40" as="geometry" />
        </mxCell>
        <mxCell id="syF4AaAk_7wiC__grxCZ-3" value="" style="ellipse;whiteSpace=wrap;html=1;aspect=fixed;fillColor=#f5f5f5;strokeColor=#666666;fontColor=#333333;" parent="WIyWlLk6GJQsqaUBKTNV-1" vertex="1">
          <mxGeometry x="-2210" y="-735" width="20" height="20" as="geometry" />
        </mxCell>
        <mxCell id="syF4AaAk_7wiC__grxCZ-6" value="" style="rhombus;whiteSpace=wrap;html=1;fillColor=#b1ddf0;strokeColor=#10739e;" parent="WIyWlLk6GJQsqaUBKTNV-1" vertex="1">
          <mxGeometry x="-2220" y="-455" width="40" height="40" as="geometry" />
        </mxCell>
        <mxCell id="syF4AaAk_7wiC__grxCZ-7" value="Input Node" style="text;html=1;strokeColor=none;fillColor=none;align=center;verticalAlign=middle;whiteSpace=wrap;rounded=0;labelBorderColor=none;labelPosition=center;verticalLabelPosition=middle;" parent="WIyWlLk6GJQsqaUBKTNV-1" vertex="1">
          <mxGeometry x="-2150" y="-735" width="80" height="20" as="geometry" />
        </mxCell>
        <mxCell id="syF4AaAk_7wiC__grxCZ-8" value="Module" style="text;html=1;align=center;verticalAlign=middle;resizable=0;points=[];autosize=1;" parent="WIyWlLk6GJQsqaUBKTNV-1" vertex="1">
          <mxGeometry x="-2135" y="-605" width="50" height="20" as="geometry" />
        </mxCell>
        <mxCell id="syF4AaAk_7wiC__grxCZ-9" value="Data Source" style="text;html=1;align=center;verticalAlign=middle;resizable=0;points=[];autosize=1;" parent="WIyWlLk6GJQsqaUBKTNV-1" vertex="1">
          <mxGeometry x="-2150" y="-525" width="80" height="20" as="geometry" />
        </mxCell>
        <mxCell id="syF4AaAk_7wiC__grxCZ-10" value="" style="ellipse;whiteSpace=wrap;html=1;aspect=fixed;fillColor=#ffe6cc;strokeColor=#d79b00;" parent="WIyWlLk6GJQsqaUBKTNV-1" vertex="1">
          <mxGeometry x="-2210" y="-675" width="20" height="20" as="geometry" />
        </mxCell>
        <mxCell id="syF4AaAk_7wiC__grxCZ-11" value="Output Node" style="text;html=1;strokeColor=none;fillColor=none;align=center;verticalAlign=middle;whiteSpace=wrap;rounded=0;labelBorderColor=none;labelPosition=center;verticalLabelPosition=middle;" parent="WIyWlLk6GJQsqaUBKTNV-1" vertex="1">
          <mxGeometry x="-2150" y="-675" width="80" height="20" as="geometry" />
        </mxCell>
        <mxCell id="syF4AaAk_7wiC__grxCZ-12" value="Config" style="text;html=1;align=center;verticalAlign=middle;resizable=0;points=[];autosize=1;" parent="WIyWlLk6GJQsqaUBKTNV-1" vertex="1">
          <mxGeometry x="-2135" y="-445" width="50" height="20" as="geometry" />
        </mxCell>
        <mxCell id="syF4AaAk_7wiC__grxCZ-690" value="" style="shape=process;whiteSpace=wrap;html=1;backgroundOutline=1;dashed=1;dashPattern=1 1;fontSize=15;fillColor=#fff2cc;strokeColor=#d6b656;" parent="WIyWlLk6GJQsqaUBKTNV-1" vertex="1">
          <mxGeometry x="-2220" y="-375" width="40" height="40" as="geometry" />
        </mxCell>
        <mxCell id="syF4AaAk_7wiC__grxCZ-691" value="End-Point" style="text;html=1;align=center;verticalAlign=middle;resizable=0;points=[];autosize=1;" parent="WIyWlLk6GJQsqaUBKTNV-1" vertex="1">
          <mxGeometry x="-2145" y="-365" width="70" height="20" as="geometry" />
        </mxCell>
        <mxCell id="Ut67D4-_fYfOlmeCOS3n-6" value="" style="rhombus;whiteSpace=wrap;html=1;fillColor=#b1ddf0;strokeColor=#10739e;" parent="WIyWlLk6GJQsqaUBKTNV-1" vertex="1">
          <mxGeometry x="-3780" y="-1120" width="40" height="40" as="geometry" />
        </mxCell>
        <mxCell id="Ut67D4-_fYfOlmeCOS3n-7" value="" style="rhombus;whiteSpace=wrap;html=1;fillColor=#b1ddf0;strokeColor=#10739e;" parent="WIyWlLk6GJQsqaUBKTNV-1" vertex="1">
          <mxGeometry x="-3260" y="-1120" width="40" height="40" as="geometry" />
        </mxCell>
        <mxCell id="Ut67D4-_fYfOlmeCOS3n-8" value="" style="rhombus;whiteSpace=wrap;html=1;fillColor=#b1ddf0;strokeColor=#10739e;" parent="WIyWlLk6GJQsqaUBKTNV-1" vertex="1">
          <mxGeometry x="-2740" y="-1120" width="40" height="40" as="geometry" />
        </mxCell>
        <mxCell id="Ut67D4-_fYfOlmeCOS3n-9" value="&lt;font style=&quot;font-size: 20px&quot;&gt;&lt;i&gt;automlConfig&lt;/i&gt;&lt;/font&gt;" style="text;html=1;align=center;verticalAlign=middle;resizable=0;points=[];autosize=1;" parent="WIyWlLk6GJQsqaUBKTNV-1" vertex="1">
          <mxGeometry x="-3915" y="-1110" width="130" height="20" as="geometry" />
        </mxCell>
        <mxCell id="Ut67D4-_fYfOlmeCOS3n-10" value="&lt;font style=&quot;font-size: 20px&quot;&gt;&lt;i&gt;featureDataConfig&lt;/i&gt;&lt;/font&gt;" style="text;html=1;align=center;verticalAlign=middle;resizable=0;points=[];autosize=1;" parent="WIyWlLk6GJQsqaUBKTNV-1" vertex="1">
          <mxGeometry x="-3450" y="-1110" width="180" height="20" as="geometry" />
        </mxCell>
        <mxCell id="Ut67D4-_fYfOlmeCOS3n-11" value="&lt;font style=&quot;font-size: 20px&quot;&gt;&lt;i&gt;targetDataConfig&lt;/i&gt;&lt;/font&gt;" style="text;html=1;align=center;verticalAlign=middle;resizable=0;points=[];autosize=1;" parent="WIyWlLk6GJQsqaUBKTNV-1" vertex="1">
          <mxGeometry x="-2915" y="-1110" width="170" height="20" as="geometry" />
        </mxCell>
        <mxCell id="Ut67D4-_fYfOlmeCOS3n-12" value="" style="endArrow=classic;html=1;exitX=0.5;exitY=1;exitDx=0;exitDy=0;entryX=0.5;entryY=0;entryDx=0;entryDy=0;dashed=1;" parent="WIyWlLk6GJQsqaUBKTNV-1" source="Ut67D4-_fYfOlmeCOS3n-8" target="Ut67D4-_fYfOlmeCOS3n-16" edge="1">
          <mxGeometry width="50" height="50" relative="1" as="geometry">
            <mxPoint x="-2830" y="-730" as="sourcePoint" />
            <mxPoint x="-2720" y="-960" as="targetPoint" />
          </mxGeometry>
        </mxCell>
        <mxCell id="Ut67D4-_fYfOlmeCOS3n-13" value="" style="endArrow=classic;html=1;exitX=0.5;exitY=1;exitDx=0;exitDy=0;entryX=0.5;entryY=0;entryDx=0;entryDy=0;dashed=1;" parent="WIyWlLk6GJQsqaUBKTNV-1" source="Ut67D4-_fYfOlmeCOS3n-7" target="Ut67D4-_fYfOlmeCOS3n-17" edge="1">
          <mxGeometry width="50" height="50" relative="1" as="geometry">
            <mxPoint x="-2950" y="-730" as="sourcePoint" />
            <mxPoint x="-3240" y="-960" as="targetPoint" />
          </mxGeometry>
        </mxCell>
        <mxCell id="Ut67D4-_fYfOlmeCOS3n-14" value="" style="endArrow=classic;html=1;exitX=0.5;exitY=1;exitDx=0;exitDy=0;entryX=0.5;entryY=0;entryDx=0;entryDy=0;dashed=1;" parent="WIyWlLk6GJQsqaUBKTNV-1" source="Ut67D4-_fYfOlmeCOS3n-6" target="Ut67D4-_fYfOlmeCOS3n-18" edge="1">
          <mxGeometry width="50" height="50" relative="1" as="geometry">
            <mxPoint x="-3070" y="-730" as="sourcePoint" />
            <mxPoint x="-3760" y="-960" as="targetPoint" />
          </mxGeometry>
        </mxCell>
        <mxCell id="Ut67D4-_fYfOlmeCOS3n-16" value="" style="ellipse;whiteSpace=wrap;html=1;aspect=fixed;fillColor=#f5f5f5;strokeColor=#666666;fontColor=#333333;" parent="WIyWlLk6GJQsqaUBKTNV-1" vertex="1">
          <mxGeometry x="-2730" y="-970" width="20" height="20" as="geometry" />
        </mxCell>
        <mxCell id="Ut67D4-_fYfOlmeCOS3n-17" value="" style="ellipse;whiteSpace=wrap;html=1;aspect=fixed;fillColor=#f5f5f5;strokeColor=#666666;fontColor=#333333;" parent="WIyWlLk6GJQsqaUBKTNV-1" vertex="1">
          <mxGeometry x="-3250" y="-970" width="20" height="20" as="geometry" />
        </mxCell>
        <mxCell id="Ut67D4-_fYfOlmeCOS3n-18" value="" style="ellipse;whiteSpace=wrap;html=1;aspect=fixed;fillColor=#f5f5f5;strokeColor=#666666;fontColor=#333333;" parent="WIyWlLk6GJQsqaUBKTNV-1" vertex="1">
          <mxGeometry x="-3770" y="-970" width="20" height="20" as="geometry" />
        </mxCell>
        <mxCell id="Ut67D4-_fYfOlmeCOS3n-19" value="&lt;font style=&quot;font-size: 20px&quot;&gt;inputs&lt;br&gt;(!)&lt;br&gt;&lt;/font&gt;" style="text;html=1;strokeColor=none;fillColor=none;align=center;verticalAlign=middle;whiteSpace=wrap;rounded=0;" parent="WIyWlLk6GJQsqaUBKTNV-1" vertex="1">
          <mxGeometry x="-3840" y="-970" width="40" height="20" as="geometry" />
        </mxCell>
        <mxCell id="Ut67D4-_fYfOlmeCOS3n-20" value="&lt;font style=&quot;font-size: 20px&quot;&gt;inputs&lt;br&gt;(!)&lt;br&gt;&lt;/font&gt;" style="text;html=1;strokeColor=none;fillColor=none;align=center;verticalAlign=middle;whiteSpace=wrap;rounded=0;" parent="WIyWlLk6GJQsqaUBKTNV-1" vertex="1">
          <mxGeometry x="-3320" y="-970" width="40" height="20" as="geometry" />
        </mxCell>
        <mxCell id="Ut67D4-_fYfOlmeCOS3n-21" value="&lt;font style=&quot;font-size: 20px&quot;&gt;inputs&lt;br&gt;(!)&lt;br&gt;&lt;/font&gt;" style="text;html=1;strokeColor=none;fillColor=none;align=center;verticalAlign=middle;whiteSpace=wrap;rounded=0;" parent="WIyWlLk6GJQsqaUBKTNV-1" vertex="1">
          <mxGeometry x="-2794" y="-970" width="40" height="20" as="geometry" />
        </mxCell>
        <mxCell id="Ut67D4-_fYfOlmeCOS3n-22" value="" style="endArrow=classic;html=1;exitX=0.5;exitY=1;exitDx=0;exitDy=0;entryX=0.5;entryY=0;entryDx=0;entryDy=0;" parent="WIyWlLk6GJQsqaUBKTNV-1" target="Ut67D4-_fYfOlmeCOS3n-27" edge="1">
          <mxGeometry width="50" height="50" relative="1" as="geometry">
            <mxPoint x="-3760.71" y="-950" as="sourcePoint" />
            <mxPoint x="-3760.71" y="-840" as="targetPoint" />
          </mxGeometry>
        </mxCell>
        <mxCell id="Ut67D4-_fYfOlmeCOS3n-23" value="" style="endArrow=classic;html=1;exitX=0.5;exitY=1;exitDx=0;exitDy=0;entryX=0.5;entryY=0;entryDx=0;entryDy=0;" parent="WIyWlLk6GJQsqaUBKTNV-1" target="Ut67D4-_fYfOlmeCOS3n-26" edge="1">
          <mxGeometry width="50" height="50" relative="1" as="geometry">
            <mxPoint x="-3240.71" y="-950" as="sourcePoint" />
            <mxPoint x="-3240.71" y="-840" as="targetPoint" />
          </mxGeometry>
        </mxCell>
        <mxCell id="Ut67D4-_fYfOlmeCOS3n-24" value="" style="endArrow=classic;html=1;entryX=0.5;entryY=0;entryDx=0;entryDy=0;" parent="WIyWlLk6GJQsqaUBKTNV-1" target="Ut67D4-_fYfOlmeCOS3n-25" edge="1">
          <mxGeometry width="50" height="50" relative="1" as="geometry">
            <mxPoint x="-2721" y="-950" as="sourcePoint" />
            <mxPoint x="-2720.71" y="-840" as="targetPoint" />
          </mxGeometry>
        </mxCell>
        <mxCell id="Ut67D4-_fYfOlmeCOS3n-25" value="" style="whiteSpace=wrap;html=1;aspect=fixed;fillColor=#f8cecc;strokeColor=#b85450;" parent="WIyWlLk6GJQsqaUBKTNV-1" vertex="1">
          <mxGeometry x="-2740" y="-840" width="40" height="40" as="geometry" />
        </mxCell>
        <mxCell id="Ut67D4-_fYfOlmeCOS3n-26" value="" style="whiteSpace=wrap;html=1;aspect=fixed;fillColor=#f8cecc;strokeColor=#b85450;" parent="WIyWlLk6GJQsqaUBKTNV-1" vertex="1">
          <mxGeometry x="-3260" y="-840" width="40" height="40" as="geometry" />
        </mxCell>
        <mxCell id="Ut67D4-_fYfOlmeCOS3n-27" value="" style="whiteSpace=wrap;html=1;aspect=fixed;fillColor=#f8cecc;strokeColor=#b85450;" parent="WIyWlLk6GJQsqaUBKTNV-1" vertex="1">
          <mxGeometry x="-3780" y="-840" width="40" height="40" as="geometry" />
        </mxCell>
        <mxCell id="Ut67D4-_fYfOlmeCOS3n-32" value="" style="endArrow=classic;html=1;exitX=0.5;exitY=1;exitDx=0;exitDy=0;entryX=0.5;entryY=0;entryDx=0;entryDy=0;" parent="WIyWlLk6GJQsqaUBKTNV-1" source="Ut67D4-_fYfOlmeCOS3n-27" target="Ut67D4-_fYfOlmeCOS3n-33" edge="1">
          <mxGeometry width="50" height="50" relative="1" as="geometry">
            <mxPoint x="-3750" y="-1070" as="sourcePoint" />
            <mxPoint x="-3690" y="-740" as="targetPoint" />
          </mxGeometry>
        </mxCell>
        <mxCell id="Ut67D4-_fYfOlmeCOS3n-33" value="" style="ellipse;whiteSpace=wrap;html=1;aspect=fixed;fillColor=#ffe6cc;strokeColor=#d79b00;" parent="WIyWlLk6GJQsqaUBKTNV-1" vertex="1">
          <mxGeometry x="-3770" y="-690" width="20" height="20" as="geometry" />
        </mxCell>
        <mxCell id="Ut67D4-_fYfOlmeCOS3n-38" value="" style="endArrow=classic;html=1;exitX=0.5;exitY=1;exitDx=0;exitDy=0;entryX=0.5;entryY=0;entryDx=0;entryDy=0;" parent="WIyWlLk6GJQsqaUBKTNV-1" target="Ut67D4-_fYfOlmeCOS3n-39" edge="1">
          <mxGeometry width="50" height="50" relative="1" as="geometry">
            <mxPoint x="-3240" y="-800" as="sourcePoint" />
            <mxPoint x="-3170" y="-740" as="targetPoint" />
          </mxGeometry>
        </mxCell>
        <mxCell id="Ut67D4-_fYfOlmeCOS3n-39" value="" style="ellipse;whiteSpace=wrap;html=1;aspect=fixed;fillColor=#ffe6cc;strokeColor=#d79b00;" parent="WIyWlLk6GJQsqaUBKTNV-1" vertex="1">
          <mxGeometry x="-3250" y="-690" width="20" height="20" as="geometry" />
        </mxCell>
        <mxCell id="Ut67D4-_fYfOlmeCOS3n-40" value="" style="endArrow=classic;html=1;exitX=0.5;exitY=1;exitDx=0;exitDy=0;entryX=0.5;entryY=0;entryDx=0;entryDy=0;" parent="WIyWlLk6GJQsqaUBKTNV-1" target="Ut67D4-_fYfOlmeCOS3n-41" edge="1">
          <mxGeometry width="50" height="50" relative="1" as="geometry">
            <mxPoint x="-2719.9999999999995" y="-800" as="sourcePoint" />
            <mxPoint x="-2650" y="-740" as="targetPoint" />
          </mxGeometry>
        </mxCell>
        <mxCell id="Ut67D4-_fYfOlmeCOS3n-41" value="" style="ellipse;whiteSpace=wrap;html=1;aspect=fixed;fillColor=#ffe6cc;strokeColor=#d79b00;" parent="WIyWlLk6GJQsqaUBKTNV-1" vertex="1">
          <mxGeometry x="-2730" y="-690" width="20" height="20" as="geometry" />
        </mxCell>
        <mxCell id="Ut67D4-_fYfOlmeCOS3n-42" value="&lt;span style=&quot;font-size: 20px&quot;&gt;outputs&amp;nbsp;&lt;br&gt;(!)&lt;br&gt;&lt;/span&gt;" style="text;html=1;strokeColor=none;fillColor=none;align=center;verticalAlign=middle;whiteSpace=wrap;rounded=0;" parent="WIyWlLk6GJQsqaUBKTNV-1" vertex="1">
          <mxGeometry x="-3840" y="-690" width="40" height="20" as="geometry" />
        </mxCell>
        <mxCell id="Ut67D4-_fYfOlmeCOS3n-43" value="&lt;span style=&quot;font-size: 20px&quot;&gt;outputs&lt;br&gt;(+)&lt;br&gt;&lt;/span&gt;" style="text;html=1;strokeColor=none;fillColor=none;align=center;verticalAlign=middle;whiteSpace=wrap;rounded=0;" parent="WIyWlLk6GJQsqaUBKTNV-1" vertex="1">
          <mxGeometry x="-3320" y="-690" width="40" height="20" as="geometry" />
        </mxCell>
        <mxCell id="Ut67D4-_fYfOlmeCOS3n-44" value="&lt;span style=&quot;font-size: 20px&quot;&gt;outputs&lt;br&gt;(IJFS)&lt;br&gt;&lt;/span&gt;" style="text;html=1;strokeColor=none;fillColor=none;align=center;verticalAlign=middle;whiteSpace=wrap;rounded=0;" parent="WIyWlLk6GJQsqaUBKTNV-1" vertex="1">
          <mxGeometry x="-2794" y="-690" width="40" height="20" as="geometry" />
        </mxCell>
        <mxCell id="Ut67D4-_fYfOlmeCOS3n-47" value="&lt;font style=&quot;font-size: 20px&quot;&gt;&lt;i&gt;configuration&lt;/i&gt;&lt;/font&gt;" style="text;html=1;strokeColor=none;fillColor=none;align=center;verticalAlign=middle;whiteSpace=wrap;rounded=0;" parent="WIyWlLk6GJQsqaUBKTNV-1" vertex="1">
          <mxGeometry x="-3870" y="-830" width="40" height="20" as="geometry" />
        </mxCell>
        <mxCell id="Ut67D4-_fYfOlmeCOS3n-48" value="&lt;font style=&quot;font-size: 20px&quot;&gt;&lt;i&gt;featureData&lt;/i&gt;&lt;/font&gt;" style="text;html=1;strokeColor=none;fillColor=none;align=center;verticalAlign=middle;whiteSpace=wrap;rounded=0;" parent="WIyWlLk6GJQsqaUBKTNV-1" vertex="1">
          <mxGeometry x="-3360" y="-830" width="40" height="20" as="geometry" />
        </mxCell>
        <mxCell id="Ut67D4-_fYfOlmeCOS3n-49" value="&lt;font style=&quot;font-size: 20px&quot;&gt;&lt;i&gt;targetData&lt;/i&gt;&lt;/font&gt;" style="text;html=1;strokeColor=none;fillColor=none;align=center;verticalAlign=middle;whiteSpace=wrap;rounded=0;" parent="WIyWlLk6GJQsqaUBKTNV-1" vertex="1">
          <mxGeometry x="-2834" y="-830" width="40" height="20" as="geometry" />
        </mxCell>
        <mxCell id="Ut67D4-_fYfOlmeCOS3n-52" value="" style="whiteSpace=wrap;html=1;aspect=fixed;fillColor=#f8cecc;strokeColor=#b85450;" parent="WIyWlLk6GJQsqaUBKTNV-1" vertex="1">
          <mxGeometry x="-3260" y="-418.75" width="40" height="40" as="geometry" />
        </mxCell>
        <mxCell id="Ut67D4-_fYfOlmeCOS3n-53" value="&lt;font style=&quot;font-size: 20px&quot;&gt;&lt;i&gt;dataCheck&lt;/i&gt;&lt;/font&gt;" style="text;html=1;strokeColor=none;fillColor=none;align=center;verticalAlign=middle;whiteSpace=wrap;rounded=0;" parent="WIyWlLk6GJQsqaUBKTNV-1" vertex="1">
          <mxGeometry x="-3348" y="-408.75" width="40" height="20" as="geometry" />
        </mxCell>
        <mxCell id="Ut67D4-_fYfOlmeCOS3n-54" value="" style="endArrow=classic;html=1;exitX=1;exitY=0.5;exitDx=0;exitDy=0;entryX=0;entryY=0;entryDx=0;entryDy=0;" parent="WIyWlLk6GJQsqaUBKTNV-1" source="Ut67D4-_fYfOlmeCOS3n-59" target="Ut67D4-_fYfOlmeCOS3n-52" edge="1">
          <mxGeometry width="50" height="50" relative="1" as="geometry">
            <mxPoint x="-3400" y="-480" as="sourcePoint" />
            <mxPoint x="-3750" y="-790" as="targetPoint" />
          </mxGeometry>
        </mxCell>
        <mxCell id="Ut67D4-_fYfOlmeCOS3n-55" value="" style="endArrow=classic;html=1;exitX=0;exitY=0.5;exitDx=0;exitDy=0;entryX=1;entryY=0;entryDx=0;entryDy=0;" parent="WIyWlLk6GJQsqaUBKTNV-1" source="Ut67D4-_fYfOlmeCOS3n-58" target="Ut67D4-_fYfOlmeCOS3n-52" edge="1">
          <mxGeometry width="50" height="50" relative="1" as="geometry">
            <mxPoint x="-3090" y="-480" as="sourcePoint" />
            <mxPoint x="-3250" y="-428.75" as="targetPoint" />
          </mxGeometry>
        </mxCell>
        <mxCell id="Ut67D4-_fYfOlmeCOS3n-56" value="" style="endArrow=classic;html=1;exitX=0.5;exitY=1;exitDx=0;exitDy=0;entryX=0.5;entryY=0;entryDx=0;entryDy=0;" parent="WIyWlLk6GJQsqaUBKTNV-1" source="Ut67D4-_fYfOlmeCOS3n-57" target="Ut67D4-_fYfOlmeCOS3n-52" edge="1">
          <mxGeometry width="50" height="50" relative="1" as="geometry">
            <mxPoint x="-3240" y="-510" as="sourcePoint" />
            <mxPoint x="-3229.9999999999995" y="-790" as="targetPoint" />
          </mxGeometry>
        </mxCell>
        <mxCell id="Ut67D4-_fYfOlmeCOS3n-57" value="" style="ellipse;whiteSpace=wrap;html=1;aspect=fixed;fillColor=#f5f5f5;strokeColor=#666666;fontColor=#333333;" parent="WIyWlLk6GJQsqaUBKTNV-1" vertex="1">
          <mxGeometry x="-3250" y="-530" width="20" height="20" as="geometry" />
        </mxCell>
        <mxCell id="Ut67D4-_fYfOlmeCOS3n-58" value="" style="ellipse;whiteSpace=wrap;html=1;aspect=fixed;fillColor=#f5f5f5;strokeColor=#666666;fontColor=#333333;" parent="WIyWlLk6GJQsqaUBKTNV-1" vertex="1">
          <mxGeometry x="-3090" y="-490" width="20" height="20" as="geometry" />
        </mxCell>
        <mxCell id="Ut67D4-_fYfOlmeCOS3n-59" value="" style="ellipse;whiteSpace=wrap;html=1;aspect=fixed;fillColor=#f5f5f5;strokeColor=#666666;fontColor=#333333;" parent="WIyWlLk6GJQsqaUBKTNV-1" vertex="1">
          <mxGeometry x="-3410" y="-490" width="20" height="20" as="geometry" />
        </mxCell>
        <mxCell id="Ut67D4-_fYfOlmeCOS3n-61" value="&lt;span style=&quot;font-size: 20px&quot;&gt;target&lt;br&gt;(IJFS)&lt;br&gt;&lt;/span&gt;" style="text;html=1;strokeColor=none;fillColor=none;align=center;verticalAlign=middle;whiteSpace=wrap;rounded=0;" parent="WIyWlLk6GJQsqaUBKTNV-1" vertex="1">
          <mxGeometry x="-3060" y="-455" width="40" height="20" as="geometry" />
        </mxCell>
        <mxCell id="Ut67D4-_fYfOlmeCOS3n-62" value="&lt;span style=&quot;font-size: 20px&quot;&gt;features&lt;br&gt;(+)&lt;br&gt;&lt;/span&gt;" style="text;html=1;strokeColor=none;fillColor=none;align=center;verticalAlign=middle;whiteSpace=wrap;rounded=0;" parent="WIyWlLk6GJQsqaUBKTNV-1" vertex="1">
          <mxGeometry x="-3190" y="-530" width="40" height="20" as="geometry" />
        </mxCell>
        <mxCell id="Ut67D4-_fYfOlmeCOS3n-63" value="&lt;span style=&quot;font-size: 20px&quot;&gt;config&lt;br&gt;(!)&lt;br&gt;&lt;/span&gt;" style="text;html=1;strokeColor=none;fillColor=none;align=center;verticalAlign=middle;whiteSpace=wrap;rounded=0;" parent="WIyWlLk6GJQsqaUBKTNV-1" vertex="1">
          <mxGeometry x="-3470" y="-465" width="40" height="20" as="geometry" />
        </mxCell>
        <mxCell id="Ut67D4-_fYfOlmeCOS3n-64" value="" style="endArrow=classic;html=1;dashed=1;exitX=0.5;exitY=1;exitDx=0;exitDy=0;entryX=0;entryY=0;entryDx=0;entryDy=0;" parent="WIyWlLk6GJQsqaUBKTNV-1" source="Ut67D4-_fYfOlmeCOS3n-33" target="Ut67D4-_fYfOlmeCOS3n-59" edge="1">
          <mxGeometry width="50" height="50" relative="1" as="geometry">
            <mxPoint x="-3260" y="-460" as="sourcePoint" />
            <mxPoint x="-3210" y="-510" as="targetPoint" />
          </mxGeometry>
        </mxCell>
        <mxCell id="Ut67D4-_fYfOlmeCOS3n-65" value="" style="endArrow=classic;html=1;dashed=1;exitX=0.5;exitY=1;exitDx=0;exitDy=0;entryX=0.5;entryY=0;entryDx=0;entryDy=0;" parent="WIyWlLk6GJQsqaUBKTNV-1" source="Ut67D4-_fYfOlmeCOS3n-39" target="Ut67D4-_fYfOlmeCOS3n-57" edge="1">
          <mxGeometry width="50" height="50" relative="1" as="geometry">
            <mxPoint x="-3750" y="-660" as="sourcePoint" />
            <mxPoint x="-3397.0710678119367" y="-477.0710678119369" as="targetPoint" />
          </mxGeometry>
        </mxCell>
        <mxCell id="Ut67D4-_fYfOlmeCOS3n-66" value="" style="endArrow=classic;html=1;dashed=1;exitX=0;exitY=1;exitDx=0;exitDy=0;entryX=1;entryY=0;entryDx=0;entryDy=0;" parent="WIyWlLk6GJQsqaUBKTNV-1" source="Ut67D4-_fYfOlmeCOS3n-41" target="Ut67D4-_fYfOlmeCOS3n-58" edge="1">
          <mxGeometry width="50" height="50" relative="1" as="geometry">
            <mxPoint x="-3230.0000000000005" y="-660" as="sourcePoint" />
            <mxPoint x="-3230.0000000000005" y="-520" as="targetPoint" />
          </mxGeometry>
        </mxCell>
        <mxCell id="Ut67D4-_fYfOlmeCOS3n-67" value="" style="endArrow=classic;html=1;entryX=0;entryY=0.5;entryDx=0;entryDy=0;exitX=1;exitY=1;exitDx=0;exitDy=0;" parent="WIyWlLk6GJQsqaUBKTNV-1" source="Ut67D4-_fYfOlmeCOS3n-52" target="Ut67D4-_fYfOlmeCOS3n-68" edge="1">
          <mxGeometry width="50" height="50" relative="1" as="geometry">
            <mxPoint x="-3210.0000000000005" y="-430" as="sourcePoint" />
            <mxPoint x="-3100" y="-380" as="targetPoint" />
          </mxGeometry>
        </mxCell>
        <mxCell id="Ut67D4-_fYfOlmeCOS3n-68" value="" style="ellipse;whiteSpace=wrap;html=1;aspect=fixed;fillColor=#ffe6cc;strokeColor=#d79b00;" parent="WIyWlLk6GJQsqaUBKTNV-1" vertex="1">
          <mxGeometry x="-3090" y="-330.37" width="20" height="20" as="geometry" />
        </mxCell>
        <mxCell id="Ut67D4-_fYfOlmeCOS3n-69" value="" style="ellipse;whiteSpace=wrap;html=1;aspect=fixed;fillColor=#ffe6cc;strokeColor=#d79b00;" parent="WIyWlLk6GJQsqaUBKTNV-1" vertex="1">
          <mxGeometry x="-3410" y="-335" width="20" height="20" as="geometry" />
        </mxCell>
        <mxCell id="Ut67D4-_fYfOlmeCOS3n-70" value="" style="endArrow=classic;html=1;entryX=1;entryY=0.5;entryDx=0;entryDy=0;exitX=0;exitY=1;exitDx=0;exitDy=0;" parent="WIyWlLk6GJQsqaUBKTNV-1" source="Ut67D4-_fYfOlmeCOS3n-52" target="Ut67D4-_fYfOlmeCOS3n-69" edge="1">
          <mxGeometry width="50" height="50" relative="1" as="geometry">
            <mxPoint x="-3210" y="-390" as="sourcePoint" />
            <mxPoint x="-3080.0000000000327" y="-352" as="targetPoint" />
          </mxGeometry>
        </mxCell>
        <mxCell id="Ut67D4-_fYfOlmeCOS3n-71" value="" style="ellipse;whiteSpace=wrap;html=1;aspect=fixed;fillColor=#ffe6cc;strokeColor=#d79b00;" parent="WIyWlLk6GJQsqaUBKTNV-1" vertex="1">
          <mxGeometry x="-3250" y="-289.5" width="20" height="20" as="geometry" />
        </mxCell>
        <mxCell id="Ut67D4-_fYfOlmeCOS3n-72" value="" style="endArrow=classic;html=1;" parent="WIyWlLk6GJQsqaUBKTNV-1" edge="1">
          <mxGeometry width="50" height="50" relative="1" as="geometry">
            <mxPoint x="-3240" y="-379" as="sourcePoint" />
            <mxPoint x="-3240" y="-290" as="targetPoint" />
          </mxGeometry>
        </mxCell>
        <mxCell id="Ut67D4-_fYfOlmeCOS3n-73" value="&lt;span style=&quot;font-size: 20px&quot;&gt;features&lt;br&gt;(+)&lt;br&gt;&lt;/span&gt;" style="text;html=1;strokeColor=none;fillColor=none;align=center;verticalAlign=middle;whiteSpace=wrap;rounded=0;" parent="WIyWlLk6GJQsqaUBKTNV-1" vertex="1">
          <mxGeometry x="-3210" y="-305" width="40" height="20" as="geometry" />
        </mxCell>
        <mxCell id="Ut67D4-_fYfOlmeCOS3n-74" value="&lt;span style=&quot;font-size: 20px&quot;&gt;target&lt;br&gt;(IJFS)&lt;br&gt;&lt;/span&gt;" style="text;html=1;strokeColor=none;fillColor=none;align=center;verticalAlign=middle;whiteSpace=wrap;rounded=0;" parent="WIyWlLk6GJQsqaUBKTNV-1" vertex="1">
          <mxGeometry x="-3050" y="-355" width="40" height="20" as="geometry" />
        </mxCell>
        <mxCell id="Ut67D4-_fYfOlmeCOS3n-75" value="&lt;span style=&quot;font-size: 20px&quot;&gt;config&lt;br&gt;(!)&lt;br&gt;&lt;/span&gt;" style="text;html=1;strokeColor=none;fillColor=none;align=center;verticalAlign=middle;whiteSpace=wrap;rounded=0;" parent="WIyWlLk6GJQsqaUBKTNV-1" vertex="1">
          <mxGeometry x="-3450" y="-365" width="40" height="20" as="geometry" />
        </mxCell>
        <mxCell id="Ut67D4-_fYfOlmeCOS3n-76" value="" style="ellipse;whiteSpace=wrap;html=1;aspect=fixed;fillColor=#f5f5f5;strokeColor=#666666;fontColor=#333333;" parent="WIyWlLk6GJQsqaUBKTNV-1" vertex="1">
          <mxGeometry x="-2730" y="-111.25" width="20" height="20" as="geometry" />
        </mxCell>
        <mxCell id="Ut67D4-_fYfOlmeCOS3n-77" value="&lt;font style=&quot;font-size: 20px&quot;&gt;inputs&lt;br&gt;(IJFS)&lt;br&gt;&lt;/font&gt;" style="text;html=1;strokeColor=none;fillColor=none;align=center;verticalAlign=middle;whiteSpace=wrap;rounded=0;" parent="WIyWlLk6GJQsqaUBKTNV-1" vertex="1">
          <mxGeometry x="-2660" y="-111.25" width="40" height="20" as="geometry" />
        </mxCell>
        <mxCell id="Ut67D4-_fYfOlmeCOS3n-78" value="" style="endArrow=classic;html=1;entryX=0.5;entryY=0;entryDx=0;entryDy=0;exitX=0.5;exitY=1;exitDx=0;exitDy=0;" parent="WIyWlLk6GJQsqaUBKTNV-1" source="Ut67D4-_fYfOlmeCOS3n-76" target="Ut67D4-_fYfOlmeCOS3n-79" edge="1">
          <mxGeometry width="50" height="50" relative="1" as="geometry">
            <mxPoint x="-2710" y="-112.5" as="sourcePoint" />
            <mxPoint x="-2720.71" y="-26.25" as="targetPoint" />
          </mxGeometry>
        </mxCell>
        <mxCell id="Ut67D4-_fYfOlmeCOS3n-79" value="" style="whiteSpace=wrap;html=1;aspect=fixed;fillColor=#f8cecc;strokeColor=#b85450;" parent="WIyWlLk6GJQsqaUBKTNV-1" vertex="1">
          <mxGeometry x="-2740" y="-23.75" width="40" height="40" as="geometry" />
        </mxCell>
        <mxCell id="Ut67D4-_fYfOlmeCOS3n-80" value="" style="endArrow=classic;html=1;entryX=0.5;entryY=0;entryDx=0;entryDy=0;exitX=0.75;exitY=1;exitDx=0;exitDy=0;" parent="WIyWlLk6GJQsqaUBKTNV-1" source="Ut67D4-_fYfOlmeCOS3n-79" target="Ut67D4-_fYfOlmeCOS3n-81" edge="1">
          <mxGeometry width="50" height="50" relative="1" as="geometry">
            <mxPoint x="-2710" y="37.5" as="sourcePoint" />
            <mxPoint x="-2650" y="73.75" as="targetPoint" />
          </mxGeometry>
        </mxCell>
        <mxCell id="Ut67D4-_fYfOlmeCOS3n-81" value="" style="ellipse;whiteSpace=wrap;html=1;aspect=fixed;fillColor=#ffe6cc;strokeColor=#d79b00;" parent="WIyWlLk6GJQsqaUBKTNV-1" vertex="1">
          <mxGeometry x="-2670" y="88.75" width="20" height="20" as="geometry" />
        </mxCell>
        <mxCell id="Ut67D4-_fYfOlmeCOS3n-82" value="&lt;span style=&quot;font-size: 20px&quot;&gt;target&lt;br&gt;(IJFS)&lt;br&gt;&lt;/span&gt;" style="text;html=1;strokeColor=none;fillColor=none;align=center;verticalAlign=middle;whiteSpace=wrap;rounded=0;" parent="WIyWlLk6GJQsqaUBKTNV-1" vertex="1">
          <mxGeometry x="-2620" y="86.88" width="40" height="20" as="geometry" />
        </mxCell>
        <mxCell id="Ut67D4-_fYfOlmeCOS3n-83" value="&lt;font style=&quot;font-size: 20px&quot;&gt;&lt;i&gt;labelEncode&lt;/i&gt;&lt;/font&gt;" style="text;html=1;strokeColor=none;fillColor=none;align=center;verticalAlign=middle;whiteSpace=wrap;rounded=0;" parent="WIyWlLk6GJQsqaUBKTNV-1" vertex="1">
          <mxGeometry x="-2650" y="-16.25" width="40" height="20" as="geometry" />
        </mxCell>
        <mxCell id="Ut67D4-_fYfOlmeCOS3n-86" value="" style="endArrow=classic;html=1;dashed=1;exitX=0.5;exitY=1;exitDx=0;exitDy=0;entryX=0;entryY=0.5;entryDx=0;entryDy=0;" parent="WIyWlLk6GJQsqaUBKTNV-1" source="Ut67D4-_fYfOlmeCOS3n-68" target="Ut67D4-_fYfOlmeCOS3n-76" edge="1">
          <mxGeometry width="50" height="50" relative="1" as="geometry">
            <mxPoint x="-2690" y="-40" as="sourcePoint" />
            <mxPoint x="-2640" y="-90" as="targetPoint" />
          </mxGeometry>
        </mxCell>
        <mxCell id="Ut67D4-_fYfOlmeCOS3n-87" value="" style="whiteSpace=wrap;html=1;aspect=fixed;fillColor=#f8cecc;strokeColor=#b85450;" parent="WIyWlLk6GJQsqaUBKTNV-1" vertex="1">
          <mxGeometry x="-3260" y="-22.5" width="40" height="40" as="geometry" />
        </mxCell>
        <mxCell id="Ut67D4-_fYfOlmeCOS3n-88" value="" style="endArrow=classic;html=1;entryX=0.75;entryY=0;entryDx=0;entryDy=0;exitX=0;exitY=0.5;exitDx=0;exitDy=0;" parent="WIyWlLk6GJQsqaUBKTNV-1" source="Ut67D4-_fYfOlmeCOS3n-90" target="Ut67D4-_fYfOlmeCOS3n-87" edge="1">
          <mxGeometry width="50" height="50" relative="1" as="geometry">
            <mxPoint x="-3190" y="-31.25" as="sourcePoint" />
            <mxPoint x="-2710" y="137.5" as="targetPoint" />
          </mxGeometry>
        </mxCell>
        <mxCell id="Ut67D4-_fYfOlmeCOS3n-89" value="" style="endArrow=classic;html=1;entryX=0.25;entryY=0;entryDx=0;entryDy=0;exitX=1;exitY=0.5;exitDx=0;exitDy=0;" parent="WIyWlLk6GJQsqaUBKTNV-1" source="Ut67D4-_fYfOlmeCOS3n-92" target="Ut67D4-_fYfOlmeCOS3n-87" edge="1">
          <mxGeometry width="50" height="50" relative="1" as="geometry">
            <mxPoint x="-3320" y="-22.25" as="sourcePoint" />
            <mxPoint x="-3220" y="-12.5" as="targetPoint" />
          </mxGeometry>
        </mxCell>
        <mxCell id="Ut67D4-_fYfOlmeCOS3n-90" value="" style="ellipse;whiteSpace=wrap;html=1;aspect=fixed;fillColor=#f5f5f5;strokeColor=#666666;fontColor=#333333;" parent="WIyWlLk6GJQsqaUBKTNV-1" vertex="1">
          <mxGeometry x="-3130" y="-111.25" width="20" height="20" as="geometry" />
        </mxCell>
        <mxCell id="Ut67D4-_fYfOlmeCOS3n-92" value="" style="ellipse;whiteSpace=wrap;html=1;aspect=fixed;fillColor=#f5f5f5;strokeColor=#666666;fontColor=#333333;" parent="WIyWlLk6GJQsqaUBKTNV-1" vertex="1">
          <mxGeometry x="-3370" y="-111.25" width="20" height="20" as="geometry" />
        </mxCell>
        <mxCell id="Ut67D4-_fYfOlmeCOS3n-93" value="" style="endArrow=classic;html=1;exitX=0.5;exitY=1;exitDx=0;exitDy=0;entryX=0.5;entryY=0;entryDx=0;entryDy=0;" parent="WIyWlLk6GJQsqaUBKTNV-1" source="Ut67D4-_fYfOlmeCOS3n-87" target="Ut67D4-_fYfOlmeCOS3n-94" edge="1">
          <mxGeometry width="50" height="50" relative="1" as="geometry">
            <mxPoint x="-3240.5" y="36.25" as="sourcePoint" />
            <mxPoint x="-3240" y="117.5" as="targetPoint" />
          </mxGeometry>
        </mxCell>
        <mxCell id="Ut67D4-_fYfOlmeCOS3n-94" value="" style="ellipse;whiteSpace=wrap;html=1;aspect=fixed;fillColor=#ffe6cc;strokeColor=#d79b00;" parent="WIyWlLk6GJQsqaUBKTNV-1" vertex="1">
          <mxGeometry x="-3250" y="88.75" width="20" height="20" as="geometry" />
        </mxCell>
        <mxCell id="Ut67D4-_fYfOlmeCOS3n-95" value="&lt;span style=&quot;font-size: 20px&quot;&gt;target&lt;br&gt;(IJFS)&lt;br&gt;&lt;/span&gt;" style="text;html=1;strokeColor=none;fillColor=none;align=center;verticalAlign=middle;whiteSpace=wrap;rounded=0;" parent="WIyWlLk6GJQsqaUBKTNV-1" vertex="1">
          <mxGeometry x="-3090" y="-87.5" width="40" height="20" as="geometry" />
        </mxCell>
        <mxCell id="Ut67D4-_fYfOlmeCOS3n-96" value="&lt;span style=&quot;font-size: 20px&quot;&gt;config&lt;br&gt;(!)&lt;br&gt;&lt;/span&gt;" style="text;html=1;strokeColor=none;fillColor=none;align=center;verticalAlign=middle;whiteSpace=wrap;rounded=0;" parent="WIyWlLk6GJQsqaUBKTNV-1" vertex="1">
          <mxGeometry x="-3430" y="-91.25" width="40" height="20" as="geometry" />
        </mxCell>
        <mxCell id="Ut67D4-_fYfOlmeCOS3n-97" value="" style="endArrow=classic;html=1;dashed=1;exitX=0.5;exitY=1;exitDx=0;exitDy=0;entryX=0.5;entryY=0;entryDx=0;entryDy=0;" parent="WIyWlLk6GJQsqaUBKTNV-1" source="Ut67D4-_fYfOlmeCOS3n-68" target="Ut67D4-_fYfOlmeCOS3n-90" edge="1">
          <mxGeometry width="50" height="50" relative="1" as="geometry">
            <mxPoint x="-3059.9999999999673" y="-310.3699999999999" as="sourcePoint" />
            <mxPoint x="-2720.0000000000327" y="-191.25000000000023" as="targetPoint" />
          </mxGeometry>
        </mxCell>
        <mxCell id="Ut67D4-_fYfOlmeCOS3n-98" value="" style="endArrow=classic;html=1;dashed=1;exitX=0.5;exitY=1;exitDx=0;exitDy=0;entryX=0.5;entryY=0;entryDx=0;entryDy=0;" parent="WIyWlLk6GJQsqaUBKTNV-1" source="Ut67D4-_fYfOlmeCOS3n-69" target="Ut67D4-_fYfOlmeCOS3n-92" edge="1">
          <mxGeometry width="50" height="50" relative="1" as="geometry">
            <mxPoint x="-3070" y="-300.3699999999999" as="sourcePoint" />
            <mxPoint x="-3160" y="-120.00000000000023" as="targetPoint" />
          </mxGeometry>
        </mxCell>
        <mxCell id="Ut67D4-_fYfOlmeCOS3n-108" value="" style="endArrow=classic;html=1;dashed=1;exitX=0;exitY=0.5;exitDx=0;exitDy=0;entryX=1;entryY=0.5;entryDx=0;entryDy=0;" parent="WIyWlLk6GJQsqaUBKTNV-1" source="Ut67D4-_fYfOlmeCOS3n-71" target="Ut67D4-_fYfOlmeCOS3n-116" edge="1">
          <mxGeometry width="50" height="50" relative="1" as="geometry">
            <mxPoint x="-3390" y="-305" as="sourcePoint" />
            <mxPoint x="-3590" y="-158.75" as="targetPoint" />
          </mxGeometry>
        </mxCell>
        <mxCell id="Ut67D4-_fYfOlmeCOS3n-109" value="" style="endArrow=classic;html=1;dashed=1;exitX=0;exitY=0.5;exitDx=0;exitDy=0;entryX=0.5;entryY=0;entryDx=0;entryDy=0;" parent="WIyWlLk6GJQsqaUBKTNV-1" source="Ut67D4-_fYfOlmeCOS3n-69" target="Ut67D4-_fYfOlmeCOS3n-117" edge="1">
          <mxGeometry width="50" height="50" relative="1" as="geometry">
            <mxPoint x="-3240" y="-269.5" as="sourcePoint" />
            <mxPoint x="-3912.9289321881347" y="-165.8210678118653" as="targetPoint" />
          </mxGeometry>
        </mxCell>
        <mxCell id="Ut67D4-_fYfOlmeCOS3n-112" value="&lt;font style=&quot;font-size: 20px&quot;&gt;&lt;i&gt;modelGeneration&lt;/i&gt;&lt;/font&gt;" style="text;html=1;strokeColor=none;fillColor=none;align=center;verticalAlign=middle;whiteSpace=wrap;rounded=0;" parent="WIyWlLk6GJQsqaUBKTNV-1" vertex="1">
          <mxGeometry x="-3140" y="-12.5" width="40" height="20" as="geometry" />
        </mxCell>
        <mxCell id="Ut67D4-_fYfOlmeCOS3n-113" value="" style="whiteSpace=wrap;html=1;aspect=fixed;fillColor=#f8cecc;strokeColor=#b85450;" parent="WIyWlLk6GJQsqaUBKTNV-1" vertex="1">
          <mxGeometry x="-3780" y="-22.5" width="40" height="40" as="geometry" />
        </mxCell>
        <mxCell id="Ut67D4-_fYfOlmeCOS3n-114" value="" style="endArrow=classic;html=1;entryX=0.75;entryY=0;entryDx=0;entryDy=0;exitX=0;exitY=0.5;exitDx=0;exitDy=0;" parent="WIyWlLk6GJQsqaUBKTNV-1" source="Ut67D4-_fYfOlmeCOS3n-116" target="Ut67D4-_fYfOlmeCOS3n-113" edge="1">
          <mxGeometry width="50" height="50" relative="1" as="geometry">
            <mxPoint x="-3710" y="-31.25" as="sourcePoint" />
            <mxPoint x="-3230" y="137.5" as="targetPoint" />
          </mxGeometry>
        </mxCell>
        <mxCell id="Ut67D4-_fYfOlmeCOS3n-115" value="" style="endArrow=classic;html=1;entryX=0.25;entryY=0;entryDx=0;entryDy=0;exitX=1;exitY=0.5;exitDx=0;exitDy=0;" parent="WIyWlLk6GJQsqaUBKTNV-1" source="Ut67D4-_fYfOlmeCOS3n-117" target="Ut67D4-_fYfOlmeCOS3n-113" edge="1">
          <mxGeometry width="50" height="50" relative="1" as="geometry">
            <mxPoint x="-3840" y="-22.25" as="sourcePoint" />
            <mxPoint x="-3740" y="-12.5" as="targetPoint" />
          </mxGeometry>
        </mxCell>
        <mxCell id="Ut67D4-_fYfOlmeCOS3n-116" value="" style="ellipse;whiteSpace=wrap;html=1;aspect=fixed;fillColor=#f5f5f5;strokeColor=#666666;fontColor=#333333;" parent="WIyWlLk6GJQsqaUBKTNV-1" vertex="1">
          <mxGeometry x="-3650" y="-111.25" width="20" height="20" as="geometry" />
        </mxCell>
        <mxCell id="Ut67D4-_fYfOlmeCOS3n-117" value="" style="ellipse;whiteSpace=wrap;html=1;aspect=fixed;fillColor=#f5f5f5;strokeColor=#666666;fontColor=#333333;" parent="WIyWlLk6GJQsqaUBKTNV-1" vertex="1">
          <mxGeometry x="-3890" y="-111.25" width="20" height="20" as="geometry" />
        </mxCell>
        <mxCell id="Ut67D4-_fYfOlmeCOS3n-118" value="" style="endArrow=classic;html=1;exitX=0.75;exitY=1;exitDx=0;exitDy=0;entryX=0;entryY=0;entryDx=0;entryDy=0;" parent="WIyWlLk6GJQsqaUBKTNV-1" source="Ut67D4-_fYfOlmeCOS3n-113" target="Ut67D4-_fYfOlmeCOS3n-119" edge="1">
          <mxGeometry width="50" height="50" relative="1" as="geometry">
            <mxPoint x="-3760.5" y="36.25" as="sourcePoint" />
            <mxPoint x="-3760" y="117.5" as="targetPoint" />
          </mxGeometry>
        </mxCell>
        <mxCell id="Ut67D4-_fYfOlmeCOS3n-119" value="" style="ellipse;whiteSpace=wrap;html=1;aspect=fixed;fillColor=#ffe6cc;strokeColor=#d79b00;" parent="WIyWlLk6GJQsqaUBKTNV-1" vertex="1">
          <mxGeometry x="-3650" y="88.75" width="20" height="20" as="geometry" />
        </mxCell>
        <mxCell id="Ut67D4-_fYfOlmeCOS3n-121" value="&lt;span style=&quot;font-size: 20px&quot;&gt;config&lt;br&gt;(!)&lt;br&gt;&lt;/span&gt;" style="text;html=1;strokeColor=none;fillColor=none;align=center;verticalAlign=middle;whiteSpace=wrap;rounded=0;" parent="WIyWlLk6GJQsqaUBKTNV-1" vertex="1">
          <mxGeometry x="-3950" y="-91.25" width="40" height="20" as="geometry" />
        </mxCell>
        <mxCell id="Ut67D4-_fYfOlmeCOS3n-122" value="&lt;font style=&quot;font-size: 20px&quot;&gt;&lt;i&gt;featureDescription&lt;/i&gt;&lt;/font&gt;" style="text;html=1;strokeColor=none;fillColor=none;align=center;verticalAlign=middle;whiteSpace=wrap;rounded=0;" parent="WIyWlLk6GJQsqaUBKTNV-1" vertex="1">
          <mxGeometry x="-3650" y="-13.75" width="40" height="20" as="geometry" />
        </mxCell>
        <mxCell id="Ut67D4-_fYfOlmeCOS3n-123" value="&lt;span style=&quot;font-size: 20px&quot;&gt;features&lt;br&gt;(+)&lt;br&gt;&lt;/span&gt;" style="text;html=1;strokeColor=none;fillColor=none;align=center;verticalAlign=middle;whiteSpace=wrap;rounded=0;" parent="WIyWlLk6GJQsqaUBKTNV-1" vertex="1">
          <mxGeometry x="-3590" y="-88.75" width="40" height="20" as="geometry" />
        </mxCell>
        <mxCell id="Ut67D4-_fYfOlmeCOS3n-124" value="" style="endArrow=classic;html=1;entryX=1;entryY=0;entryDx=0;entryDy=0;" parent="WIyWlLk6GJQsqaUBKTNV-1" target="Ut67D4-_fYfOlmeCOS3n-125" edge="1">
          <mxGeometry width="50" height="50" relative="1" as="geometry">
            <mxPoint x="-3770" y="18" as="sourcePoint" />
            <mxPoint x="-3870" y="126.88" as="targetPoint" />
          </mxGeometry>
        </mxCell>
        <mxCell id="Ut67D4-_fYfOlmeCOS3n-125" value="" style="ellipse;whiteSpace=wrap;html=1;aspect=fixed;fillColor=#ffe6cc;strokeColor=#d79b00;" parent="WIyWlLk6GJQsqaUBKTNV-1" vertex="1">
          <mxGeometry x="-3890" y="86.25" width="20" height="20" as="geometry" />
        </mxCell>
        <mxCell id="Ut67D4-_fYfOlmeCOS3n-126" value="&lt;span style=&quot;font-size: 20px&quot;&gt;outputs&lt;br&gt;(!)&lt;br&gt;&lt;/span&gt;" style="text;html=1;strokeColor=none;fillColor=none;align=center;verticalAlign=middle;whiteSpace=wrap;rounded=0;" parent="WIyWlLk6GJQsqaUBKTNV-1" vertex="1">
          <mxGeometry x="-3190" y="88.75" width="40" height="20" as="geometry" />
        </mxCell>
        <mxCell id="Ut67D4-_fYfOlmeCOS3n-127" value="&lt;span style=&quot;font-size: 20px&quot;&gt;symEncode&lt;br&gt;(S)&lt;br&gt;&lt;/span&gt;" style="text;html=1;strokeColor=none;fillColor=none;align=center;verticalAlign=middle;whiteSpace=wrap;rounded=0;" parent="WIyWlLk6GJQsqaUBKTNV-1" vertex="1">
          <mxGeometry x="-3970" y="83.13" width="40" height="20" as="geometry" />
        </mxCell>
        <mxCell id="Ut67D4-_fYfOlmeCOS3n-129" value="&lt;span style=&quot;font-size: 20px&quot;&gt;features&lt;br&gt;(+)&lt;br&gt;&lt;/span&gt;" style="text;html=1;strokeColor=none;fillColor=none;align=center;verticalAlign=middle;whiteSpace=wrap;rounded=0;" parent="WIyWlLk6GJQsqaUBKTNV-1" vertex="1">
          <mxGeometry x="-3600" y="86.25" width="40" height="20" as="geometry" />
        </mxCell>
        <mxCell id="Ut67D4-_fYfOlmeCOS3n-130" value="" style="whiteSpace=wrap;html=1;aspect=fixed;fillColor=#f8cecc;strokeColor=#b85450;" parent="WIyWlLk6GJQsqaUBKTNV-1" vertex="1">
          <mxGeometry x="-3260" y="480" width="40" height="40" as="geometry" />
        </mxCell>
        <mxCell id="Ut67D4-_fYfOlmeCOS3n-131" value="&lt;font style=&quot;font-size: 20px&quot;&gt;&lt;i&gt;dataPreprocessing&lt;/i&gt;&lt;/font&gt;" style="text;html=1;strokeColor=none;fillColor=none;align=center;verticalAlign=middle;whiteSpace=wrap;rounded=0;" parent="WIyWlLk6GJQsqaUBKTNV-1" vertex="1">
          <mxGeometry x="-3388" y="488.75" width="40" height="20" as="geometry" />
        </mxCell>
        <mxCell id="Ut67D4-_fYfOlmeCOS3n-132" value="" style="endArrow=classic;html=1;exitX=0.5;exitY=1;exitDx=0;exitDy=0;" parent="WIyWlLk6GJQsqaUBKTNV-1" source="fdKkvQmOK0W9S40QWLTO-0" edge="1">
          <mxGeometry width="50" height="50" relative="1" as="geometry">
            <mxPoint x="-3280" y="380" as="sourcePoint" />
            <mxPoint x="-3250" y="480" as="targetPoint" />
          </mxGeometry>
        </mxCell>
        <mxCell id="Ut67D4-_fYfOlmeCOS3n-133" value="" style="endArrow=classic;html=1;exitX=0;exitY=0.5;exitDx=0;exitDy=0;entryX=1;entryY=0;entryDx=0;entryDy=0;" parent="WIyWlLk6GJQsqaUBKTNV-1" source="Ut67D4-_fYfOlmeCOS3n-136" target="Ut67D4-_fYfOlmeCOS3n-130" edge="1">
          <mxGeometry width="50" height="50" relative="1" as="geometry">
            <mxPoint x="-3090" y="360" as="sourcePoint" />
            <mxPoint x="-3250" y="411.25" as="targetPoint" />
          </mxGeometry>
        </mxCell>
        <mxCell id="Ut67D4-_fYfOlmeCOS3n-134" value="" style="endArrow=classic;html=1;entryX=0.75;entryY=0;entryDx=0;entryDy=0;" parent="WIyWlLk6GJQsqaUBKTNV-1" target="Ut67D4-_fYfOlmeCOS3n-130" edge="1">
          <mxGeometry width="50" height="50" relative="1" as="geometry">
            <mxPoint x="-3200" y="360" as="sourcePoint" />
            <mxPoint x="-3229.9999999999995" y="50" as="targetPoint" />
          </mxGeometry>
        </mxCell>
        <mxCell id="Ut67D4-_fYfOlmeCOS3n-135" value="" style="ellipse;whiteSpace=wrap;html=1;aspect=fixed;fillColor=#f5f5f5;strokeColor=#666666;fontColor=#333333;" parent="WIyWlLk6GJQsqaUBKTNV-1" vertex="1">
          <mxGeometry x="-3210" y="350" width="20" height="20" as="geometry" />
        </mxCell>
        <mxCell id="Ut67D4-_fYfOlmeCOS3n-136" value="" style="ellipse;whiteSpace=wrap;html=1;aspect=fixed;fillColor=#f5f5f5;strokeColor=#666666;fontColor=#333333;" parent="WIyWlLk6GJQsqaUBKTNV-1" vertex="1">
          <mxGeometry x="-3130" y="350" width="20" height="20" as="geometry" />
        </mxCell>
        <mxCell id="Ut67D4-_fYfOlmeCOS3n-137" value="" style="ellipse;whiteSpace=wrap;html=1;aspect=fixed;fillColor=#f5f5f5;strokeColor=#666666;fontColor=#333333;" parent="WIyWlLk6GJQsqaUBKTNV-1" vertex="1">
          <mxGeometry x="-3370" y="350" width="20" height="20" as="geometry" />
        </mxCell>
        <mxCell id="Ut67D4-_fYfOlmeCOS3n-138" value="&lt;span style=&quot;font-size: 20px&quot;&gt;target&lt;br&gt;(IJFS)&lt;br&gt;&lt;/span&gt;" style="text;html=1;strokeColor=none;fillColor=none;align=center;verticalAlign=middle;whiteSpace=wrap;rounded=0;" parent="WIyWlLk6GJQsqaUBKTNV-1" vertex="1">
          <mxGeometry x="-3060" y="385" width="40" height="20" as="geometry" />
        </mxCell>
        <mxCell id="Ut67D4-_fYfOlmeCOS3n-139" value="&lt;span style=&quot;font-size: 20px&quot;&gt;features&lt;br&gt;(+)&lt;br&gt;&lt;/span&gt;" style="text;html=1;strokeColor=none;fillColor=none;align=center;verticalAlign=middle;whiteSpace=wrap;rounded=0;" parent="WIyWlLk6GJQsqaUBKTNV-1" vertex="1">
          <mxGeometry x="-3190" y="310" width="40" height="20" as="geometry" />
        </mxCell>
        <mxCell id="Ut67D4-_fYfOlmeCOS3n-140" value="&lt;span style=&quot;font-size: 20px&quot;&gt;config&lt;br&gt;(!)&lt;br&gt;&lt;/span&gt;" style="text;html=1;strokeColor=none;fillColor=none;align=center;verticalAlign=middle;whiteSpace=wrap;rounded=0;" parent="WIyWlLk6GJQsqaUBKTNV-1" vertex="1">
          <mxGeometry x="-3430" y="380" width="40" height="20" as="geometry" />
        </mxCell>
        <mxCell id="Ut67D4-_fYfOlmeCOS3n-141" value="" style="endArrow=classic;html=1;dashed=1;exitX=1;exitY=1;exitDx=0;exitDy=0;entryX=0;entryY=0;entryDx=0;entryDy=0;" parent="WIyWlLk6GJQsqaUBKTNV-1" source="Ut67D4-_fYfOlmeCOS3n-119" target="Ut67D4-_fYfOlmeCOS3n-135" edge="1">
          <mxGeometry width="50" height="50" relative="1" as="geometry">
            <mxPoint x="-3390" y="-305" as="sourcePoint" />
            <mxPoint x="-3350" y="-101.25" as="targetPoint" />
          </mxGeometry>
        </mxCell>
        <mxCell id="Ut67D4-_fYfOlmeCOS3n-142" value="" style="endArrow=classic;html=1;dashed=1;exitX=0.5;exitY=1;exitDx=0;exitDy=0;entryX=1;entryY=0;entryDx=0;entryDy=0;" parent="WIyWlLk6GJQsqaUBKTNV-1" source="Ut67D4-_fYfOlmeCOS3n-81" target="Ut67D4-_fYfOlmeCOS3n-136" edge="1">
          <mxGeometry width="50" height="50" relative="1" as="geometry">
            <mxPoint x="-3622.928932188192" y="115.821067811808" as="sourcePoint" />
            <mxPoint x="-3397.0710678118658" y="362.92893218813424" as="targetPoint" />
          </mxGeometry>
        </mxCell>
        <mxCell id="Ut67D4-_fYfOlmeCOS3n-145" value="" style="curved=1;endArrow=classic;html=1;dashed=1;exitX=0;exitY=0.5;exitDx=0;exitDy=0;entryX=0;entryY=0.5;entryDx=0;entryDy=0;" parent="WIyWlLk6GJQsqaUBKTNV-1" source="Ut67D4-_fYfOlmeCOS3n-69" target="Ut67D4-_fYfOlmeCOS3n-137" edge="1">
          <mxGeometry width="50" height="50" relative="1" as="geometry">
            <mxPoint x="-3100" y="-250" as="sourcePoint" />
            <mxPoint x="-3860" y="420" as="targetPoint" />
            <Array as="points">
              <mxPoint x="-4170" y="-270" />
              <mxPoint x="-3940" y="370" />
            </Array>
          </mxGeometry>
        </mxCell>
        <mxCell id="Ut67D4-_fYfOlmeCOS3n-146" value="" style="endArrow=classic;html=1;entryX=0.5;entryY=0;entryDx=0;entryDy=0;exitX=0.5;exitY=1;exitDx=0;exitDy=0;" parent="WIyWlLk6GJQsqaUBKTNV-1" source="Ut67D4-_fYfOlmeCOS3n-130" target="Ut67D4-_fYfOlmeCOS3n-147" edge="1">
          <mxGeometry width="50" height="50" relative="1" as="geometry">
            <mxPoint x="-3230" y="520" as="sourcePoint" />
            <mxPoint x="-3240" y="620" as="targetPoint" />
          </mxGeometry>
        </mxCell>
        <mxCell id="Ut67D4-_fYfOlmeCOS3n-147" value="" style="ellipse;whiteSpace=wrap;html=1;aspect=fixed;fillColor=#ffe6cc;strokeColor=#d79b00;" parent="WIyWlLk6GJQsqaUBKTNV-1" vertex="1">
          <mxGeometry x="-3250" y="590" width="20" height="20" as="geometry" />
        </mxCell>
        <mxCell id="Ut67D4-_fYfOlmeCOS3n-148" value="" style="endArrow=classic;html=1;entryX=0.5;entryY=0;entryDx=0;entryDy=0;exitX=0.5;exitY=1;exitDx=0;exitDy=0;" parent="WIyWlLk6GJQsqaUBKTNV-1" source="Ut67D4-_fYfOlmeCOS3n-113" target="Ut67D4-_fYfOlmeCOS3n-149" edge="1">
          <mxGeometry width="50" height="50" relative="1" as="geometry">
            <mxPoint x="-3610" as="sourcePoint" />
            <mxPoint x="-3710" y="109.38" as="targetPoint" />
          </mxGeometry>
        </mxCell>
        <mxCell id="Ut67D4-_fYfOlmeCOS3n-149" value="" style="ellipse;whiteSpace=wrap;html=1;aspect=fixed;fillColor=#ffe6cc;strokeColor=#d79b00;" parent="WIyWlLk6GJQsqaUBKTNV-1" vertex="1">
          <mxGeometry x="-3770" y="110" width="20" height="20" as="geometry" />
        </mxCell>
        <mxCell id="Ut67D4-_fYfOlmeCOS3n-150" value="&lt;span style=&quot;font-size: 20px&quot;&gt;dataDescription&lt;br&gt;(+)&lt;br&gt;&lt;/span&gt;" style="text;html=1;strokeColor=none;fillColor=none;align=center;verticalAlign=middle;whiteSpace=wrap;rounded=0;" parent="WIyWlLk6GJQsqaUBKTNV-1" vertex="1">
          <mxGeometry x="-3700" y="150" width="40" height="20" as="geometry" />
        </mxCell>
        <mxCell id="Ut67D4-_fYfOlmeCOS3n-151" value="&lt;span style=&quot;font-size: 20px&quot;&gt;outputs&lt;br&gt;(+)&lt;br&gt;&lt;/span&gt;" style="text;html=1;strokeColor=none;fillColor=none;align=center;verticalAlign=middle;whiteSpace=wrap;rounded=0;" parent="WIyWlLk6GJQsqaUBKTNV-1" vertex="1">
          <mxGeometry x="-3200" y="590" width="40" height="20" as="geometry" />
        </mxCell>
        <mxCell id="3i1GLZzZhCti5nv_dwvX-15" value="" style="edgeStyle=orthogonalEdgeStyle;curved=1;orthogonalLoop=1;jettySize=auto;html=1;" parent="WIyWlLk6GJQsqaUBKTNV-1" source="Ut67D4-_fYfOlmeCOS3n-166" target="3i1GLZzZhCti5nv_dwvX-10" edge="1">
          <mxGeometry relative="1" as="geometry">
            <Array as="points">
              <mxPoint x="-3239" y="1134" />
              <mxPoint x="-3239" y="1134" />
            </Array>
          </mxGeometry>
        </mxCell>
        <mxCell id="Ut67D4-_fYfOlmeCOS3n-166" value="" style="whiteSpace=wrap;html=1;aspect=fixed;fillColor=#f8cecc;strokeColor=#b85450;" parent="WIyWlLk6GJQsqaUBKTNV-1" vertex="1">
          <mxGeometry x="-3260" y="1037.75" width="40" height="40" as="geometry" />
        </mxCell>
        <mxCell id="Ut67D4-_fYfOlmeCOS3n-167" value="" style="endArrow=classic;html=1;entryX=0.75;entryY=0;entryDx=0;entryDy=0;exitX=0;exitY=0.5;exitDx=0;exitDy=0;" parent="WIyWlLk6GJQsqaUBKTNV-1" source="Ut67D4-_fYfOlmeCOS3n-169" target="Ut67D4-_fYfOlmeCOS3n-166" edge="1">
          <mxGeometry width="50" height="50" relative="1" as="geometry">
            <mxPoint x="-3190" y="1029" as="sourcePoint" />
            <mxPoint x="-2710" y="1197.75" as="targetPoint" />
          </mxGeometry>
        </mxCell>
        <mxCell id="Ut67D4-_fYfOlmeCOS3n-168" value="" style="endArrow=classic;html=1;entryX=0.25;entryY=0;entryDx=0;entryDy=0;exitX=1;exitY=0.5;exitDx=0;exitDy=0;" parent="WIyWlLk6GJQsqaUBKTNV-1" source="Ut67D4-_fYfOlmeCOS3n-170" target="Ut67D4-_fYfOlmeCOS3n-166" edge="1">
          <mxGeometry width="50" height="50" relative="1" as="geometry">
            <mxPoint x="-3320" y="1038" as="sourcePoint" />
            <mxPoint x="-3220" y="1047.75" as="targetPoint" />
          </mxGeometry>
        </mxCell>
        <mxCell id="Ut67D4-_fYfOlmeCOS3n-169" value="" style="ellipse;whiteSpace=wrap;html=1;aspect=fixed;fillColor=#f5f5f5;strokeColor=#666666;fontColor=#333333;" parent="WIyWlLk6GJQsqaUBKTNV-1" vertex="1">
          <mxGeometry x="-3090" y="910" width="20" height="20" as="geometry" />
        </mxCell>
        <mxCell id="Ut67D4-_fYfOlmeCOS3n-170" value="" style="ellipse;whiteSpace=wrap;html=1;aspect=fixed;fillColor=#f5f5f5;strokeColor=#666666;fontColor=#333333;" parent="WIyWlLk6GJQsqaUBKTNV-1" vertex="1">
          <mxGeometry x="-3410" y="910" width="20" height="20" as="geometry" />
        </mxCell>
        <mxCell id="Ut67D4-_fYfOlmeCOS3n-171" value="" style="endArrow=classic;html=1;exitX=0.75;exitY=1;exitDx=0;exitDy=0;entryX=0;entryY=0;entryDx=0;entryDy=0;" parent="WIyWlLk6GJQsqaUBKTNV-1" source="Ut67D4-_fYfOlmeCOS3n-166" target="Ut67D4-_fYfOlmeCOS3n-172" edge="1">
          <mxGeometry width="50" height="50" relative="1" as="geometry">
            <mxPoint x="-3240.5" y="1096.5" as="sourcePoint" />
            <mxPoint x="-3240" y="1177.75" as="targetPoint" />
          </mxGeometry>
        </mxCell>
        <mxCell id="Ut67D4-_fYfOlmeCOS3n-172" value="" style="ellipse;whiteSpace=wrap;html=1;aspect=fixed;fillColor=#ffe6cc;strokeColor=#d79b00;" parent="WIyWlLk6GJQsqaUBKTNV-1" vertex="1">
          <mxGeometry x="-3090" y="1184.37" width="20" height="20" as="geometry" />
        </mxCell>
        <mxCell id="Ut67D4-_fYfOlmeCOS3n-173" value="&lt;span style=&quot;font-size: 20px&quot;&gt;config&lt;br&gt;(!)&lt;br&gt;&lt;/span&gt;" style="text;html=1;strokeColor=none;fillColor=none;align=center;verticalAlign=middle;whiteSpace=wrap;rounded=0;" parent="WIyWlLk6GJQsqaUBKTNV-1" vertex="1">
          <mxGeometry x="-3470" y="930" width="40" height="20" as="geometry" />
        </mxCell>
        <mxCell id="Ut67D4-_fYfOlmeCOS3n-174" value="&lt;font style=&quot;font-size: 20px&quot;&gt;&lt;i&gt;featureCreation&lt;/i&gt;&lt;/font&gt;" style="text;html=1;strokeColor=none;fillColor=none;align=center;verticalAlign=middle;whiteSpace=wrap;rounded=0;" parent="WIyWlLk6GJQsqaUBKTNV-1" vertex="1">
          <mxGeometry x="-3130" y="1046.5" width="40" height="20" as="geometry" />
        </mxCell>
        <mxCell id="Ut67D4-_fYfOlmeCOS3n-175" value="&lt;span style=&quot;font-size: 20px&quot;&gt;features&lt;br&gt;(+)&lt;br&gt;&lt;/span&gt;" style="text;html=1;strokeColor=none;fillColor=none;align=center;verticalAlign=middle;whiteSpace=wrap;rounded=0;" parent="WIyWlLk6GJQsqaUBKTNV-1" vertex="1">
          <mxGeometry x="-3030" y="932.5" width="40" height="20" as="geometry" />
        </mxCell>
        <mxCell id="Ut67D4-_fYfOlmeCOS3n-176" value="" style="endArrow=classic;html=1;exitX=0.25;exitY=1;exitDx=0;exitDy=0;entryX=1;entryY=0;entryDx=0;entryDy=0;" parent="WIyWlLk6GJQsqaUBKTNV-1" source="Ut67D4-_fYfOlmeCOS3n-166" target="Ut67D4-_fYfOlmeCOS3n-177" edge="1">
          <mxGeometry width="50" height="50" relative="1" as="geometry">
            <mxPoint x="-3340" y="1087.13" as="sourcePoint" />
            <mxPoint x="-3350" y="1187.13" as="targetPoint" />
          </mxGeometry>
        </mxCell>
        <mxCell id="Ut67D4-_fYfOlmeCOS3n-177" value="" style="ellipse;whiteSpace=wrap;html=1;aspect=fixed;fillColor=#ffe6cc;strokeColor=#d79b00;" parent="WIyWlLk6GJQsqaUBKTNV-1" vertex="1">
          <mxGeometry x="-3410" y="1183.12" width="20" height="20" as="geometry" />
        </mxCell>
        <mxCell id="Ut67D4-_fYfOlmeCOS3n-178" value="&lt;span style=&quot;font-size: 20px&quot;&gt;creationTime&lt;br&gt;(t)&lt;br&gt;&lt;/span&gt;" style="text;html=1;strokeColor=none;fillColor=none;align=center;verticalAlign=middle;whiteSpace=wrap;rounded=0;" parent="WIyWlLk6GJQsqaUBKTNV-1" vertex="1">
          <mxGeometry x="-3490" y="1180" width="40" height="20" as="geometry" />
        </mxCell>
        <mxCell id="Ut67D4-_fYfOlmeCOS3n-179" value="&lt;span style=&quot;font-size: 20px&quot;&gt;features&lt;br&gt;(+)&lt;br&gt;&lt;/span&gt;" style="text;html=1;strokeColor=none;fillColor=none;align=center;verticalAlign=middle;whiteSpace=wrap;rounded=0;" parent="WIyWlLk6GJQsqaUBKTNV-1" vertex="1">
          <mxGeometry x="-3040" y="1181.87" width="40" height="20" as="geometry" />
        </mxCell>
        <mxCell id="Ut67D4-_fYfOlmeCOS3n-180" value="" style="endArrow=classic;html=1;dashed=1;exitX=0.5;exitY=1;exitDx=0;exitDy=0;entryX=0.5;entryY=0;entryDx=0;entryDy=0;" parent="WIyWlLk6GJQsqaUBKTNV-1" source="Ut67D4-_fYfOlmeCOS3n-147" target="Ut67D4-_fYfOlmeCOS3n-169" edge="1">
          <mxGeometry width="50" height="50" relative="1" as="geometry">
            <mxPoint x="-3180" y="1090" as="sourcePoint" />
            <mxPoint x="-3130" y="1040" as="targetPoint" />
          </mxGeometry>
        </mxCell>
        <mxCell id="Ut67D4-_fYfOlmeCOS3n-181" value="" style="curved=1;endArrow=classic;html=1;dashed=1;entryX=0;entryY=0;entryDx=0;entryDy=0;exitX=0;exitY=0.5;exitDx=0;exitDy=0;" parent="WIyWlLk6GJQsqaUBKTNV-1" source="Ut67D4-_fYfOlmeCOS3n-69" target="Ut67D4-_fYfOlmeCOS3n-170" edge="1">
          <mxGeometry width="50" height="50" relative="1" as="geometry">
            <mxPoint x="-3440" y="-250" as="sourcePoint" />
            <mxPoint x="-3400" y="370" as="targetPoint" />
            <Array as="points">
              <mxPoint x="-4240" y="-270" />
              <mxPoint x="-3970" y="430" />
            </Array>
          </mxGeometry>
        </mxCell>
        <mxCell id="Ut67D4-_fYfOlmeCOS3n-182" value="" style="whiteSpace=wrap;html=1;aspect=fixed;fillColor=#f8cecc;strokeColor=#b85450;" parent="WIyWlLk6GJQsqaUBKTNV-1" vertex="1">
          <mxGeometry x="-3260" y="1597.75" width="40" height="40" as="geometry" />
        </mxCell>
        <mxCell id="Ut67D4-_fYfOlmeCOS3n-183" value="" style="endArrow=classic;html=1;entryX=0.5;entryY=0;entryDx=0;entryDy=0;exitX=0.5;exitY=1;exitDx=0;exitDy=0;" parent="WIyWlLk6GJQsqaUBKTNV-1" source="Ut67D4-_fYfOlmeCOS3n-185" target="Ut67D4-_fYfOlmeCOS3n-182" edge="1">
          <mxGeometry width="50" height="50" relative="1" as="geometry">
            <mxPoint x="-3190" y="1589" as="sourcePoint" />
            <mxPoint x="-2710" y="1757.75" as="targetPoint" />
          </mxGeometry>
        </mxCell>
        <mxCell id="Ut67D4-_fYfOlmeCOS3n-184" value="" style="endArrow=classic;html=1;entryX=0.25;entryY=0;entryDx=0;entryDy=0;exitX=1;exitY=1;exitDx=0;exitDy=0;" parent="WIyWlLk6GJQsqaUBKTNV-1" source="Ut67D4-_fYfOlmeCOS3n-186" target="Ut67D4-_fYfOlmeCOS3n-182" edge="1">
          <mxGeometry width="50" height="50" relative="1" as="geometry">
            <mxPoint x="-3320" y="1598" as="sourcePoint" />
            <mxPoint x="-3220" y="1607.75" as="targetPoint" />
          </mxGeometry>
        </mxCell>
        <mxCell id="Ut67D4-_fYfOlmeCOS3n-185" value="" style="ellipse;whiteSpace=wrap;html=1;aspect=fixed;fillColor=#f5f5f5;strokeColor=#666666;fontColor=#333333;" parent="WIyWlLk6GJQsqaUBKTNV-1" vertex="1">
          <mxGeometry x="-3250" y="1470" width="20" height="20" as="geometry" />
        </mxCell>
        <mxCell id="Ut67D4-_fYfOlmeCOS3n-186" value="" style="ellipse;whiteSpace=wrap;html=1;aspect=fixed;fillColor=#f5f5f5;strokeColor=#666666;fontColor=#333333;" parent="WIyWlLk6GJQsqaUBKTNV-1" vertex="1">
          <mxGeometry x="-3410" y="1470" width="20" height="20" as="geometry" />
        </mxCell>
        <mxCell id="Ut67D4-_fYfOlmeCOS3n-187" value="" style="endArrow=classic;html=1;exitX=0.75;exitY=1;exitDx=0;exitDy=0;entryX=0;entryY=0;entryDx=0;entryDy=0;" parent="WIyWlLk6GJQsqaUBKTNV-1" source="Ut67D4-_fYfOlmeCOS3n-182" target="Ut67D4-_fYfOlmeCOS3n-188" edge="1">
          <mxGeometry width="50" height="50" relative="1" as="geometry">
            <mxPoint x="-3240.5" y="1656.5" as="sourcePoint" />
            <mxPoint x="-3240" y="1737.75" as="targetPoint" />
          </mxGeometry>
        </mxCell>
        <mxCell id="Ut67D4-_fYfOlmeCOS3n-188" value="" style="ellipse;whiteSpace=wrap;html=1;aspect=fixed;fillColor=#ffe6cc;strokeColor=#d79b00;" parent="WIyWlLk6GJQsqaUBKTNV-1" vertex="1">
          <mxGeometry x="-3090" y="1744.37" width="20" height="20" as="geometry" />
        </mxCell>
        <mxCell id="Ut67D4-_fYfOlmeCOS3n-189" value="&lt;span style=&quot;font-size: 20px&quot;&gt;config&lt;br&gt;(!)&lt;br&gt;&lt;/span&gt;" style="text;html=1;strokeColor=none;fillColor=none;align=center;verticalAlign=middle;whiteSpace=wrap;rounded=0;" parent="WIyWlLk6GJQsqaUBKTNV-1" vertex="1">
          <mxGeometry x="-3470" y="1490" width="40" height="20" as="geometry" />
        </mxCell>
        <mxCell id="Ut67D4-_fYfOlmeCOS3n-190" value="&lt;font style=&quot;font-size: 20px&quot;&gt;&lt;i&gt;featureSignificance&lt;/i&gt;&lt;/font&gt;" style="text;html=1;strokeColor=none;fillColor=none;align=center;verticalAlign=middle;whiteSpace=wrap;rounded=0;" parent="WIyWlLk6GJQsqaUBKTNV-1" vertex="1">
          <mxGeometry x="-3130" y="1606.5" width="40" height="20" as="geometry" />
        </mxCell>
        <mxCell id="Ut67D4-_fYfOlmeCOS3n-191" value="&lt;span style=&quot;font-size: 20px&quot;&gt;features&lt;br&gt;(+)&lt;br&gt;&lt;/span&gt;" style="text;html=1;strokeColor=none;fillColor=none;align=center;verticalAlign=middle;whiteSpace=wrap;rounded=0;" parent="WIyWlLk6GJQsqaUBKTNV-1" vertex="1">
          <mxGeometry x="-3308" y="1450" width="40" height="20" as="geometry" />
        </mxCell>
        <mxCell id="Ut67D4-_fYfOlmeCOS3n-192" value="" style="endArrow=classic;html=1;exitX=0.25;exitY=1;exitDx=0;exitDy=0;entryX=1;entryY=0;entryDx=0;entryDy=0;" parent="WIyWlLk6GJQsqaUBKTNV-1" source="Ut67D4-_fYfOlmeCOS3n-182" target="Ut67D4-_fYfOlmeCOS3n-193" edge="1">
          <mxGeometry width="50" height="50" relative="1" as="geometry">
            <mxPoint x="-3340" y="1647.13" as="sourcePoint" />
            <mxPoint x="-3350" y="1747.13" as="targetPoint" />
          </mxGeometry>
        </mxCell>
        <mxCell id="Ut67D4-_fYfOlmeCOS3n-193" value="" style="ellipse;whiteSpace=wrap;html=1;aspect=fixed;fillColor=#ffe6cc;strokeColor=#d79b00;" parent="WIyWlLk6GJQsqaUBKTNV-1" vertex="1">
          <mxGeometry x="-3410" y="1743.12" width="20" height="20" as="geometry" />
        </mxCell>
        <mxCell id="Ut67D4-_fYfOlmeCOS3n-194" value="&lt;span style=&quot;font-size: 20px&quot;&gt;sigFeats&lt;br&gt;(S)&lt;br&gt;&lt;/span&gt;" style="text;html=1;strokeColor=none;fillColor=none;align=center;verticalAlign=middle;whiteSpace=wrap;rounded=0;" parent="WIyWlLk6GJQsqaUBKTNV-1" vertex="1">
          <mxGeometry x="-3490" y="1740" width="40" height="20" as="geometry" />
        </mxCell>
        <mxCell id="Ut67D4-_fYfOlmeCOS3n-195" value="&lt;span style=&quot;font-size: 20px&quot;&gt;features&lt;br&gt;(+)&lt;br&gt;&lt;/span&gt;" style="text;html=1;strokeColor=none;fillColor=none;align=center;verticalAlign=middle;whiteSpace=wrap;rounded=0;" parent="WIyWlLk6GJQsqaUBKTNV-1" vertex="1">
          <mxGeometry x="-3040" y="1741.87" width="40" height="20" as="geometry" />
        </mxCell>
        <mxCell id="Ut67D4-_fYfOlmeCOS3n-196" value="" style="endArrow=classic;html=1;dashed=1;entryX=0.5;entryY=0;entryDx=0;entryDy=0;exitX=0.5;exitY=1;exitDx=0;exitDy=0;" parent="WIyWlLk6GJQsqaUBKTNV-1" source="Ut67D4-_fYfOlmeCOS3n-172" target="Ut67D4-_fYfOlmeCOS3n-185" edge="1">
          <mxGeometry width="50" height="50" relative="1" as="geometry">
            <mxPoint x="-3020" y="1260" as="sourcePoint" />
            <mxPoint x="-3080.5900000000006" y="1460.62" as="targetPoint" />
          </mxGeometry>
        </mxCell>
        <mxCell id="Ut67D4-_fYfOlmeCOS3n-197" value="" style="curved=1;endArrow=classic;html=1;dashed=1;exitX=0;exitY=0.5;exitDx=0;exitDy=0;entryX=0;entryY=0;entryDx=0;entryDy=0;" parent="WIyWlLk6GJQsqaUBKTNV-1" source="Ut67D4-_fYfOlmeCOS3n-69" target="Ut67D4-_fYfOlmeCOS3n-186" edge="1">
          <mxGeometry width="50" height="50" relative="1" as="geometry">
            <mxPoint x="-3420" y="-320" as="sourcePoint" />
            <mxPoint x="-3397" y="1410" as="targetPoint" />
            <Array as="points">
              <mxPoint x="-4380" y="-270" />
              <mxPoint x="-3980" y="450" />
            </Array>
          </mxGeometry>
        </mxCell>
        <mxCell id="Ut67D4-_fYfOlmeCOS3n-212" value="" style="whiteSpace=wrap;html=1;aspect=fixed;fillColor=#f8cecc;strokeColor=#b85450;" parent="WIyWlLk6GJQsqaUBKTNV-1" vertex="1">
          <mxGeometry x="-4621" y="2177.75" width="40" height="40" as="geometry" />
        </mxCell>
        <mxCell id="Ut67D4-_fYfOlmeCOS3n-213" value="" style="endArrow=classic;html=1;entryX=1;entryY=0;entryDx=0;entryDy=0;exitX=0;exitY=0.5;exitDx=0;exitDy=0;" parent="WIyWlLk6GJQsqaUBKTNV-1" source="Ut67D4-_fYfOlmeCOS3n-215" target="Ut67D4-_fYfOlmeCOS3n-212" edge="1">
          <mxGeometry width="50" height="50" relative="1" as="geometry">
            <mxPoint x="-4551" y="2169" as="sourcePoint" />
            <mxPoint x="-4071" y="2337.75" as="targetPoint" />
          </mxGeometry>
        </mxCell>
        <mxCell id="Ut67D4-_fYfOlmeCOS3n-214" value="" style="endArrow=classic;html=1;entryX=0;entryY=0;entryDx=0;entryDy=0;exitX=1;exitY=0.5;exitDx=0;exitDy=0;" parent="WIyWlLk6GJQsqaUBKTNV-1" source="Ut67D4-_fYfOlmeCOS3n-216" target="Ut67D4-_fYfOlmeCOS3n-212" edge="1">
          <mxGeometry width="50" height="50" relative="1" as="geometry">
            <mxPoint x="-4681" y="2178" as="sourcePoint" />
            <mxPoint x="-4581" y="2187.75" as="targetPoint" />
          </mxGeometry>
        </mxCell>
        <mxCell id="Ut67D4-_fYfOlmeCOS3n-215" value="" style="ellipse;whiteSpace=wrap;html=1;aspect=fixed;fillColor=#f5f5f5;strokeColor=#666666;fontColor=#333333;" parent="WIyWlLk6GJQsqaUBKTNV-1" vertex="1">
          <mxGeometry x="-4331" y="2030" width="20" height="20" as="geometry" />
        </mxCell>
        <mxCell id="Ut67D4-_fYfOlmeCOS3n-216" value="" style="ellipse;whiteSpace=wrap;html=1;aspect=fixed;strokeColor=#666666;fontColor=#333333;fillColor=#F5F5F5;" parent="WIyWlLk6GJQsqaUBKTNV-1" vertex="1">
          <mxGeometry x="-4890" y="2030" width="20" height="20" as="geometry" />
        </mxCell>
        <mxCell id="Ut67D4-_fYfOlmeCOS3n-217" value="" style="endArrow=classic;html=1;exitX=0.5;exitY=1;exitDx=0;exitDy=0;entryX=0.5;entryY=0;entryDx=0;entryDy=0;" parent="WIyWlLk6GJQsqaUBKTNV-1" source="Ut67D4-_fYfOlmeCOS3n-212" target="Ut67D4-_fYfOlmeCOS3n-218" edge="1">
          <mxGeometry width="50" height="50" relative="1" as="geometry">
            <mxPoint x="-4601.5" y="2236.5" as="sourcePoint" />
            <mxPoint x="-4601" y="2360" as="targetPoint" />
          </mxGeometry>
        </mxCell>
        <mxCell id="Ut67D4-_fYfOlmeCOS3n-218" value="" style="ellipse;whiteSpace=wrap;html=1;aspect=fixed;fillColor=#ffe6cc;strokeColor=#d79b00;" parent="WIyWlLk6GJQsqaUBKTNV-1" vertex="1">
          <mxGeometry x="-4611" y="2350" width="20" height="20" as="geometry" />
        </mxCell>
        <mxCell id="Ut67D4-_fYfOlmeCOS3n-219" value="&lt;span style=&quot;font-size: 20px&quot;&gt;symEncode&lt;br&gt;(S)&lt;br&gt;&lt;/span&gt;" style="text;html=1;strokeColor=none;fillColor=none;align=center;verticalAlign=middle;whiteSpace=wrap;rounded=0;" parent="WIyWlLk6GJQsqaUBKTNV-1" vertex="1">
          <mxGeometry x="-4910" y="2070" width="40" height="20" as="geometry" />
        </mxCell>
        <mxCell id="Ut67D4-_fYfOlmeCOS3n-221" value="&lt;span style=&quot;font-size: 20px&quot;&gt;sigFeats&lt;br&gt;(S)&lt;br&gt;&lt;/span&gt;" style="text;html=1;strokeColor=none;fillColor=none;align=center;verticalAlign=middle;whiteSpace=wrap;rounded=0;" parent="WIyWlLk6GJQsqaUBKTNV-1" vertex="1">
          <mxGeometry x="-4311" y="2072.5" width="40" height="20" as="geometry" />
        </mxCell>
        <mxCell id="Ut67D4-_fYfOlmeCOS3n-225" value="&lt;span style=&quot;font-size: 20px&quot;&gt;outputs&lt;br&gt;(!)&lt;br&gt;&lt;/span&gt;" style="text;html=1;strokeColor=none;fillColor=none;align=center;verticalAlign=middle;whiteSpace=wrap;rounded=0;" parent="WIyWlLk6GJQsqaUBKTNV-1" vertex="1">
          <mxGeometry x="-4551" y="2350" width="40" height="20" as="geometry" />
        </mxCell>
        <mxCell id="Ut67D4-_fYfOlmeCOS3n-226" value="" style="endArrow=classic;html=1;entryX=0.75;entryY=0;entryDx=0;entryDy=0;exitX=0.5;exitY=1;exitDx=0;exitDy=0;" parent="WIyWlLk6GJQsqaUBKTNV-1" source="Ut67D4-_fYfOlmeCOS3n-229" target="Ut67D4-_fYfOlmeCOS3n-212" edge="1">
          <mxGeometry width="50" height="50" relative="1" as="geometry">
            <mxPoint x="-4521" y="2040" as="sourcePoint" />
            <mxPoint x="-4571" y="2187.75" as="targetPoint" />
          </mxGeometry>
        </mxCell>
        <mxCell id="Ut67D4-_fYfOlmeCOS3n-227" value="" style="endArrow=classic;html=1;entryX=0.25;entryY=0;entryDx=0;entryDy=0;exitX=0.5;exitY=1;exitDx=0;exitDy=0;" parent="WIyWlLk6GJQsqaUBKTNV-1" source="Ut67D4-_fYfOlmeCOS3n-228" target="Ut67D4-_fYfOlmeCOS3n-212" edge="1">
          <mxGeometry width="50" height="50" relative="1" as="geometry">
            <mxPoint x="-4681" y="2040" as="sourcePoint" />
            <mxPoint x="-4581" y="2187.75" as="targetPoint" />
          </mxGeometry>
        </mxCell>
        <mxCell id="Ut67D4-_fYfOlmeCOS3n-228" value="" style="ellipse;whiteSpace=wrap;html=1;aspect=fixed;fillColor=#f5f5f5;strokeColor=#666666;fontColor=#333333;" parent="WIyWlLk6GJQsqaUBKTNV-1" vertex="1">
          <mxGeometry x="-4731" y="2030" width="20" height="20" as="geometry" />
        </mxCell>
        <mxCell id="Ut67D4-_fYfOlmeCOS3n-229" value="" style="ellipse;whiteSpace=wrap;html=1;aspect=fixed;fillColor=#f5f5f5;strokeColor=#666666;fontColor=#333333;" parent="WIyWlLk6GJQsqaUBKTNV-1" vertex="1">
          <mxGeometry x="-4491" y="2030" width="20" height="20" as="geometry" />
        </mxCell>
        <mxCell id="Ut67D4-_fYfOlmeCOS3n-230" value="&lt;span style=&quot;font-size: 20px&quot;&gt;creationTime&lt;br&gt;(t)&lt;br&gt;&lt;/span&gt;" style="text;html=1;strokeColor=none;fillColor=none;align=center;verticalAlign=middle;whiteSpace=wrap;rounded=0;" parent="WIyWlLk6GJQsqaUBKTNV-1" vertex="1">
          <mxGeometry x="-4400" y="2000" width="40" height="20" as="geometry" />
        </mxCell>
        <mxCell id="Ut67D4-_fYfOlmeCOS3n-232" value="" style="curved=1;endArrow=classic;html=1;dashed=1;exitX=0;exitY=0.5;exitDx=0;exitDy=0;entryX=0.5;entryY=0;entryDx=0;entryDy=0;" parent="WIyWlLk6GJQsqaUBKTNV-1" source="Ut67D4-_fYfOlmeCOS3n-193" target="Ut67D4-_fYfOlmeCOS3n-215" edge="1">
          <mxGeometry width="50" height="50" relative="1" as="geometry">
            <mxPoint x="-4070" y="1250" as="sourcePoint" />
            <mxPoint x="-4020" y="1200" as="targetPoint" />
            <Array as="points">
              <mxPoint x="-3570" y="1900" />
              <mxPoint x="-3930" y="1770" />
            </Array>
          </mxGeometry>
        </mxCell>
        <mxCell id="Ut67D4-_fYfOlmeCOS3n-233" value="" style="curved=1;endArrow=classic;html=1;dashed=1;exitX=0.5;exitY=1;exitDx=0;exitDy=0;entryX=0.5;entryY=0;entryDx=0;entryDy=0;" parent="WIyWlLk6GJQsqaUBKTNV-1" source="Ut67D4-_fYfOlmeCOS3n-177" target="Ut67D4-_fYfOlmeCOS3n-229" edge="1">
          <mxGeometry width="50" height="50" relative="1" as="geometry">
            <mxPoint x="-3400" y="1763.12" as="sourcePoint" />
            <mxPoint x="-4030" y="1960" as="targetPoint" />
            <Array as="points">
              <mxPoint x="-3870" y="1500" />
              <mxPoint x="-4090" y="1710" />
            </Array>
          </mxGeometry>
        </mxCell>
        <mxCell id="Ut67D4-_fYfOlmeCOS3n-234" value="&lt;span style=&quot;font-size: 20px&quot;&gt;dataDescription&lt;br&gt;(+)&lt;br&gt;&lt;/span&gt;" style="text;html=1;strokeColor=none;fillColor=none;align=center;verticalAlign=middle;whiteSpace=wrap;rounded=0;" parent="WIyWlLk6GJQsqaUBKTNV-1" vertex="1">
          <mxGeometry x="-4781" y="1990" width="40" height="20" as="geometry" />
        </mxCell>
        <mxCell id="Ut67D4-_fYfOlmeCOS3n-236" value="" style="curved=1;endArrow=classic;html=1;dashed=1;exitX=0.5;exitY=1;exitDx=0;exitDy=0;entryX=1;entryY=0.5;entryDx=0;entryDy=0;" parent="WIyWlLk6GJQsqaUBKTNV-1" source="Ut67D4-_fYfOlmeCOS3n-149" target="Ut67D4-_fYfOlmeCOS3n-228" edge="1">
          <mxGeometry width="50" height="50" relative="1" as="geometry">
            <mxPoint x="-3389.9999999999995" y="1213.12" as="sourcePoint" />
            <mxPoint x="-4110" y="1960" as="targetPoint" />
            <Array as="points">
              <mxPoint x="-3870" y="940" />
              <mxPoint x="-4400" y="1560" />
            </Array>
          </mxGeometry>
        </mxCell>
        <mxCell id="Ut67D4-_fYfOlmeCOS3n-237" value="" style="curved=1;endArrow=classic;html=1;dashed=1;exitX=0;exitY=1;exitDx=0;exitDy=0;entryX=0.5;entryY=0;entryDx=0;entryDy=0;" parent="WIyWlLk6GJQsqaUBKTNV-1" source="Ut67D4-_fYfOlmeCOS3n-125" target="Ut67D4-_fYfOlmeCOS3n-216" edge="1">
          <mxGeometry width="50" height="50" relative="1" as="geometry">
            <mxPoint x="-4120" y="210" as="sourcePoint" />
            <mxPoint x="-4450" y="760" as="targetPoint" />
            <Array as="points">
              <mxPoint x="-4170" y="210" />
              <mxPoint x="-4430" y="860" />
            </Array>
          </mxGeometry>
        </mxCell>
        <mxCell id="Ut67D4-_fYfOlmeCOS3n-251" value="" style="whiteSpace=wrap;html=1;aspect=fixed;fillColor=#f8cecc;strokeColor=#b85450;" parent="WIyWlLk6GJQsqaUBKTNV-1" vertex="1">
          <mxGeometry x="-3260" y="2177.75" width="40" height="40" as="geometry" />
        </mxCell>
        <mxCell id="Ut67D4-_fYfOlmeCOS3n-252" value="" style="endArrow=classic;html=1;entryX=1;entryY=0;entryDx=0;entryDy=0;exitX=0;exitY=0.5;exitDx=0;exitDy=0;" parent="WIyWlLk6GJQsqaUBKTNV-1" source="Ut67D4-_fYfOlmeCOS3n-254" target="Ut67D4-_fYfOlmeCOS3n-251" edge="1">
          <mxGeometry width="50" height="50" relative="1" as="geometry">
            <mxPoint x="-3190" y="2169" as="sourcePoint" />
            <mxPoint x="-2710" y="2337.75" as="targetPoint" />
          </mxGeometry>
        </mxCell>
        <mxCell id="Ut67D4-_fYfOlmeCOS3n-253" value="" style="endArrow=classic;html=1;entryX=0;entryY=0;entryDx=0;entryDy=0;exitX=1;exitY=0.5;exitDx=0;exitDy=0;" parent="WIyWlLk6GJQsqaUBKTNV-1" source="Ut67D4-_fYfOlmeCOS3n-255" target="Ut67D4-_fYfOlmeCOS3n-251" edge="1">
          <mxGeometry width="50" height="50" relative="1" as="geometry">
            <mxPoint x="-3320" y="2178" as="sourcePoint" />
            <mxPoint x="-3220" y="2187.75" as="targetPoint" />
          </mxGeometry>
        </mxCell>
        <mxCell id="Ut67D4-_fYfOlmeCOS3n-254" value="" style="ellipse;whiteSpace=wrap;html=1;aspect=fixed;fillColor=#f5f5f5;strokeColor=#666666;fontColor=#333333;" parent="WIyWlLk6GJQsqaUBKTNV-1" vertex="1">
          <mxGeometry x="-2970" y="2030" width="20" height="20" as="geometry" />
        </mxCell>
        <mxCell id="Ut67D4-_fYfOlmeCOS3n-255" value="" style="ellipse;whiteSpace=wrap;html=1;aspect=fixed;fillColor=#f5f5f5;strokeColor=#666666;fontColor=#333333;" parent="WIyWlLk6GJQsqaUBKTNV-1" vertex="1">
          <mxGeometry x="-3529" y="2030" width="20" height="20" as="geometry" />
        </mxCell>
        <mxCell id="Ut67D4-_fYfOlmeCOS3n-256" value="&lt;span style=&quot;font-size: 20px&quot;&gt;config&lt;br&gt;(!)&lt;br&gt;&lt;/span&gt;" style="text;html=1;strokeColor=none;fillColor=none;align=center;verticalAlign=middle;whiteSpace=wrap;rounded=0;" parent="WIyWlLk6GJQsqaUBKTNV-1" vertex="1">
          <mxGeometry x="-3549" y="2070" width="40" height="20" as="geometry" />
        </mxCell>
        <mxCell id="Ut67D4-_fYfOlmeCOS3n-257" value="&lt;span style=&quot;font-size: 20px&quot;&gt;&lt;i&gt;trainTestSplit&lt;/i&gt;&lt;/span&gt;" style="text;html=1;strokeColor=none;fillColor=none;align=center;verticalAlign=middle;whiteSpace=wrap;rounded=0;" parent="WIyWlLk6GJQsqaUBKTNV-1" vertex="1">
          <mxGeometry x="-3160" y="2187.75" width="40" height="20" as="geometry" />
        </mxCell>
        <mxCell id="Ut67D4-_fYfOlmeCOS3n-258" value="&lt;span style=&quot;font-size: 20px&quot;&gt;target&lt;br&gt;(SIJF)&lt;br&gt;&lt;/span&gt;" style="text;html=1;strokeColor=none;fillColor=none;align=center;verticalAlign=middle;whiteSpace=wrap;rounded=0;" parent="WIyWlLk6GJQsqaUBKTNV-1" vertex="1">
          <mxGeometry x="-2950" y="2072.5" width="40" height="20" as="geometry" />
        </mxCell>
        <mxCell id="Ut67D4-_fYfOlmeCOS3n-259" value="" style="endArrow=classic;html=1;entryX=0.75;entryY=0;entryDx=0;entryDy=0;exitX=0.5;exitY=1;exitDx=0;exitDy=0;" parent="WIyWlLk6GJQsqaUBKTNV-1" source="Ut67D4-_fYfOlmeCOS3n-262" target="Ut67D4-_fYfOlmeCOS3n-251" edge="1">
          <mxGeometry width="50" height="50" relative="1" as="geometry">
            <mxPoint x="-3160" y="2040" as="sourcePoint" />
            <mxPoint x="-3210" y="2187.75" as="targetPoint" />
          </mxGeometry>
        </mxCell>
        <mxCell id="Ut67D4-_fYfOlmeCOS3n-260" value="" style="endArrow=classic;html=1;entryX=0.25;entryY=0;entryDx=0;entryDy=0;exitX=0.5;exitY=1;exitDx=0;exitDy=0;" parent="WIyWlLk6GJQsqaUBKTNV-1" source="Ut67D4-_fYfOlmeCOS3n-261" target="Ut67D4-_fYfOlmeCOS3n-251" edge="1">
          <mxGeometry width="50" height="50" relative="1" as="geometry">
            <mxPoint x="-3320" y="2040" as="sourcePoint" />
            <mxPoint x="-3220" y="2187.75" as="targetPoint" />
          </mxGeometry>
        </mxCell>
        <mxCell id="Ut67D4-_fYfOlmeCOS3n-261" value="" style="ellipse;whiteSpace=wrap;html=1;aspect=fixed;fillColor=#f5f5f5;strokeColor=#666666;fontColor=#333333;" parent="WIyWlLk6GJQsqaUBKTNV-1" vertex="1">
          <mxGeometry x="-3370" y="2030" width="20" height="20" as="geometry" />
        </mxCell>
        <mxCell id="Ut67D4-_fYfOlmeCOS3n-262" value="" style="ellipse;whiteSpace=wrap;html=1;aspect=fixed;fillColor=#f5f5f5;strokeColor=#666666;fontColor=#333333;" parent="WIyWlLk6GJQsqaUBKTNV-1" vertex="1">
          <mxGeometry x="-3130" y="2030" width="20" height="20" as="geometry" />
        </mxCell>
        <mxCell id="Ut67D4-_fYfOlmeCOS3n-263" value="&lt;span style=&quot;font-size: 20px&quot;&gt;features&lt;br&gt;(+)&lt;br&gt;&lt;/span&gt;" style="text;html=1;strokeColor=none;fillColor=none;align=center;verticalAlign=middle;whiteSpace=wrap;rounded=0;" parent="WIyWlLk6GJQsqaUBKTNV-1" vertex="1">
          <mxGeometry x="-3200" y="2030" width="40" height="20" as="geometry" />
        </mxCell>
        <mxCell id="Ut67D4-_fYfOlmeCOS3n-264" value="&lt;span style=&quot;font-size: 20px&quot;&gt;sigFeats&lt;br&gt;(S)&lt;br&gt;&lt;/span&gt;" style="text;html=1;strokeColor=none;fillColor=none;align=center;verticalAlign=middle;whiteSpace=wrap;rounded=0;" parent="WIyWlLk6GJQsqaUBKTNV-1" vertex="1">
          <mxGeometry x="-3315" y="2030" width="40" height="20" as="geometry" />
        </mxCell>
        <mxCell id="Ut67D4-_fYfOlmeCOS3n-267" value="" style="endArrow=classic;html=1;dashed=1;exitX=0.5;exitY=1;exitDx=0;exitDy=0;entryX=0.5;entryY=0;entryDx=0;entryDy=0;" parent="WIyWlLk6GJQsqaUBKTNV-1" source="Ut67D4-_fYfOlmeCOS3n-188" target="Ut67D4-_fYfOlmeCOS3n-262" edge="1">
          <mxGeometry width="50" height="50" relative="1" as="geometry">
            <mxPoint x="-3750" y="1760" as="sourcePoint" />
            <mxPoint x="-3700" y="1710" as="targetPoint" />
          </mxGeometry>
        </mxCell>
        <mxCell id="Ut67D4-_fYfOlmeCOS3n-268" value="" style="endArrow=classic;html=1;dashed=1;exitX=0.5;exitY=1;exitDx=0;exitDy=0;entryX=0.5;entryY=0;entryDx=0;entryDy=0;" parent="WIyWlLk6GJQsqaUBKTNV-1" source="Ut67D4-_fYfOlmeCOS3n-193" target="Ut67D4-_fYfOlmeCOS3n-261" edge="1">
          <mxGeometry width="50" height="50" relative="1" as="geometry">
            <mxPoint x="-3070" y="1774.37" as="sourcePoint" />
            <mxPoint x="-3110" y="2040" as="targetPoint" />
          </mxGeometry>
        </mxCell>
        <mxCell id="Ut67D4-_fYfOlmeCOS3n-269" value="" style="curved=1;endArrow=classic;html=1;dashed=1;entryX=0;entryY=0;entryDx=0;entryDy=0;exitX=0;exitY=0.5;exitDx=0;exitDy=0;" parent="WIyWlLk6GJQsqaUBKTNV-1" source="Ut67D4-_fYfOlmeCOS3n-69" target="Ut67D4-_fYfOlmeCOS3n-255" edge="1">
          <mxGeometry width="50" height="50" relative="1" as="geometry">
            <mxPoint x="-3410" y="-320" as="sourcePoint" />
            <mxPoint x="-4508" y="2040" as="targetPoint" />
            <Array as="points">
              <mxPoint x="-4270" y="-300" />
              <mxPoint x="-4390" y="210" />
              <mxPoint x="-4100" y="780" />
            </Array>
          </mxGeometry>
        </mxCell>
        <mxCell id="Ut67D4-_fYfOlmeCOS3n-270" value="" style="curved=1;endArrow=classic;html=1;dashed=1;exitX=0.5;exitY=1;exitDx=0;exitDy=0;entryX=1;entryY=0.5;entryDx=0;entryDy=0;" parent="WIyWlLk6GJQsqaUBKTNV-1" source="Ut67D4-_fYfOlmeCOS3n-81" target="Ut67D4-_fYfOlmeCOS3n-254" edge="1">
          <mxGeometry width="50" height="50" relative="1" as="geometry">
            <mxPoint x="-3700" y="1000" as="sourcePoint" />
            <mxPoint x="-3750" y="1050" as="targetPoint" />
            <Array as="points">
              <mxPoint x="-2640" y="1080" />
              <mxPoint x="-2710" y="1930" />
            </Array>
          </mxGeometry>
        </mxCell>
        <mxCell id="Ut67D4-_fYfOlmeCOS3n-271" value="" style="endArrow=classic;html=1;exitX=0.5;exitY=1;exitDx=0;exitDy=0;rounded=1;entryX=0.5;entryY=0;entryDx=0;entryDy=0;" parent="WIyWlLk6GJQsqaUBKTNV-1" source="Ut67D4-_fYfOlmeCOS3n-251" target="Ut67D4-_fYfOlmeCOS3n-272" edge="1">
          <mxGeometry width="50" height="50" relative="1" as="geometry">
            <mxPoint x="-3040" y="2320" as="sourcePoint" />
            <mxPoint x="-3240" y="2320" as="targetPoint" />
          </mxGeometry>
        </mxCell>
        <mxCell id="3i1GLZzZhCti5nv_dwvX-40" value="" style="edgeStyle=none;orthogonalLoop=1;jettySize=auto;html=1;dashed=1;curved=1;" parent="WIyWlLk6GJQsqaUBKTNV-1" source="Ut67D4-_fYfOlmeCOS3n-272" target="3i1GLZzZhCti5nv_dwvX-39" edge="1">
          <mxGeometry relative="1" as="geometry">
            <Array as="points">
              <mxPoint x="-2640" y="2850" />
            </Array>
          </mxGeometry>
        </mxCell>
        <mxCell id="3i1GLZzZhCti5nv_dwvX-42" value="" style="edgeStyle=none;curved=1;orthogonalLoop=1;jettySize=auto;html=1;dashed=1;" parent="WIyWlLk6GJQsqaUBKTNV-1" source="Ut67D4-_fYfOlmeCOS3n-272" target="3i1GLZzZhCti5nv_dwvX-41" edge="1">
          <mxGeometry relative="1" as="geometry">
            <Array as="points">
              <mxPoint x="-2590" y="2800" />
            </Array>
          </mxGeometry>
        </mxCell>
        <mxCell id="Ut67D4-_fYfOlmeCOS3n-272" value="" style="ellipse;whiteSpace=wrap;html=1;aspect=fixed;fillColor=#ffe6cc;strokeColor=#d79b00;" parent="WIyWlLk6GJQsqaUBKTNV-1" vertex="1">
          <mxGeometry x="-3250" y="2350" width="20" height="20" as="geometry" />
        </mxCell>
        <mxCell id="Ut67D4-_fYfOlmeCOS3n-273" value="&lt;span style=&quot;font-size: 20px&quot;&gt;outputs&lt;br&gt;(!)&lt;br&gt;&lt;/span&gt;" style="text;html=1;strokeColor=none;fillColor=none;align=center;verticalAlign=middle;whiteSpace=wrap;rounded=0;" parent="WIyWlLk6GJQsqaUBKTNV-1" vertex="1">
          <mxGeometry x="-3320" y="2350" width="40" height="20" as="geometry" />
        </mxCell>
        <mxCell id="3i1GLZzZhCti5nv_dwvX-38" style="edgeStyle=none;orthogonalLoop=1;jettySize=auto;html=1;entryX=0.5;entryY=0;entryDx=0;entryDy=0;dashed=1;" parent="WIyWlLk6GJQsqaUBKTNV-1" source="Ut67D4-_fYfOlmeCOS3n-274" target="Ut67D4-_fYfOlmeCOS3n-290" edge="1">
          <mxGeometry relative="1" as="geometry" />
        </mxCell>
        <mxCell id="Ut67D4-_fYfOlmeCOS3n-274" value="" style="whiteSpace=wrap;html=1;aspect=fixed;fillColor=#f8cecc;strokeColor=#b85450;" parent="WIyWlLk6GJQsqaUBKTNV-1" vertex="1">
          <mxGeometry x="-3260" y="2760" width="40" height="40" as="geometry" />
        </mxCell>
        <mxCell id="Ut67D4-_fYfOlmeCOS3n-275" value="&lt;font style=&quot;font-size: 20px&quot;&gt;&lt;i&gt;selectModels&lt;/i&gt;&lt;/font&gt;" style="text;html=1;strokeColor=none;fillColor=none;align=center;verticalAlign=middle;whiteSpace=wrap;rounded=0;" parent="WIyWlLk6GJQsqaUBKTNV-1" vertex="1">
          <mxGeometry x="-3380" y="2770" width="40" height="20" as="geometry" />
        </mxCell>
        <mxCell id="Ut67D4-_fYfOlmeCOS3n-276" value="" style="endArrow=classic;html=1;exitX=1;exitY=0.5;exitDx=0;exitDy=0;entryX=0;entryY=0;entryDx=0;entryDy=0;" parent="WIyWlLk6GJQsqaUBKTNV-1" source="Ut67D4-_fYfOlmeCOS3n-281" target="Ut67D4-_fYfOlmeCOS3n-274" edge="1">
          <mxGeometry width="50" height="50" relative="1" as="geometry">
            <mxPoint x="-3400" y="2640" as="sourcePoint" />
            <mxPoint x="-3750" y="2330" as="targetPoint" />
          </mxGeometry>
        </mxCell>
        <mxCell id="Ut67D4-_fYfOlmeCOS3n-277" value="" style="endArrow=classic;html=1;exitX=0;exitY=0.5;exitDx=0;exitDy=0;entryX=1;entryY=0;entryDx=0;entryDy=0;" parent="WIyWlLk6GJQsqaUBKTNV-1" source="Ut67D4-_fYfOlmeCOS3n-280" target="Ut67D4-_fYfOlmeCOS3n-274" edge="1">
          <mxGeometry width="50" height="50" relative="1" as="geometry">
            <mxPoint x="-3090" y="2640" as="sourcePoint" />
            <mxPoint x="-3250" y="2691.25" as="targetPoint" />
          </mxGeometry>
        </mxCell>
        <mxCell id="Ut67D4-_fYfOlmeCOS3n-278" value="" style="endArrow=classic;html=1;exitX=0.5;exitY=1;exitDx=0;exitDy=0;entryX=0.5;entryY=0;entryDx=0;entryDy=0;" parent="WIyWlLk6GJQsqaUBKTNV-1" source="Ut67D4-_fYfOlmeCOS3n-279" target="Ut67D4-_fYfOlmeCOS3n-274" edge="1">
          <mxGeometry width="50" height="50" relative="1" as="geometry">
            <mxPoint x="-3240" y="2610" as="sourcePoint" />
            <mxPoint x="-3229.9999999999995" y="2330" as="targetPoint" />
          </mxGeometry>
        </mxCell>
        <mxCell id="Ut67D4-_fYfOlmeCOS3n-279" value="" style="ellipse;whiteSpace=wrap;html=1;aspect=fixed;fillColor=#f5f5f5;strokeColor=#666666;fontColor=#333333;" parent="WIyWlLk6GJQsqaUBKTNV-1" vertex="1">
          <mxGeometry x="-3250" y="2590" width="20" height="20" as="geometry" />
        </mxCell>
        <mxCell id="Ut67D4-_fYfOlmeCOS3n-280" value="" style="ellipse;whiteSpace=wrap;html=1;aspect=fixed;fillColor=#f5f5f5;strokeColor=#666666;fontColor=#333333;" parent="WIyWlLk6GJQsqaUBKTNV-1" vertex="1">
          <mxGeometry x="-3090" y="2630" width="20" height="20" as="geometry" />
        </mxCell>
        <mxCell id="Ut67D4-_fYfOlmeCOS3n-281" value="" style="ellipse;whiteSpace=wrap;html=1;aspect=fixed;fillColor=#f5f5f5;strokeColor=#666666;fontColor=#333333;" parent="WIyWlLk6GJQsqaUBKTNV-1" vertex="1">
          <mxGeometry x="-3410" y="2630" width="20" height="20" as="geometry" />
        </mxCell>
        <mxCell id="Ut67D4-_fYfOlmeCOS3n-282" value="&lt;span style=&quot;font-size: 20px&quot;&gt;models&lt;br&gt;(!)&lt;br&gt;&lt;/span&gt;" style="text;html=1;strokeColor=none;fillColor=none;align=center;verticalAlign=middle;whiteSpace=wrap;rounded=0;" parent="WIyWlLk6GJQsqaUBKTNV-1" vertex="1">
          <mxGeometry x="-3060" y="2675" width="40" height="20" as="geometry" />
        </mxCell>
        <mxCell id="Ut67D4-_fYfOlmeCOS3n-283" value="&lt;span style=&quot;font-size: 20px&quot;&gt;ttsObject&lt;br&gt;(!)&lt;br&gt;&lt;/span&gt;" style="text;html=1;strokeColor=none;fillColor=none;align=center;verticalAlign=middle;whiteSpace=wrap;rounded=0;" parent="WIyWlLk6GJQsqaUBKTNV-1" vertex="1">
          <mxGeometry x="-3190" y="2590" width="40" height="20" as="geometry" />
        </mxCell>
        <mxCell id="Ut67D4-_fYfOlmeCOS3n-284" value="&lt;span style=&quot;font-size: 20px&quot;&gt;config&lt;br&gt;(!)&lt;br&gt;&lt;/span&gt;" style="text;html=1;strokeColor=none;fillColor=none;align=center;verticalAlign=middle;whiteSpace=wrap;rounded=0;" parent="WIyWlLk6GJQsqaUBKTNV-1" vertex="1">
          <mxGeometry x="-3470" y="2655" width="40" height="20" as="geometry" />
        </mxCell>
        <mxCell id="Ut67D4-_fYfOlmeCOS3n-285" value="" style="curved=1;endArrow=classic;html=1;dashed=1;exitX=0;exitY=0.5;exitDx=0;exitDy=0;entryX=0;entryY=0;entryDx=0;entryDy=0;" parent="WIyWlLk6GJQsqaUBKTNV-1" source="Ut67D4-_fYfOlmeCOS3n-69" target="Ut67D4-_fYfOlmeCOS3n-281" edge="1">
          <mxGeometry width="50" height="50" relative="1" as="geometry">
            <mxPoint x="-3400" y="-315" as="sourcePoint" />
            <mxPoint x="-3670" y="2140" as="targetPoint" />
            <Array as="points">
              <mxPoint x="-4650" y="-450" />
              <mxPoint x="-4250" y="860" />
            </Array>
          </mxGeometry>
        </mxCell>
        <mxCell id="Ut67D4-_fYfOlmeCOS3n-286" value="" style="endArrow=classic;html=1;exitX=0.5;exitY=1;exitDx=0;exitDy=0;entryX=0.5;entryY=0;entryDx=0;entryDy=0;dashed=1;" parent="WIyWlLk6GJQsqaUBKTNV-1" source="Ut67D4-_fYfOlmeCOS3n-272" target="Ut67D4-_fYfOlmeCOS3n-279" edge="1">
          <mxGeometry width="50" height="50" relative="1" as="geometry">
            <mxPoint x="-4060" y="2400" as="sourcePoint" />
            <mxPoint x="-4010" y="2350" as="targetPoint" />
          </mxGeometry>
        </mxCell>
        <mxCell id="Ut67D4-_fYfOlmeCOS3n-287" value="" style="curved=1;endArrow=classic;html=1;dashed=1;exitX=0.5;exitY=1;exitDx=0;exitDy=0;entryX=1;entryY=0;entryDx=0;entryDy=0;" parent="WIyWlLk6GJQsqaUBKTNV-1" source="Ut67D4-_fYfOlmeCOS3n-94" target="Ut67D4-_fYfOlmeCOS3n-280" edge="1">
          <mxGeometry width="50" height="50" relative="1" as="geometry">
            <mxPoint x="-4020" y="750" as="sourcePoint" />
            <mxPoint x="-2570" y="1850" as="targetPoint" />
            <Array as="points">
              <mxPoint x="-2300" y="820" />
              <mxPoint x="-2620" y="1880" />
            </Array>
          </mxGeometry>
        </mxCell>
        <mxCell id="Ut67D4-_fYfOlmeCOS3n-290" value="" style="ellipse;whiteSpace=wrap;html=1;aspect=fixed;fillColor=#ffe6cc;strokeColor=#d79b00;" parent="WIyWlLk6GJQsqaUBKTNV-1" vertex="1">
          <mxGeometry x="-3250" y="2930" width="20" height="20" as="geometry" />
        </mxCell>
        <mxCell id="Ut67D4-_fYfOlmeCOS3n-293" value="&lt;span style=&quot;font-size: 20px&quot;&gt;output&lt;br&gt;(!)&lt;br&gt;&lt;/span&gt;" style="text;html=1;strokeColor=none;fillColor=none;align=center;verticalAlign=middle;whiteSpace=wrap;rounded=0;" parent="WIyWlLk6GJQsqaUBKTNV-1" vertex="1">
          <mxGeometry x="-3320" y="2930" width="40" height="20" as="geometry" />
        </mxCell>
        <mxCell id="3i1GLZzZhCti5nv_dwvX-44" value="" style="edgeStyle=none;curved=1;orthogonalLoop=1;jettySize=auto;html=1;entryX=0.5;entryY=0;entryDx=0;entryDy=0;" parent="WIyWlLk6GJQsqaUBKTNV-1" edge="1">
          <mxGeometry relative="1" as="geometry">
            <mxPoint x="-3240" y="3479" as="sourcePoint" />
            <mxPoint x="-3240" y="3589" as="targetPoint" />
          </mxGeometry>
        </mxCell>
        <mxCell id="Ut67D4-_fYfOlmeCOS3n-294" value="" style="whiteSpace=wrap;html=1;aspect=fixed;fillColor=#f8cecc;strokeColor=#b85450;" parent="WIyWlLk6GJQsqaUBKTNV-1" vertex="1">
          <mxGeometry x="-3260" y="3440" width="40" height="40" as="geometry" />
        </mxCell>
        <mxCell id="Ut67D4-_fYfOlmeCOS3n-295" value="&lt;font style=&quot;font-size: 20px&quot;&gt;&lt;i&gt;runModels&lt;/i&gt;&lt;/font&gt;" style="text;html=1;strokeColor=none;fillColor=none;align=center;verticalAlign=middle;whiteSpace=wrap;rounded=0;" parent="WIyWlLk6GJQsqaUBKTNV-1" vertex="1">
          <mxGeometry x="-3380" y="3450" width="40" height="20" as="geometry" />
        </mxCell>
        <mxCell id="Ut67D4-_fYfOlmeCOS3n-296" value="" style="endArrow=classic;html=1;exitX=1;exitY=0.5;exitDx=0;exitDy=0;entryX=0;entryY=0;entryDx=0;entryDy=0;" parent="WIyWlLk6GJQsqaUBKTNV-1" source="Ut67D4-_fYfOlmeCOS3n-301" target="Ut67D4-_fYfOlmeCOS3n-294" edge="1">
          <mxGeometry width="50" height="50" relative="1" as="geometry">
            <mxPoint x="-3400" y="3320" as="sourcePoint" />
            <mxPoint x="-3750" y="3010" as="targetPoint" />
          </mxGeometry>
        </mxCell>
        <mxCell id="Ut67D4-_fYfOlmeCOS3n-297" value="" style="endArrow=classic;html=1;exitX=0;exitY=0.5;exitDx=0;exitDy=0;entryX=1;entryY=0;entryDx=0;entryDy=0;" parent="WIyWlLk6GJQsqaUBKTNV-1" source="Ut67D4-_fYfOlmeCOS3n-300" target="Ut67D4-_fYfOlmeCOS3n-294" edge="1">
          <mxGeometry width="50" height="50" relative="1" as="geometry">
            <mxPoint x="-3090" y="3320" as="sourcePoint" />
            <mxPoint x="-3250" y="3371.25" as="targetPoint" />
          </mxGeometry>
        </mxCell>
        <mxCell id="Ut67D4-_fYfOlmeCOS3n-298" value="" style="endArrow=classic;html=1;exitX=0.5;exitY=1;exitDx=0;exitDy=0;entryX=0.5;entryY=0;entryDx=0;entryDy=0;" parent="WIyWlLk6GJQsqaUBKTNV-1" source="Ut67D4-_fYfOlmeCOS3n-299" target="Ut67D4-_fYfOlmeCOS3n-294" edge="1">
          <mxGeometry width="50" height="50" relative="1" as="geometry">
            <mxPoint x="-3240" y="3290" as="sourcePoint" />
            <mxPoint x="-3229.9999999999995" y="3010" as="targetPoint" />
          </mxGeometry>
        </mxCell>
        <mxCell id="Ut67D4-_fYfOlmeCOS3n-299" value="" style="ellipse;whiteSpace=wrap;html=1;aspect=fixed;fillColor=#f5f5f5;strokeColor=#666666;fontColor=#333333;" parent="WIyWlLk6GJQsqaUBKTNV-1" vertex="1">
          <mxGeometry x="-3250" y="3270" width="20" height="20" as="geometry" />
        </mxCell>
        <mxCell id="Ut67D4-_fYfOlmeCOS3n-300" value="" style="ellipse;whiteSpace=wrap;html=1;aspect=fixed;fillColor=#f5f5f5;strokeColor=#666666;fontColor=#333333;" parent="WIyWlLk6GJQsqaUBKTNV-1" vertex="1">
          <mxGeometry x="-3090" y="3310" width="20" height="20" as="geometry" />
        </mxCell>
        <mxCell id="Ut67D4-_fYfOlmeCOS3n-301" value="" style="ellipse;whiteSpace=wrap;html=1;aspect=fixed;fillColor=#f5f5f5;strokeColor=#666666;fontColor=#333333;" parent="WIyWlLk6GJQsqaUBKTNV-1" vertex="1">
          <mxGeometry x="-3410" y="3310" width="20" height="20" as="geometry" />
        </mxCell>
        <mxCell id="Ut67D4-_fYfOlmeCOS3n-302" value="&lt;span style=&quot;font-size: 20px&quot;&gt;ttsObject&lt;br&gt;(!)&lt;br&gt;&lt;/span&gt;" style="text;html=1;strokeColor=none;fillColor=none;align=center;verticalAlign=middle;whiteSpace=wrap;rounded=0;" parent="WIyWlLk6GJQsqaUBKTNV-1" vertex="1">
          <mxGeometry x="-3060" y="3355" width="40" height="20" as="geometry" />
        </mxCell>
        <mxCell id="Ut67D4-_fYfOlmeCOS3n-303" value="&lt;span style=&quot;font-size: 20px&quot;&gt;models&lt;br&gt;(!)&lt;br&gt;&lt;/span&gt;" style="text;html=1;strokeColor=none;fillColor=none;align=center;verticalAlign=middle;whiteSpace=wrap;rounded=0;" parent="WIyWlLk6GJQsqaUBKTNV-1" vertex="1">
          <mxGeometry x="-3190" y="3270" width="40" height="20" as="geometry" />
        </mxCell>
        <mxCell id="Ut67D4-_fYfOlmeCOS3n-304" value="&lt;span style=&quot;font-size: 20px&quot;&gt;Config&lt;br&gt;(!)&lt;br&gt;&lt;/span&gt;" style="text;html=1;strokeColor=none;fillColor=none;align=center;verticalAlign=middle;whiteSpace=wrap;rounded=0;" parent="WIyWlLk6GJQsqaUBKTNV-1" vertex="1">
          <mxGeometry x="-3470" y="3335" width="40" height="20" as="geometry" />
        </mxCell>
        <mxCell id="Ut67D4-_fYfOlmeCOS3n-305" value="" style="endArrow=classic;html=1;exitX=0.75;exitY=1;exitDx=0;exitDy=0;entryX=0;entryY=0;entryDx=0;entryDy=0;" parent="WIyWlLk6GJQsqaUBKTNV-1" source="Ut67D4-_fYfOlmeCOS3n-294" target="Ut67D4-_fYfOlmeCOS3n-308" edge="1">
          <mxGeometry width="50" height="50" relative="1" as="geometry">
            <mxPoint x="-3230" y="3300" as="sourcePoint" />
            <mxPoint x="-3130" y="3540" as="targetPoint" />
          </mxGeometry>
        </mxCell>
        <mxCell id="Ut67D4-_fYfOlmeCOS3n-306" value="" style="endArrow=classic;html=1;exitX=0.25;exitY=1;exitDx=0;exitDy=0;entryX=1;entryY=0;entryDx=0;entryDy=0;" parent="WIyWlLk6GJQsqaUBKTNV-1" source="Ut67D4-_fYfOlmeCOS3n-294" target="Ut67D4-_fYfOlmeCOS3n-307" edge="1">
          <mxGeometry width="50" height="50" relative="1" as="geometry">
            <mxPoint x="-3220" y="3490" as="sourcePoint" />
            <mxPoint x="-3340" y="3580" as="targetPoint" />
          </mxGeometry>
        </mxCell>
        <mxCell id="Ut67D4-_fYfOlmeCOS3n-307" value="" style="ellipse;whiteSpace=wrap;html=1;aspect=fixed;fillColor=#ffe6cc;strokeColor=#d79b00;" parent="WIyWlLk6GJQsqaUBKTNV-1" vertex="1">
          <mxGeometry x="-3370" y="3590" width="20" height="20" as="geometry" />
        </mxCell>
        <mxCell id="Ut67D4-_fYfOlmeCOS3n-308" value="" style="ellipse;whiteSpace=wrap;html=1;aspect=fixed;fillColor=#ffe6cc;strokeColor=#d79b00;" parent="WIyWlLk6GJQsqaUBKTNV-1" vertex="1">
          <mxGeometry x="-3130" y="3590" width="20" height="20" as="geometry" />
        </mxCell>
        <mxCell id="Ut67D4-_fYfOlmeCOS3n-309" value="&lt;span style=&quot;font-size: 20px&quot;&gt;bestScoringName&lt;br&gt;(s)&lt;br&gt;&lt;/span&gt;" style="text;html=1;strokeColor=none;fillColor=none;align=center;verticalAlign=middle;whiteSpace=wrap;rounded=0;" parent="WIyWlLk6GJQsqaUBKTNV-1" vertex="1">
          <mxGeometry x="-3070" y="3563" width="40" height="20" as="geometry" />
        </mxCell>
        <mxCell id="Ut67D4-_fYfOlmeCOS3n-310" value="&lt;span style=&quot;font-size: 20px&quot;&gt;bestModel&lt;br&gt;(&amp;lt;)&lt;br&gt;&lt;/span&gt;" style="text;html=1;strokeColor=none;fillColor=none;align=center;verticalAlign=middle;whiteSpace=wrap;rounded=0;" parent="WIyWlLk6GJQsqaUBKTNV-1" vertex="1">
          <mxGeometry x="-3428" y="3563" width="40" height="20" as="geometry" />
        </mxCell>
        <mxCell id="Ut67D4-_fYfOlmeCOS3n-312" value="" style="endArrow=classic;html=1;dashed=1;exitX=0.5;exitY=1;exitDx=0;exitDy=0;entryX=0.5;entryY=0;entryDx=0;entryDy=0;" parent="WIyWlLk6GJQsqaUBKTNV-1" source="Ut67D4-_fYfOlmeCOS3n-290" target="Ut67D4-_fYfOlmeCOS3n-299" edge="1">
          <mxGeometry width="50" height="50" relative="1" as="geometry">
            <mxPoint x="-3110" y="2940" as="sourcePoint" />
            <mxPoint x="-3065" y="3320" as="targetPoint" />
          </mxGeometry>
        </mxCell>
        <mxCell id="Ut67D4-_fYfOlmeCOS3n-313" value="" style="curved=1;endArrow=classic;html=1;dashed=1;exitX=0;exitY=0.5;exitDx=0;exitDy=0;entryX=0;entryY=0;entryDx=0;entryDy=0;" parent="WIyWlLk6GJQsqaUBKTNV-1" source="Ut67D4-_fYfOlmeCOS3n-69" target="Ut67D4-_fYfOlmeCOS3n-301" edge="1">
          <mxGeometry width="50" height="50" relative="1" as="geometry">
            <mxPoint x="-3399.9999999990705" y="-315" as="sourcePoint" />
            <mxPoint x="-3470" y="3220" as="targetPoint" />
            <Array as="points">
              <mxPoint x="-4050" y="-390" />
              <mxPoint x="-4310" y="-330" />
              <mxPoint x="-4420" y="-270" />
              <mxPoint x="-4510" y="-170" />
              <mxPoint x="-4580" y="10" />
              <mxPoint x="-4320" y="890" />
            </Array>
          </mxGeometry>
        </mxCell>
        <mxCell id="Ut67D4-_fYfOlmeCOS3n-314" value="" style="whiteSpace=wrap;html=1;aspect=fixed;fillColor=#f8cecc;strokeColor=#b85450;" parent="WIyWlLk6GJQsqaUBKTNV-1" vertex="1">
          <mxGeometry x="-3260" y="4140" width="40" height="40" as="geometry" />
        </mxCell>
        <mxCell id="Ut67D4-_fYfOlmeCOS3n-315" value="" style="endArrow=classic;html=1;entryX=1;entryY=0;entryDx=0;entryDy=0;exitX=0;exitY=0.5;exitDx=0;exitDy=0;" parent="WIyWlLk6GJQsqaUBKTNV-1" target="Ut67D4-_fYfOlmeCOS3n-314" edge="1">
          <mxGeometry width="50" height="50" relative="1" as="geometry">
            <mxPoint x="-2894" y="4010" as="sourcePoint" />
            <mxPoint x="-2710" y="4307.75" as="targetPoint" />
          </mxGeometry>
        </mxCell>
        <mxCell id="Ut67D4-_fYfOlmeCOS3n-316" value="" style="endArrow=classic;html=1;entryX=0;entryY=0;entryDx=0;entryDy=0;exitX=1;exitY=0.5;exitDx=0;exitDy=0;" parent="WIyWlLk6GJQsqaUBKTNV-1" source="Ut67D4-_fYfOlmeCOS3n-318" target="Ut67D4-_fYfOlmeCOS3n-314" edge="1">
          <mxGeometry width="50" height="50" relative="1" as="geometry">
            <mxPoint x="-3320" y="4148" as="sourcePoint" />
            <mxPoint x="-3220" y="4157.75" as="targetPoint" />
          </mxGeometry>
        </mxCell>
        <mxCell id="Ut67D4-_fYfOlmeCOS3n-318" value="" style="ellipse;whiteSpace=wrap;html=1;aspect=fixed;fillColor=#f5f5f5;strokeColor=#666666;fontColor=#333333;" parent="WIyWlLk6GJQsqaUBKTNV-1" vertex="1">
          <mxGeometry x="-3610" y="4000" width="20" height="20" as="geometry" />
        </mxCell>
        <mxCell id="Ut67D4-_fYfOlmeCOS3n-319" value="" style="endArrow=classic;html=1;exitX=0.5;exitY=1;exitDx=0;exitDy=0;entryX=0.5;entryY=0;entryDx=0;entryDy=0;" parent="WIyWlLk6GJQsqaUBKTNV-1" source="Ut67D4-_fYfOlmeCOS3n-314" target="Ut67D4-_fYfOlmeCOS3n-320" edge="1">
          <mxGeometry width="50" height="50" relative="1" as="geometry">
            <mxPoint x="-3240.5" y="4198.75" as="sourcePoint" />
            <mxPoint x="-3240" y="4322.25" as="targetPoint" />
          </mxGeometry>
        </mxCell>
        <mxCell id="Ut67D4-_fYfOlmeCOS3n-320" value="" style="ellipse;whiteSpace=wrap;html=1;aspect=fixed;fillColor=#ffe6cc;strokeColor=#d79b00;" parent="WIyWlLk6GJQsqaUBKTNV-1" vertex="1">
          <mxGeometry x="-3220" y="4312.25" width="20" height="20" as="geometry" />
        </mxCell>
        <mxCell id="Ut67D4-_fYfOlmeCOS3n-321" value="&lt;span style=&quot;font-size: 20px&quot;&gt;config&lt;br&gt;(!)&lt;br&gt;&lt;/span&gt;" style="text;html=1;strokeColor=none;fillColor=none;align=center;verticalAlign=middle;whiteSpace=wrap;rounded=0;" parent="WIyWlLk6GJQsqaUBKTNV-1" vertex="1">
          <mxGeometry x="-3630" y="4040" width="40" height="20" as="geometry" />
        </mxCell>
        <mxCell id="Ut67D4-_fYfOlmeCOS3n-322" value="&lt;span style=&quot;font-size: 20px&quot;&gt;&lt;i&gt;optimizeModels&lt;/i&gt;&lt;/span&gt;" style="text;html=1;strokeColor=none;fillColor=none;align=center;verticalAlign=middle;whiteSpace=wrap;rounded=0;" parent="WIyWlLk6GJQsqaUBKTNV-1" vertex="1">
          <mxGeometry x="-3130" y="4148.75" width="40" height="20" as="geometry" />
        </mxCell>
        <mxCell id="Ut67D4-_fYfOlmeCOS3n-323" value="&lt;span style=&quot;font-size: 20px&quot;&gt;ttsObject&lt;br&gt;(!)&lt;br&gt;&lt;/span&gt;" style="text;html=1;strokeColor=none;fillColor=none;align=center;verticalAlign=middle;whiteSpace=wrap;rounded=0;" parent="WIyWlLk6GJQsqaUBKTNV-1" vertex="1">
          <mxGeometry x="-2874" y="4042.5" width="40" height="20" as="geometry" />
        </mxCell>
        <mxCell id="Ut67D4-_fYfOlmeCOS3n-324" value="&lt;span style=&quot;font-size: 20px&quot;&gt;testScore&lt;br&gt;(F)&lt;br&gt;&lt;/span&gt;" style="text;html=1;strokeColor=none;fillColor=none;align=center;verticalAlign=middle;whiteSpace=wrap;rounded=0;" parent="WIyWlLk6GJQsqaUBKTNV-1" vertex="1">
          <mxGeometry x="-3170" y="4292.25" width="40" height="20" as="geometry" />
        </mxCell>
        <mxCell id="Ut67D4-_fYfOlmeCOS3n-325" value="" style="endArrow=classic;html=1;entryX=0.75;entryY=0;entryDx=0;entryDy=0;exitX=0.5;exitY=1;exitDx=0;exitDy=0;" parent="WIyWlLk6GJQsqaUBKTNV-1" source="Ut67D4-_fYfOlmeCOS3n-328" target="Ut67D4-_fYfOlmeCOS3n-314" edge="1">
          <mxGeometry width="50" height="50" relative="1" as="geometry">
            <mxPoint x="-3160" y="4010" as="sourcePoint" />
            <mxPoint x="-3210" y="4157.75" as="targetPoint" />
          </mxGeometry>
        </mxCell>
        <mxCell id="Ut67D4-_fYfOlmeCOS3n-326" value="" style="endArrow=classic;html=1;entryX=0.25;entryY=0;entryDx=0;entryDy=0;exitX=0.5;exitY=1;exitDx=0;exitDy=0;" parent="WIyWlLk6GJQsqaUBKTNV-1" source="Ut67D4-_fYfOlmeCOS3n-327" target="Ut67D4-_fYfOlmeCOS3n-314" edge="1">
          <mxGeometry width="50" height="50" relative="1" as="geometry">
            <mxPoint x="-3320" y="4010" as="sourcePoint" />
            <mxPoint x="-3220" y="4157.75" as="targetPoint" />
          </mxGeometry>
        </mxCell>
        <mxCell id="Ut67D4-_fYfOlmeCOS3n-327" value="" style="ellipse;whiteSpace=wrap;html=1;aspect=fixed;fillColor=#f5f5f5;strokeColor=#666666;fontColor=#333333;" parent="WIyWlLk6GJQsqaUBKTNV-1" vertex="1">
          <mxGeometry x="-3448" y="4000" width="20" height="20" as="geometry" />
        </mxCell>
        <mxCell id="Ut67D4-_fYfOlmeCOS3n-328" value="" style="ellipse;whiteSpace=wrap;html=1;aspect=fixed;fillColor=#f5f5f5;strokeColor=#666666;fontColor=#333333;" parent="WIyWlLk6GJQsqaUBKTNV-1" vertex="1">
          <mxGeometry x="-3050" y="4000" width="20" height="20" as="geometry" />
        </mxCell>
        <mxCell id="Ut67D4-_fYfOlmeCOS3n-329" value="&lt;span style=&quot;font-size: 20px&quot;&gt;bestScoringName&lt;br&gt;(s)&lt;br&gt;&lt;/span&gt;" style="text;html=1;strokeColor=none;fillColor=none;align=center;verticalAlign=middle;whiteSpace=wrap;rounded=0;" parent="WIyWlLk6GJQsqaUBKTNV-1" vertex="1">
          <mxGeometry x="-3150" y="3990" width="40" height="20" as="geometry" />
        </mxCell>
        <mxCell id="Ut67D4-_fYfOlmeCOS3n-330" value="&lt;span style=&quot;font-size: 20px&quot;&gt;bestModel&lt;br&gt;(&amp;lt;)&lt;br&gt;&lt;/span&gt;" style="text;html=1;strokeColor=none;fillColor=none;align=center;verticalAlign=middle;whiteSpace=wrap;rounded=0;" parent="WIyWlLk6GJQsqaUBKTNV-1" vertex="1">
          <mxGeometry x="-3320" y="4030" width="40" height="20" as="geometry" />
        </mxCell>
        <mxCell id="Ut67D4-_fYfOlmeCOS3n-331" value="" style="endArrow=classic;html=1;entryX=0.5;entryY=0;entryDx=0;entryDy=0;" parent="WIyWlLk6GJQsqaUBKTNV-1" target="Ut67D4-_fYfOlmeCOS3n-314" edge="1">
          <mxGeometry width="50" height="50" relative="1" as="geometry">
            <mxPoint x="-3240" y="4020" as="sourcePoint" />
            <mxPoint x="-3140" y="4130" as="targetPoint" />
          </mxGeometry>
        </mxCell>
        <mxCell id="Ut67D4-_fYfOlmeCOS3n-332" value="" style="ellipse;whiteSpace=wrap;html=1;aspect=fixed;fillColor=#f5f5f5;strokeColor=#666666;fontColor=#333333;" parent="WIyWlLk6GJQsqaUBKTNV-1" vertex="1">
          <mxGeometry x="-3250" y="4000" width="20" height="20" as="geometry" />
        </mxCell>
        <mxCell id="Ut67D4-_fYfOlmeCOS3n-333" value="&lt;span style=&quot;font-size: 20px&quot;&gt;models&lt;br&gt;(!)&lt;br&gt;&lt;/span&gt;" style="text;html=1;strokeColor=none;fillColor=none;align=center;verticalAlign=middle;whiteSpace=wrap;rounded=0;" parent="WIyWlLk6GJQsqaUBKTNV-1" vertex="1">
          <mxGeometry x="-3509" y="4010" width="40" height="20" as="geometry" />
        </mxCell>
        <mxCell id="Ut67D4-_fYfOlmeCOS3n-334" value="" style="endArrow=classic;html=1;exitX=0.5;exitY=1;exitDx=0;exitDy=0;entryX=0.5;entryY=0;entryDx=0;entryDy=0;dashed=1;" parent="WIyWlLk6GJQsqaUBKTNV-1" source="Ut67D4-_fYfOlmeCOS3n-308" target="Ut67D4-_fYfOlmeCOS3n-328" edge="1">
          <mxGeometry width="50" height="50" relative="1" as="geometry">
            <mxPoint x="-3200" y="4300" as="sourcePoint" />
            <mxPoint x="-3150" y="4250" as="targetPoint" />
          </mxGeometry>
        </mxCell>
        <mxCell id="Ut67D4-_fYfOlmeCOS3n-335" value="" style="endArrow=classic;html=1;dashed=1;exitX=0.5;exitY=1;exitDx=0;exitDy=0;entryX=0.5;entryY=0;entryDx=0;entryDy=0;" parent="WIyWlLk6GJQsqaUBKTNV-1" source="Ut67D4-_fYfOlmeCOS3n-307" target="Ut67D4-_fYfOlmeCOS3n-332" edge="1">
          <mxGeometry width="50" height="50" relative="1" as="geometry">
            <mxPoint x="-3200" y="3800" as="sourcePoint" />
            <mxPoint x="-3150" y="3750" as="targetPoint" />
          </mxGeometry>
        </mxCell>
        <mxCell id="Ut67D4-_fYfOlmeCOS3n-336" value="" style="curved=1;endArrow=classic;html=1;dashed=1;entryX=0.5;entryY=0;entryDx=0;entryDy=0;exitX=0.5;exitY=1;exitDx=0;exitDy=0;" parent="WIyWlLk6GJQsqaUBKTNV-1" source="Ut67D4-_fYfOlmeCOS3n-290" target="Ut67D4-_fYfOlmeCOS3n-327" edge="1">
          <mxGeometry width="50" height="50" relative="1" as="geometry">
            <mxPoint x="-3367" y="2960" as="sourcePoint" />
            <mxPoint x="-3150" y="3740" as="targetPoint" />
            <Array as="points">
              <mxPoint x="-3610" y="3350" />
              <mxPoint x="-3510" y="3920" />
            </Array>
          </mxGeometry>
        </mxCell>
        <mxCell id="Ut67D4-_fYfOlmeCOS3n-337" value="" style="curved=1;endArrow=classic;html=1;dashed=1;exitX=0;exitY=0.5;exitDx=0;exitDy=0;entryX=0.5;entryY=0;entryDx=0;entryDy=0;" parent="WIyWlLk6GJQsqaUBKTNV-1" source="Ut67D4-_fYfOlmeCOS3n-69" target="Ut67D4-_fYfOlmeCOS3n-318" edge="1">
          <mxGeometry width="50" height="50" relative="1" as="geometry">
            <mxPoint x="-3400" y="-315" as="sourcePoint" />
            <mxPoint x="-3397.0710678118658" y="3322.9289321881342" as="targetPoint" />
            <Array as="points">
              <mxPoint x="-4030" y="-400" />
              <mxPoint x="-4340" y="-400" />
              <mxPoint x="-4430" y="-380" />
              <mxPoint x="-4540" y="-325" />
              <mxPoint x="-4620" y="-200" />
              <mxPoint x="-4640" y="-130" />
              <mxPoint x="-4620" y="30" />
              <mxPoint x="-4430" y="910" />
              <mxPoint x="-4080" y="2150" />
            </Array>
          </mxGeometry>
        </mxCell>
        <mxCell id="Ut67D4-_fYfOlmeCOS3n-339" value="" style="endArrow=classic;html=1;exitX=0.25;exitY=1;exitDx=0;exitDy=0;entryX=1;entryY=0;entryDx=0;entryDy=0;" parent="WIyWlLk6GJQsqaUBKTNV-1" source="Ut67D4-_fYfOlmeCOS3n-314" target="Ut67D4-_fYfOlmeCOS3n-340" edge="1">
          <mxGeometry width="50" height="50" relative="1" as="geometry">
            <mxPoint x="-3660" y="4122.25" as="sourcePoint" />
            <mxPoint x="-3390" y="4310" as="targetPoint" />
          </mxGeometry>
        </mxCell>
        <mxCell id="Ut67D4-_fYfOlmeCOS3n-340" value="" style="ellipse;whiteSpace=wrap;html=1;aspect=fixed;fillColor=#ffe6cc;strokeColor=#d79b00;" parent="WIyWlLk6GJQsqaUBKTNV-1" vertex="1">
          <mxGeometry x="-3448" y="4270" width="20" height="20" as="geometry" />
        </mxCell>
        <mxCell id="Ut67D4-_fYfOlmeCOS3n-341" value="" style="ellipse;whiteSpace=wrap;html=1;aspect=fixed;fillColor=#ffe6cc;strokeColor=#d79b00;" parent="WIyWlLk6GJQsqaUBKTNV-1" vertex="1">
          <mxGeometry x="-3090" y="4300" width="20" height="20" as="geometry" />
        </mxCell>
        <mxCell id="Ut67D4-_fYfOlmeCOS3n-342" value="" style="endArrow=classic;html=1;exitX=0.75;exitY=1;exitDx=0;exitDy=0;" parent="WIyWlLk6GJQsqaUBKTNV-1" source="Ut67D4-_fYfOlmeCOS3n-314" edge="1">
          <mxGeometry width="50" height="50" relative="1" as="geometry">
            <mxPoint x="-3240" y="4190" as="sourcePoint" />
            <mxPoint x="-3090" y="4300" as="targetPoint" />
          </mxGeometry>
        </mxCell>
        <mxCell id="Ut67D4-_fYfOlmeCOS3n-343" value="&lt;span style=&quot;font-size: 20px&quot;&gt;predictions&lt;br&gt;(SIJF)&lt;br&gt;&lt;/span&gt;" style="text;html=1;strokeColor=none;fillColor=none;align=center;verticalAlign=middle;whiteSpace=wrap;rounded=0;" parent="WIyWlLk6GJQsqaUBKTNV-1" vertex="1">
          <mxGeometry x="-3040" y="4280" width="40" height="20" as="geometry" />
        </mxCell>
        <mxCell id="Ut67D4-_fYfOlmeCOS3n-344" value="&lt;span style=&quot;font-size: 20px&quot;&gt;bestModel&lt;br&gt;(&amp;lt;)&lt;br&gt;&lt;/span&gt;" style="text;html=1;strokeColor=none;fillColor=none;align=center;verticalAlign=middle;whiteSpace=wrap;rounded=0;" parent="WIyWlLk6GJQsqaUBKTNV-1" vertex="1">
          <mxGeometry x="-3510" y="4230" width="40" height="20" as="geometry" />
        </mxCell>
        <mxCell id="Ut67D4-_fYfOlmeCOS3n-345" value="" style="whiteSpace=wrap;html=1;aspect=fixed;fillColor=#f8cecc;strokeColor=#b85450;" parent="WIyWlLk6GJQsqaUBKTNV-1" vertex="1">
          <mxGeometry x="-3260" y="4650" width="40" height="40" as="geometry" />
        </mxCell>
        <mxCell id="Ut67D4-_fYfOlmeCOS3n-346" value="&lt;span style=&quot;font-size: 20px&quot;&gt;&lt;i&gt;predictParams&lt;/i&gt;&lt;/span&gt;" style="text;html=1;strokeColor=none;fillColor=none;align=center;verticalAlign=middle;whiteSpace=wrap;rounded=0;" parent="WIyWlLk6GJQsqaUBKTNV-1" vertex="1">
          <mxGeometry x="-3150" y="4660" width="40" height="20" as="geometry" />
        </mxCell>
        <mxCell id="Ut67D4-_fYfOlmeCOS3n-347" value="" style="endArrow=classic;html=1;entryX=0.75;entryY=0;entryDx=0;entryDy=0;exitX=0.5;exitY=1;exitDx=0;exitDy=0;" parent="WIyWlLk6GJQsqaUBKTNV-1" source="Ut67D4-_fYfOlmeCOS3n-350" target="Ut67D4-_fYfOlmeCOS3n-345" edge="1">
          <mxGeometry width="50" height="50" relative="1" as="geometry">
            <mxPoint x="-3160" y="4520" as="sourcePoint" />
            <mxPoint x="-3210" y="4667.75" as="targetPoint" />
          </mxGeometry>
        </mxCell>
        <mxCell id="Ut67D4-_fYfOlmeCOS3n-348" value="" style="endArrow=classic;html=1;entryX=0.25;entryY=0;entryDx=0;entryDy=0;exitX=0.5;exitY=1;exitDx=0;exitDy=0;" parent="WIyWlLk6GJQsqaUBKTNV-1" source="Ut67D4-_fYfOlmeCOS3n-349" target="Ut67D4-_fYfOlmeCOS3n-345" edge="1">
          <mxGeometry width="50" height="50" relative="1" as="geometry">
            <mxPoint x="-3320" y="4520" as="sourcePoint" />
            <mxPoint x="-3220" y="4667.75" as="targetPoint" />
          </mxGeometry>
        </mxCell>
        <mxCell id="Ut67D4-_fYfOlmeCOS3n-349" value="" style="ellipse;whiteSpace=wrap;html=1;aspect=fixed;fillColor=#f5f5f5;strokeColor=#666666;fontColor=#333333;" parent="WIyWlLk6GJQsqaUBKTNV-1" vertex="1">
          <mxGeometry x="-3448" y="4510" width="20" height="20" as="geometry" />
        </mxCell>
        <mxCell id="Ut67D4-_fYfOlmeCOS3n-350" value="" style="ellipse;whiteSpace=wrap;html=1;aspect=fixed;fillColor=#f5f5f5;strokeColor=#666666;fontColor=#333333;" parent="WIyWlLk6GJQsqaUBKTNV-1" vertex="1">
          <mxGeometry x="-3150" y="4500" width="20" height="20" as="geometry" />
        </mxCell>
        <mxCell id="Ut67D4-_fYfOlmeCOS3n-351" value="&lt;span style=&quot;font-size: 20px&quot;&gt;predictions&lt;br&gt;(SIJF)&lt;br&gt;&lt;/span&gt;" style="text;html=1;strokeColor=none;fillColor=none;align=center;verticalAlign=middle;whiteSpace=wrap;rounded=0;" parent="WIyWlLk6GJQsqaUBKTNV-1" vertex="1">
          <mxGeometry x="-3070" y="4480" width="40" height="20" as="geometry" />
        </mxCell>
        <mxCell id="Ut67D4-_fYfOlmeCOS3n-352" value="&lt;span style=&quot;font-size: 20px&quot;&gt;bestModel&lt;br&gt;(&amp;lt;)&lt;br&gt;&lt;/span&gt;" style="text;html=1;strokeColor=none;fillColor=none;align=center;verticalAlign=middle;whiteSpace=wrap;rounded=0;" parent="WIyWlLk6GJQsqaUBKTNV-1" vertex="1">
          <mxGeometry x="-3500" y="4550" width="40" height="20" as="geometry" />
        </mxCell>
        <mxCell id="Ut67D4-_fYfOlmeCOS3n-353" value="" style="endArrow=classic;html=1;entryX=0.5;entryY=0;entryDx=0;entryDy=0;exitX=0.5;exitY=1;exitDx=0;exitDy=0;" parent="WIyWlLk6GJQsqaUBKTNV-1" source="Ut67D4-_fYfOlmeCOS3n-354" target="Ut67D4-_fYfOlmeCOS3n-345" edge="1">
          <mxGeometry width="50" height="50" relative="1" as="geometry">
            <mxPoint x="-3240" y="4530" as="sourcePoint" />
            <mxPoint x="-3140" y="4640" as="targetPoint" />
          </mxGeometry>
        </mxCell>
        <mxCell id="Ut67D4-_fYfOlmeCOS3n-354" value="" style="ellipse;whiteSpace=wrap;html=1;aspect=fixed;fillColor=#f5f5f5;strokeColor=#666666;fontColor=#333333;" parent="WIyWlLk6GJQsqaUBKTNV-1" vertex="1">
          <mxGeometry x="-3260" y="4490" width="20" height="20" as="geometry" />
        </mxCell>
        <mxCell id="Ut67D4-_fYfOlmeCOS3n-355" value="&lt;span style=&quot;font-size: 20px&quot;&gt;testScore&lt;br&gt;(F)&lt;br&gt;&lt;/span&gt;" style="text;html=1;strokeColor=none;fillColor=none;align=center;verticalAlign=middle;whiteSpace=wrap;rounded=0;" parent="WIyWlLk6GJQsqaUBKTNV-1" vertex="1">
          <mxGeometry x="-3220" y="4480" width="40" height="20" as="geometry" />
        </mxCell>
        <mxCell id="Ut67D4-_fYfOlmeCOS3n-356" value="" style="endArrow=classic;html=1;exitX=0.5;exitY=1;exitDx=0;exitDy=0;entryX=0.5;entryY=0;entryDx=0;entryDy=0;" parent="WIyWlLk6GJQsqaUBKTNV-1" target="Ut67D4-_fYfOlmeCOS3n-357" edge="1">
          <mxGeometry width="50" height="50" relative="1" as="geometry">
            <mxPoint x="-3240" y="4690" as="sourcePoint" />
            <mxPoint x="-3240" y="4832.25" as="targetPoint" />
          </mxGeometry>
        </mxCell>
        <mxCell id="Ut67D4-_fYfOlmeCOS3n-357" value="" style="ellipse;whiteSpace=wrap;html=1;aspect=fixed;fillColor=#ffe6cc;strokeColor=#d79b00;" parent="WIyWlLk6GJQsqaUBKTNV-1" vertex="1">
          <mxGeometry x="-3250" y="4822.25" width="20" height="20" as="geometry" />
        </mxCell>
        <mxCell id="Ut67D4-_fYfOlmeCOS3n-358" value="&lt;span style=&quot;font-size: 20px&quot;&gt;outputs&lt;br&gt;(!)&lt;br&gt;&lt;/span&gt;" style="text;html=1;strokeColor=none;fillColor=none;align=center;verticalAlign=middle;whiteSpace=wrap;rounded=0;" parent="WIyWlLk6GJQsqaUBKTNV-1" vertex="1">
          <mxGeometry x="-3190" y="4822.25" width="40" height="20" as="geometry" />
        </mxCell>
        <mxCell id="Ut67D4-_fYfOlmeCOS3n-360" value="" style="endArrow=classic;html=1;exitX=0.5;exitY=1;exitDx=0;exitDy=0;entryX=0.5;entryY=0;entryDx=0;entryDy=0;dashed=1;" parent="WIyWlLk6GJQsqaUBKTNV-1" source="Ut67D4-_fYfOlmeCOS3n-341" target="Ut67D4-_fYfOlmeCOS3n-350" edge="1">
          <mxGeometry width="50" height="50" relative="1" as="geometry">
            <mxPoint x="-3210" y="4670" as="sourcePoint" />
            <mxPoint x="-3160" y="4620" as="targetPoint" />
          </mxGeometry>
        </mxCell>
        <mxCell id="Ut67D4-_fYfOlmeCOS3n-361" value="" style="endArrow=classic;html=1;exitX=0.5;exitY=1;exitDx=0;exitDy=0;entryX=0.5;entryY=0;entryDx=0;entryDy=0;dashed=1;" parent="WIyWlLk6GJQsqaUBKTNV-1" source="Ut67D4-_fYfOlmeCOS3n-320" target="Ut67D4-_fYfOlmeCOS3n-354" edge="1">
          <mxGeometry width="50" height="50" relative="1" as="geometry">
            <mxPoint x="-3210" y="4670" as="sourcePoint" />
            <mxPoint x="-3160" y="4620" as="targetPoint" />
          </mxGeometry>
        </mxCell>
        <mxCell id="Ut67D4-_fYfOlmeCOS3n-362" value="" style="endArrow=classic;html=1;exitX=0.5;exitY=1;exitDx=0;exitDy=0;entryX=0.5;entryY=0;entryDx=0;entryDy=0;dashed=1;" parent="WIyWlLk6GJQsqaUBKTNV-1" source="Ut67D4-_fYfOlmeCOS3n-340" target="Ut67D4-_fYfOlmeCOS3n-349" edge="1">
          <mxGeometry width="50" height="50" relative="1" as="geometry">
            <mxPoint x="-3210" y="4670" as="sourcePoint" />
            <mxPoint x="-3160" y="4620" as="targetPoint" />
          </mxGeometry>
        </mxCell>
        <mxCell id="Ut67D4-_fYfOlmeCOS3n-363" value="" style="whiteSpace=wrap;html=1;aspect=fixed;fillColor=#f8cecc;strokeColor=#b85450;" parent="WIyWlLk6GJQsqaUBKTNV-1" vertex="1">
          <mxGeometry x="-3260" y="5290" width="40" height="40" as="geometry" />
        </mxCell>
        <mxCell id="Ut67D4-_fYfOlmeCOS3n-364" value="&lt;span style=&quot;font-size: 20px&quot;&gt;&lt;i&gt;pathConstruct&lt;/i&gt;&lt;/span&gt;" style="text;html=1;strokeColor=none;fillColor=none;align=center;verticalAlign=middle;whiteSpace=wrap;rounded=0;" parent="WIyWlLk6GJQsqaUBKTNV-1" vertex="1">
          <mxGeometry x="-3150" y="5300" width="40" height="20" as="geometry" />
        </mxCell>
        <mxCell id="Ut67D4-_fYfOlmeCOS3n-365" value="" style="endArrow=classic;html=1;entryX=0.75;entryY=0;entryDx=0;entryDy=0;exitX=0.5;exitY=1;exitDx=0;exitDy=0;" parent="WIyWlLk6GJQsqaUBKTNV-1" source="Ut67D4-_fYfOlmeCOS3n-368" target="Ut67D4-_fYfOlmeCOS3n-363" edge="1">
          <mxGeometry width="50" height="50" relative="1" as="geometry">
            <mxPoint x="-3160" y="5160" as="sourcePoint" />
            <mxPoint x="-3210" y="5307.75" as="targetPoint" />
          </mxGeometry>
        </mxCell>
        <mxCell id="Ut67D4-_fYfOlmeCOS3n-368" value="" style="ellipse;whiteSpace=wrap;html=1;aspect=fixed;fillColor=#f5f5f5;strokeColor=#666666;fontColor=#333333;" parent="WIyWlLk6GJQsqaUBKTNV-1" vertex="1">
          <mxGeometry x="-3050" y="5150" width="20" height="20" as="geometry" />
        </mxCell>
        <mxCell id="Ut67D4-_fYfOlmeCOS3n-369" value="&lt;span style=&quot;font-size: 20px&quot;&gt;predictionStore&lt;br&gt;(!)&lt;br&gt;&lt;/span&gt;" style="text;html=1;strokeColor=none;fillColor=none;align=center;verticalAlign=middle;whiteSpace=wrap;rounded=0;" parent="WIyWlLk6GJQsqaUBKTNV-1" vertex="1">
          <mxGeometry x="-2990" y="5190" width="40" height="20" as="geometry" />
        </mxCell>
        <mxCell id="Ut67D4-_fYfOlmeCOS3n-371" value="" style="endArrow=classic;html=1;entryX=0.5;entryY=0;entryDx=0;entryDy=0;exitX=1;exitY=1;exitDx=0;exitDy=0;" parent="WIyWlLk6GJQsqaUBKTNV-1" source="Ut67D4-_fYfOlmeCOS3n-372" target="Ut67D4-_fYfOlmeCOS3n-363" edge="1">
          <mxGeometry width="50" height="50" relative="1" as="geometry">
            <mxPoint x="-3240" y="5170" as="sourcePoint" />
            <mxPoint x="-3140" y="5280" as="targetPoint" />
          </mxGeometry>
        </mxCell>
        <mxCell id="Ut67D4-_fYfOlmeCOS3n-372" value="" style="ellipse;whiteSpace=wrap;html=1;aspect=fixed;fillColor=#f5f5f5;strokeColor=#666666;fontColor=#333333;" parent="WIyWlLk6GJQsqaUBKTNV-1" vertex="1">
          <mxGeometry x="-3450" y="5150" width="20" height="20" as="geometry" />
        </mxCell>
        <mxCell id="Ut67D4-_fYfOlmeCOS3n-373" value="&lt;span style=&quot;font-size: 20px&quot;&gt;preprocParams&lt;br&gt;(!)&lt;br&gt;&lt;/span&gt;" style="text;html=1;strokeColor=none;fillColor=none;align=center;verticalAlign=middle;whiteSpace=wrap;rounded=0;" parent="WIyWlLk6GJQsqaUBKTNV-1" vertex="1">
          <mxGeometry x="-3539" y="5130" width="40" height="20" as="geometry" />
        </mxCell>
        <mxCell id="Ut67D4-_fYfOlmeCOS3n-374" value="" style="endArrow=classic;html=1;exitX=0.5;exitY=1;exitDx=0;exitDy=0;entryX=0.5;entryY=0;entryDx=0;entryDy=0;" parent="WIyWlLk6GJQsqaUBKTNV-1" target="Ut67D4-_fYfOlmeCOS3n-375" edge="1">
          <mxGeometry width="50" height="50" relative="1" as="geometry">
            <mxPoint x="-3240" y="5330" as="sourcePoint" />
            <mxPoint x="-3240" y="5472.25" as="targetPoint" />
          </mxGeometry>
        </mxCell>
        <mxCell id="Ut67D4-_fYfOlmeCOS3n-375" value="" style="ellipse;whiteSpace=wrap;html=1;aspect=fixed;fillColor=#ffe6cc;strokeColor=#d79b00;" parent="WIyWlLk6GJQsqaUBKTNV-1" vertex="1">
          <mxGeometry x="-3250" y="5462.25" width="20" height="20" as="geometry" />
        </mxCell>
        <mxCell id="Ut67D4-_fYfOlmeCOS3n-376" value="&lt;span style=&quot;font-size: 20px&quot;&gt;outputs&lt;br&gt;(!)&lt;br&gt;&lt;/span&gt;" style="text;html=1;strokeColor=none;fillColor=none;align=center;verticalAlign=middle;whiteSpace=wrap;rounded=0;" parent="WIyWlLk6GJQsqaUBKTNV-1" vertex="1">
          <mxGeometry x="-3190" y="5462.25" width="40" height="20" as="geometry" />
        </mxCell>
        <mxCell id="Ut67D4-_fYfOlmeCOS3n-377" value="" style="endArrow=classic;html=1;dashed=1;exitX=0.5;exitY=1;exitDx=0;exitDy=0;entryX=0;entryY=0;entryDx=0;entryDy=0;" parent="WIyWlLk6GJQsqaUBKTNV-1" source="Ut67D4-_fYfOlmeCOS3n-357" target="Ut67D4-_fYfOlmeCOS3n-368" edge="1">
          <mxGeometry width="50" height="50" relative="1" as="geometry">
            <mxPoint x="-3220" y="5140" as="sourcePoint" />
            <mxPoint x="-3170" y="5090" as="targetPoint" />
          </mxGeometry>
        </mxCell>
        <mxCell id="Ut67D4-_fYfOlmeCOS3n-378" value="" style="curved=1;endArrow=classic;html=1;dashed=1;entryX=0.5;entryY=0;entryDx=0;entryDy=0;exitX=0.5;exitY=1;exitDx=0;exitDy=0;" parent="WIyWlLk6GJQsqaUBKTNV-1" source="Ut67D4-_fYfOlmeCOS3n-218" target="Ut67D4-_fYfOlmeCOS3n-372" edge="1">
          <mxGeometry width="50" height="50" relative="1" as="geometry">
            <mxPoint x="-4380" y="3770" as="sourcePoint" />
            <mxPoint x="-3270" y="4910" as="targetPoint" />
            <Array as="points">
              <mxPoint x="-3980" y="4300" />
              <mxPoint x="-3250" y="4900" />
            </Array>
          </mxGeometry>
        </mxCell>
        <mxCell id="Ut67D4-_fYfOlmeCOS3n-380" value="" style="endArrow=classic;html=1;dashed=1;exitX=0.5;exitY=1;exitDx=0;exitDy=0;entryX=1;entryY=0;entryDx=0;entryDy=0;" parent="WIyWlLk6GJQsqaUBKTNV-1" source="Ut67D4-_fYfOlmeCOS3n-375" target="Ut67D4-_fYfOlmeCOS3n-385" edge="1">
          <mxGeometry width="50" height="50" relative="1" as="geometry">
            <mxPoint x="-3310" y="5330" as="sourcePoint" />
            <mxPoint x="-3430" y="5590" as="targetPoint" />
          </mxGeometry>
        </mxCell>
        <mxCell id="Ut67D4-_fYfOlmeCOS3n-381" value="" style="endArrow=classic;html=1;dashed=1;exitX=0.5;exitY=1;exitDx=0;exitDy=0;entryX=0;entryY=0;entryDx=0;entryDy=0;" parent="WIyWlLk6GJQsqaUBKTNV-1" source="Ut67D4-_fYfOlmeCOS3n-375" target="Ut67D4-_fYfOlmeCOS3n-384" edge="1">
          <mxGeometry width="50" height="50" relative="1" as="geometry">
            <mxPoint x="-3230" y="5530" as="sourcePoint" />
            <mxPoint x="-3240" y="5590" as="targetPoint" />
          </mxGeometry>
        </mxCell>
        <mxCell id="Ut67D4-_fYfOlmeCOS3n-382" value="" style="endArrow=classic;html=1;dashed=1;exitX=0.5;exitY=1;exitDx=0;exitDy=0;entryX=0;entryY=0;entryDx=0;entryDy=0;" parent="WIyWlLk6GJQsqaUBKTNV-1" source="Ut67D4-_fYfOlmeCOS3n-375" target="Ut67D4-_fYfOlmeCOS3n-383" edge="1">
          <mxGeometry width="50" height="50" relative="1" as="geometry">
            <mxPoint x="-3229.9999999999995" y="5492.25" as="sourcePoint" />
            <mxPoint x="-3050" y="5590" as="targetPoint" />
          </mxGeometry>
        </mxCell>
        <mxCell id="Ut67D4-_fYfOlmeCOS3n-383" value="" style="ellipse;whiteSpace=wrap;html=1;aspect=fixed;fillColor=#f5f5f5;strokeColor=#666666;fontColor=#333333;" parent="WIyWlLk6GJQsqaUBKTNV-1" vertex="1">
          <mxGeometry x="-2850" y="5590" width="20" height="20" as="geometry" />
        </mxCell>
        <mxCell id="Ut67D4-_fYfOlmeCOS3n-384" value="" style="ellipse;whiteSpace=wrap;html=1;aspect=fixed;fillColor=#f5f5f5;strokeColor=#666666;fontColor=#333333;" parent="WIyWlLk6GJQsqaUBKTNV-1" vertex="1">
          <mxGeometry x="-3090" y="5590" width="20" height="20" as="geometry" />
        </mxCell>
        <mxCell id="Ut67D4-_fYfOlmeCOS3n-385" value="" style="ellipse;whiteSpace=wrap;html=1;aspect=fixed;fillColor=#f5f5f5;strokeColor=#666666;fontColor=#333333;" parent="WIyWlLk6GJQsqaUBKTNV-1" vertex="1">
          <mxGeometry x="-3569" y="5590" width="20" height="20" as="geometry" />
        </mxCell>
        <mxCell id="Ut67D4-_fYfOlmeCOS3n-395" value="" style="whiteSpace=wrap;html=1;aspect=fixed;fillColor=#fff2cc;strokeColor=#d6b656;" parent="WIyWlLk6GJQsqaUBKTNV-1" vertex="1">
          <mxGeometry x="-3579" y="5730" width="40" height="40" as="geometry" />
        </mxCell>
        <mxCell id="Ut67D4-_fYfOlmeCOS3n-396" value="&lt;span style=&quot;font-size: 20px&quot;&gt;&lt;i&gt;saveGraph&lt;/i&gt;&lt;/span&gt;" style="text;html=1;strokeColor=none;fillColor=none;align=center;verticalAlign=middle;whiteSpace=wrap;rounded=0;" parent="WIyWlLk6GJQsqaUBKTNV-1" vertex="1">
          <mxGeometry x="-3669" y="5740" width="40" height="20" as="geometry" />
        </mxCell>
        <mxCell id="Ut67D4-_fYfOlmeCOS3n-397" value="" style="endArrow=classic;html=1;entryX=0.5;entryY=0;entryDx=0;entryDy=0;" parent="WIyWlLk6GJQsqaUBKTNV-1" target="Ut67D4-_fYfOlmeCOS3n-395" edge="1">
          <mxGeometry width="50" height="50" relative="1" as="geometry">
            <mxPoint x="-3559" y="5610.000000000001" as="sourcePoint" />
            <mxPoint x="-3459" y="5720" as="targetPoint" />
          </mxGeometry>
        </mxCell>
        <mxCell id="Ut67D4-_fYfOlmeCOS3n-398" value="&lt;span style=&quot;font-size: 20px&quot;&gt;inputs&lt;br&gt;(!)&lt;br&gt;&lt;/span&gt;" style="text;html=1;strokeColor=none;fillColor=none;align=center;verticalAlign=middle;whiteSpace=wrap;rounded=0;" parent="WIyWlLk6GJQsqaUBKTNV-1" vertex="1">
          <mxGeometry x="-3628" y="5590" width="40" height="20" as="geometry" />
        </mxCell>
        <mxCell id="Ut67D4-_fYfOlmeCOS3n-399" value="" style="whiteSpace=wrap;html=1;aspect=fixed;fillColor=#fff2cc;strokeColor=#d6b656;" parent="WIyWlLk6GJQsqaUBKTNV-1" vertex="1">
          <mxGeometry x="-3100" y="5730" width="40" height="40" as="geometry" />
        </mxCell>
        <mxCell id="Ut67D4-_fYfOlmeCOS3n-400" value="&lt;span style=&quot;font-size: 20px&quot;&gt;&lt;i&gt;saveMeta&lt;/i&gt;&lt;/span&gt;" style="text;html=1;strokeColor=none;fillColor=none;align=center;verticalAlign=middle;whiteSpace=wrap;rounded=0;" parent="WIyWlLk6GJQsqaUBKTNV-1" vertex="1">
          <mxGeometry x="-3010" y="5740" width="40" height="20" as="geometry" />
        </mxCell>
        <mxCell id="Ut67D4-_fYfOlmeCOS3n-401" value="" style="endArrow=classic;html=1;entryX=0.5;entryY=0;entryDx=0;entryDy=0;" parent="WIyWlLk6GJQsqaUBKTNV-1" target="Ut67D4-_fYfOlmeCOS3n-399" edge="1">
          <mxGeometry width="50" height="50" relative="1" as="geometry">
            <mxPoint x="-3080" y="5610.000000000001" as="sourcePoint" />
            <mxPoint x="-2980" y="5720" as="targetPoint" />
          </mxGeometry>
        </mxCell>
        <mxCell id="Ut67D4-_fYfOlmeCOS3n-402" value="&lt;span style=&quot;font-size: 20px&quot;&gt;inputs&lt;br&gt;(!)&lt;br&gt;&lt;/span&gt;" style="text;html=1;strokeColor=none;fillColor=none;align=center;verticalAlign=middle;whiteSpace=wrap;rounded=0;" parent="WIyWlLk6GJQsqaUBKTNV-1" vertex="1">
          <mxGeometry x="-3040" y="5590" width="40" height="20" as="geometry" />
        </mxCell>
        <mxCell id="Ut67D4-_fYfOlmeCOS3n-403" value="" style="whiteSpace=wrap;html=1;aspect=fixed;fillColor=#fff2cc;strokeColor=#d6b656;" parent="WIyWlLk6GJQsqaUBKTNV-1" vertex="1">
          <mxGeometry x="-2860" y="5730" width="40" height="40" as="geometry" />
        </mxCell>
        <mxCell id="Ut67D4-_fYfOlmeCOS3n-404" value="&lt;span style=&quot;font-size: 20px&quot;&gt;&lt;i&gt;saveReport&lt;/i&gt;&lt;/span&gt;" style="text;html=1;strokeColor=none;fillColor=none;align=center;verticalAlign=middle;whiteSpace=wrap;rounded=0;" parent="WIyWlLk6GJQsqaUBKTNV-1" vertex="1">
          <mxGeometry x="-2750" y="5740" width="40" height="20" as="geometry" />
        </mxCell>
        <mxCell id="Ut67D4-_fYfOlmeCOS3n-405" value="" style="endArrow=classic;html=1;" parent="WIyWlLk6GJQsqaUBKTNV-1" target="Ut67D4-_fYfOlmeCOS3n-403" edge="1">
          <mxGeometry width="50" height="50" relative="1" as="geometry">
            <mxPoint x="-2840" y="5610.000000000001" as="sourcePoint" />
            <mxPoint x="-2740" y="5720" as="targetPoint" />
          </mxGeometry>
        </mxCell>
        <mxCell id="Ut67D4-_fYfOlmeCOS3n-406" value="&lt;span style=&quot;font-size: 20px&quot;&gt;inputs&lt;br&gt;(!)&lt;br&gt;&lt;/span&gt;" style="text;html=1;strokeColor=none;fillColor=none;align=center;verticalAlign=middle;whiteSpace=wrap;rounded=0;" parent="WIyWlLk6GJQsqaUBKTNV-1" vertex="1">
          <mxGeometry x="-2794" y="5590" width="40" height="20" as="geometry" />
        </mxCell>
        <mxCell id="6Fn0bXMc83TZa7A3oC1--1" value="" style="ellipse;whiteSpace=wrap;html=1;aspect=fixed;fillColor=#f5f5f5;strokeColor=#666666;fontColor=#333333;" parent="WIyWlLk6GJQsqaUBKTNV-1" vertex="1">
          <mxGeometry x="-3330" y="5590" width="20" height="20" as="geometry" />
        </mxCell>
        <mxCell id="6Fn0bXMc83TZa7A3oC1--2" value="" style="whiteSpace=wrap;html=1;aspect=fixed;fillColor=#fff2cc;strokeColor=#d6b656;" parent="WIyWlLk6GJQsqaUBKTNV-1" vertex="1">
          <mxGeometry x="-3340" y="5730" width="40" height="40" as="geometry" />
        </mxCell>
        <mxCell id="6Fn0bXMc83TZa7A3oC1--3" value="&lt;span style=&quot;font-size: 20px&quot;&gt;&lt;i&gt;saveModel&lt;/i&gt;&lt;/span&gt;" style="text;html=1;strokeColor=none;fillColor=none;align=center;verticalAlign=middle;whiteSpace=wrap;rounded=0;" parent="WIyWlLk6GJQsqaUBKTNV-1" vertex="1">
          <mxGeometry x="-3250" y="5740" width="40" height="20" as="geometry" />
        </mxCell>
        <mxCell id="6Fn0bXMc83TZa7A3oC1--4" value="" style="endArrow=classic;html=1;entryX=0.5;entryY=0;entryDx=0;entryDy=0;" parent="WIyWlLk6GJQsqaUBKTNV-1" target="6Fn0bXMc83TZa7A3oC1--2" edge="1">
          <mxGeometry width="50" height="50" relative="1" as="geometry">
            <mxPoint x="-3320" y="5610.000000000001" as="sourcePoint" />
            <mxPoint x="-3220" y="5720" as="targetPoint" />
          </mxGeometry>
        </mxCell>
        <mxCell id="6Fn0bXMc83TZa7A3oC1--5" value="&lt;span style=&quot;font-size: 20px&quot;&gt;inputs&lt;br&gt;(!)&lt;br&gt;&lt;/span&gt;" style="text;html=1;strokeColor=none;fillColor=none;align=center;verticalAlign=middle;whiteSpace=wrap;rounded=0;" parent="WIyWlLk6GJQsqaUBKTNV-1" vertex="1">
          <mxGeometry x="-3280" y="5590" width="40" height="20" as="geometry" />
        </mxCell>
        <mxCell id="6Fn0bXMc83TZa7A3oC1--6" value="" style="endArrow=classic;html=1;dashed=1;entryX=1;entryY=0;entryDx=0;entryDy=0;exitX=0.5;exitY=1;exitDx=0;exitDy=0;" parent="WIyWlLk6GJQsqaUBKTNV-1" source="Ut67D4-_fYfOlmeCOS3n-375" target="6Fn0bXMc83TZa7A3oC1--1" edge="1">
          <mxGeometry width="50" height="50" relative="1" as="geometry">
            <mxPoint x="-3280" y="5550" as="sourcePoint" />
            <mxPoint x="-3077.0710678118658" y="5602.928932188134" as="targetPoint" />
          </mxGeometry>
        </mxCell>
        <mxCell id="ZsO0bN-LLqJJr4o_gvpD-0" value="" style="endArrow=classic;html=1;entryX=0.5;entryY=0;entryDx=0;entryDy=0;exitX=0.25;exitY=1;exitDx=0;exitDy=0;" parent="WIyWlLk6GJQsqaUBKTNV-1" source="Ut67D4-_fYfOlmeCOS3n-79" target="ZsO0bN-LLqJJr4o_gvpD-1" edge="1">
          <mxGeometry width="50" height="50" relative="1" as="geometry">
            <mxPoint x="-2835" y="7.5" as="sourcePoint" />
            <mxPoint x="-2745" y="75" as="targetPoint" />
          </mxGeometry>
        </mxCell>
        <mxCell id="ZsO0bN-LLqJJr4o_gvpD-1" value="" style="ellipse;whiteSpace=wrap;html=1;aspect=fixed;fillColor=#ffe6cc;strokeColor=#d79b00;" parent="WIyWlLk6GJQsqaUBKTNV-1" vertex="1">
          <mxGeometry x="-2794" y="86.88" width="23.75" height="23.75" as="geometry" />
        </mxCell>
        <mxCell id="ZsO0bN-LLqJJr4o_gvpD-3" value="&lt;span style=&quot;font-size: 20px&quot;&gt;symMap&lt;br&gt;(!)&lt;br&gt;&lt;/span&gt;" style="text;html=1;strokeColor=none;fillColor=none;align=center;verticalAlign=middle;whiteSpace=wrap;rounded=0;" parent="WIyWlLk6GJQsqaUBKTNV-1" vertex="1">
          <mxGeometry x="-2874" y="90.63" width="40" height="20" as="geometry" />
        </mxCell>
        <mxCell id="ZsO0bN-LLqJJr4o_gvpD-5" value="" style="curved=1;endArrow=classic;html=1;dashed=1;exitX=0;exitY=1;exitDx=0;exitDy=0;entryX=0.5;entryY=0;entryDx=0;entryDy=0;" parent="WIyWlLk6GJQsqaUBKTNV-1" source="ZsO0bN-LLqJJr4o_gvpD-1" target="ZsO0bN-LLqJJr4o_gvpD-7" edge="1">
          <mxGeometry width="50" height="50" relative="1" as="geometry">
            <mxPoint x="-3230" y="118.75" as="sourcePoint" />
            <mxPoint x="-4460" y="1900" as="targetPoint" />
            <Array as="points">
              <mxPoint x="-4030" y="280" />
              <mxPoint x="-4560" y="1670" />
            </Array>
          </mxGeometry>
        </mxCell>
        <mxCell id="ZsO0bN-LLqJJr4o_gvpD-6" value="" style="endArrow=classic;html=1;entryX=0.5;entryY=0;entryDx=0;entryDy=0;exitX=0.5;exitY=1;exitDx=0;exitDy=0;" parent="WIyWlLk6GJQsqaUBKTNV-1" source="ZsO0bN-LLqJJr4o_gvpD-7" target="Ut67D4-_fYfOlmeCOS3n-212" edge="1">
          <mxGeometry width="50" height="50" relative="1" as="geometry">
            <mxPoint x="-4601" y="2050" as="sourcePoint" />
            <mxPoint x="-4581" y="2187.75" as="targetPoint" />
          </mxGeometry>
        </mxCell>
        <mxCell id="ZsO0bN-LLqJJr4o_gvpD-7" value="" style="ellipse;whiteSpace=wrap;html=1;aspect=fixed;fillColor=#f5f5f5;strokeColor=#666666;fontColor=#333333;" parent="WIyWlLk6GJQsqaUBKTNV-1" vertex="1">
          <mxGeometry x="-4611" y="2030" width="20" height="20" as="geometry" />
        </mxCell>
        <mxCell id="ZsO0bN-LLqJJr4o_gvpD-8" value="&lt;span style=&quot;font-size: 20px&quot;&gt;symMap&lt;br&gt;(!)&lt;br&gt;&lt;/span&gt;" style="text;html=1;strokeColor=none;fillColor=none;align=center;verticalAlign=middle;whiteSpace=wrap;rounded=0;" parent="WIyWlLk6GJQsqaUBKTNV-1" vertex="1">
          <mxGeometry x="-4568" y="2010" width="40" height="20" as="geometry" />
        </mxCell>
        <mxCell id="ZsO0bN-LLqJJr4o_gvpD-9" value="" style="ellipse;whiteSpace=wrap;html=1;aspect=fixed;fillColor=#f5f5f5;strokeColor=#666666;fontColor=#333333;" parent="WIyWlLk6GJQsqaUBKTNV-1" vertex="1">
          <mxGeometry x="-3090" y="1470" width="20" height="20" as="geometry" />
        </mxCell>
        <mxCell id="ZsO0bN-LLqJJr4o_gvpD-10" value="" style="endArrow=classic;html=1;entryX=0.75;entryY=0;entryDx=0;entryDy=0;exitX=0;exitY=1;exitDx=0;exitDy=0;" parent="WIyWlLk6GJQsqaUBKTNV-1" source="ZsO0bN-LLqJJr4o_gvpD-9" target="Ut67D4-_fYfOlmeCOS3n-182" edge="1">
          <mxGeometry width="50" height="50" relative="1" as="geometry">
            <mxPoint x="-3380" y="1490" as="sourcePoint" />
            <mxPoint x="-3240" y="1607.7500000000005" as="targetPoint" />
          </mxGeometry>
        </mxCell>
        <mxCell id="ZsO0bN-LLqJJr4o_gvpD-11" value="&lt;span style=&quot;font-size: 20px&quot;&gt;target&lt;br&gt;(IFJS)&lt;br&gt;&lt;/span&gt;" style="text;html=1;strokeColor=none;fillColor=none;align=center;verticalAlign=middle;whiteSpace=wrap;rounded=0;" parent="WIyWlLk6GJQsqaUBKTNV-1" vertex="1">
          <mxGeometry x="-3060" y="1500" width="40" height="20" as="geometry" />
        </mxCell>
        <mxCell id="ZsO0bN-LLqJJr4o_gvpD-12" value="" style="curved=1;endArrow=classic;html=1;dashed=1;entryX=1;entryY=0.5;entryDx=0;entryDy=0;exitX=0.5;exitY=1;exitDx=0;exitDy=0;" parent="WIyWlLk6GJQsqaUBKTNV-1" source="Ut67D4-_fYfOlmeCOS3n-81" target="ZsO0bN-LLqJJr4o_gvpD-9" edge="1">
          <mxGeometry width="50" height="50" relative="1" as="geometry">
            <mxPoint x="-2560" y="170" as="sourcePoint" />
            <mxPoint x="-2940" y="2049.999999999999" as="targetPoint" />
            <Array as="points">
              <mxPoint x="-2760" y="1110" />
              <mxPoint x="-2840" y="1430" />
            </Array>
          </mxGeometry>
        </mxCell>
        <mxCell id="fdKkvQmOK0W9S40QWLTO-0" value="" style="ellipse;whiteSpace=wrap;html=1;aspect=fixed;fillColor=#f5f5f5;strokeColor=#666666;fontColor=#333333;" parent="WIyWlLk6GJQsqaUBKTNV-1" vertex="1">
          <mxGeometry x="-3290" y="350" width="20" height="20" as="geometry" />
        </mxCell>
        <mxCell id="fdKkvQmOK0W9S40QWLTO-1" value="" style="endArrow=classic;html=1;entryX=0;entryY=0;entryDx=0;entryDy=0;exitX=1;exitY=1;exitDx=0;exitDy=0;" parent="WIyWlLk6GJQsqaUBKTNV-1" source="Ut67D4-_fYfOlmeCOS3n-137" target="Ut67D4-_fYfOlmeCOS3n-130" edge="1">
          <mxGeometry width="50" height="50" relative="1" as="geometry">
            <mxPoint x="-3270" y="380" as="sourcePoint" />
            <mxPoint x="-3250" y="490" as="targetPoint" />
          </mxGeometry>
        </mxCell>
        <mxCell id="fdKkvQmOK0W9S40QWLTO-2" value="" style="curved=1;endArrow=classic;html=1;dashed=1;exitX=0.5;exitY=1;exitDx=0;exitDy=0;entryX=0;entryY=0.5;entryDx=0;entryDy=0;" parent="WIyWlLk6GJQsqaUBKTNV-1" source="Ut67D4-_fYfOlmeCOS3n-125" target="fdKkvQmOK0W9S40QWLTO-0" edge="1">
          <mxGeometry width="50" height="50" relative="1" as="geometry">
            <mxPoint x="-3400.000000000081" y="-315" as="sourcePoint" />
            <mxPoint x="-3360" y="370" as="targetPoint" />
            <Array as="points">
              <mxPoint x="-3800" y="220" />
              <mxPoint x="-3650" y="250" />
              <mxPoint x="-3560" y="260" />
              <mxPoint x="-3500" y="330" />
            </Array>
          </mxGeometry>
        </mxCell>
        <mxCell id="fdKkvQmOK0W9S40QWLTO-3" value="&lt;span style=&quot;font-size: 20px&quot;&gt;symEncode&lt;br&gt;(S)&lt;br&gt;&lt;/span&gt;" style="text;html=1;strokeColor=none;fillColor=none;align=center;verticalAlign=middle;whiteSpace=wrap;rounded=0;" parent="WIyWlLk6GJQsqaUBKTNV-1" vertex="1">
          <mxGeometry x="-3355" y="320" width="40" height="20" as="geometry" />
        </mxCell>
        <mxCell id="3i1GLZzZhCti5nv_dwvX-34" value="" style="edgeStyle=none;orthogonalLoop=1;jettySize=auto;html=1;dashed=1;" parent="WIyWlLk6GJQsqaUBKTNV-1" source="3i1GLZzZhCti5nv_dwvX-10" target="3i1GLZzZhCti5nv_dwvX-33" edge="1">
          <mxGeometry relative="1" as="geometry" />
        </mxCell>
        <mxCell id="3i1GLZzZhCti5nv_dwvX-10" value="" style="ellipse;whiteSpace=wrap;html=1;aspect=fixed;fillColor=#ffe6cc;strokeColor=#d79b00;" parent="WIyWlLk6GJQsqaUBKTNV-1" vertex="1">
          <mxGeometry x="-3250" y="1190" width="22.19" height="22.19" as="geometry" />
        </mxCell>
        <mxCell id="3i1GLZzZhCti5nv_dwvX-23" value="&lt;div style=&quot;text-align: center&quot;&gt;&lt;span style=&quot;font-size: 20px&quot;&gt;&lt;font face=&quot;helvetica&quot;&gt;featModel&lt;/font&gt;&lt;/span&gt;&lt;/div&gt;&lt;div style=&quot;text-align: center&quot;&gt;&lt;span style=&quot;font-size: 20px&quot;&gt;&lt;font face=&quot;helvetica&quot;&gt;(&amp;lt;)&lt;/font&gt;&lt;/span&gt;&lt;/div&gt;" style="text;whiteSpace=wrap;html=1;" parent="WIyWlLk6GJQsqaUBKTNV-1" vertex="1">
          <mxGeometry x="-4320" y="2172.75" width="80" height="50" as="geometry" />
        </mxCell>
        <mxCell id="3i1GLZzZhCti5nv_dwvX-27" value="&lt;span style=&quot;font-size: 20px&quot;&gt;featModel&lt;br&gt;(&amp;lt;)&lt;br&gt;&lt;/span&gt;" style="text;html=1;strokeColor=none;fillColor=none;align=center;verticalAlign=middle;whiteSpace=wrap;rounded=0;" parent="WIyWlLk6GJQsqaUBKTNV-1" vertex="1">
          <mxGeometry x="-3200" y="1192.1899999999998" width="40" height="20" as="geometry" />
        </mxCell>
        <mxCell id="3i1GLZzZhCti5nv_dwvX-32" value="" style="endArrow=classic;html=1;entryX=1;entryY=0.25;entryDx=0;entryDy=0;" parent="WIyWlLk6GJQsqaUBKTNV-1" target="Ut67D4-_fYfOlmeCOS3n-212" edge="1">
          <mxGeometry width="50" height="50" relative="1" as="geometry">
            <mxPoint x="-4311" y="2154.44" as="sourcePoint" />
            <mxPoint x="-4572" y="2162.19" as="targetPoint" />
          </mxGeometry>
        </mxCell>
        <mxCell id="3i1GLZzZhCti5nv_dwvX-33" value="" style="ellipse;whiteSpace=wrap;html=1;aspect=fixed;fillColor=#F5F5F5;strokeColor=#666666;" parent="WIyWlLk6GJQsqaUBKTNV-1" vertex="1">
          <mxGeometry x="-4311" y="2140" width="22.19" height="22.19" as="geometry" />
        </mxCell>
        <mxCell id="3i1GLZzZhCti5nv_dwvX-39" value="" style="ellipse;whiteSpace=wrap;html=1;aspect=fixed;fillColor=#F5F5F5;strokeColor=#666666;" parent="WIyWlLk6GJQsqaUBKTNV-1" vertex="1">
          <mxGeometry x="-3090" y="3310" width="20" height="20" as="geometry" />
        </mxCell>
        <mxCell id="3i1GLZzZhCti5nv_dwvX-41" value="" style="ellipse;whiteSpace=wrap;html=1;aspect=fixed;fillColor=#F5F5F5;strokeColor=#666666;" parent="WIyWlLk6GJQsqaUBKTNV-1" vertex="1">
          <mxGeometry x="-2894" y="4000" width="20" height="20" as="geometry" />
        </mxCell>
        <mxCell id="3i1GLZzZhCti5nv_dwvX-48" value="" style="edgeStyle=none;curved=1;orthogonalLoop=1;jettySize=auto;html=1;dashed=1;" parent="WIyWlLk6GJQsqaUBKTNV-1" source="3i1GLZzZhCti5nv_dwvX-45" target="3i1GLZzZhCti5nv_dwvX-47" edge="1">
          <mxGeometry relative="1" as="geometry">
            <Array as="points">
              <mxPoint x="-2610" y="3980" />
            </Array>
          </mxGeometry>
        </mxCell>
        <mxCell id="3i1GLZzZhCti5nv_dwvX-45" value="" style="ellipse;whiteSpace=wrap;html=1;aspect=fixed;fillColor=#ffe6cc;strokeColor=#d79b00;" parent="WIyWlLk6GJQsqaUBKTNV-1" vertex="1">
          <mxGeometry x="-3250" y="3590" width="20" height="20" as="geometry" />
        </mxCell>
        <mxCell id="3i1GLZzZhCti5nv_dwvX-46" value="&lt;span style=&quot;font-size: 20px&quot;&gt;modelMetaData&lt;br&gt;(!)&lt;br&gt;&lt;/span&gt;" style="text;html=1;strokeColor=none;fillColor=none;align=center;verticalAlign=middle;whiteSpace=wrap;rounded=0;" parent="WIyWlLk6GJQsqaUBKTNV-1" vertex="1">
          <mxGeometry x="-3260" y="3660" width="40" height="20" as="geometry" />
        </mxCell>
        <mxCell id="3i1GLZzZhCti5nv_dwvX-47" value="" style="ellipse;whiteSpace=wrap;html=1;aspect=fixed;strokeColor=#666666;fillColor=#F5F5F5;" parent="WIyWlLk6GJQsqaUBKTNV-1" vertex="1">
          <mxGeometry x="-3010" y="4540" width="20" height="20" as="geometry" />
        </mxCell>
        <mxCell id="3i1GLZzZhCti5nv_dwvX-52" value="" style="endArrow=classic;html=1;entryX=0.75;entryY=0;entryDx=0;entryDy=0;exitX=0;exitY=1;exitDx=0;exitDy=0;" parent="WIyWlLk6GJQsqaUBKTNV-1" source="3i1GLZzZhCti5nv_dwvX-47" edge="1">
          <mxGeometry width="50" height="50" relative="1" as="geometry">
            <mxPoint x="-2990" y="4610" as="sourcePoint" />
            <mxPoint x="-3220" y="4650" as="targetPoint" />
          </mxGeometry>
        </mxCell>
        <mxCell id="3i1GLZzZhCti5nv_dwvX-54" value="&lt;span style=&quot;font-size: 20px&quot;&gt;modelMetaData&lt;br&gt;(!)&lt;br&gt;&lt;/span&gt;" style="text;html=1;strokeColor=none;fillColor=none;align=center;verticalAlign=middle;whiteSpace=wrap;rounded=0;" parent="WIyWlLk6GJQsqaUBKTNV-1" vertex="1">
          <mxGeometry x="-2970" y="4590" width="40" height="20" as="geometry" />
        </mxCell>
        <mxCell id="3i1GLZzZhCti5nv_dwvX-61" value="" style="endArrow=classic;html=1;exitX=0.5;exitY=1;exitDx=0;exitDy=0;entryX=0.5;entryY=0;entryDx=0;entryDy=0;" parent="WIyWlLk6GJQsqaUBKTNV-1" target="3i1GLZzZhCti5nv_dwvX-62" edge="1">
          <mxGeometry width="50" height="50" relative="1" as="geometry">
            <mxPoint x="-3247.81" y="4180" as="sourcePoint" />
            <mxPoint x="-3310" y="4300" as="targetPoint" />
          </mxGeometry>
        </mxCell>
        <mxCell id="3i1GLZzZhCti5nv_dwvX-67" value="" style="edgeStyle=none;curved=1;orthogonalLoop=1;jettySize=auto;html=1;dashed=1;" parent="WIyWlLk6GJQsqaUBKTNV-1" source="3i1GLZzZhCti5nv_dwvX-62" target="3i1GLZzZhCti5nv_dwvX-66" edge="1">
          <mxGeometry relative="1" as="geometry" />
        </mxCell>
        <mxCell id="3i1GLZzZhCti5nv_dwvX-62" value="" style="ellipse;whiteSpace=wrap;html=1;aspect=fixed;fillColor=#ffe6cc;strokeColor=#d79b00;" parent="WIyWlLk6GJQsqaUBKTNV-1" vertex="1">
          <mxGeometry x="-3298" y="4312.25" width="20" height="20" as="geometry" />
        </mxCell>
        <mxCell id="3i1GLZzZhCti5nv_dwvX-63" value="&lt;span style=&quot;font-size: 20px&quot;&gt;hyperParams&lt;br&gt;(!)&lt;br&gt;&lt;/span&gt;" style="text;html=1;strokeColor=none;fillColor=none;align=center;verticalAlign=middle;whiteSpace=wrap;rounded=0;" parent="WIyWlLk6GJQsqaUBKTNV-1" vertex="1">
          <mxGeometry x="-3360" y="4280" width="40" height="20" as="geometry" />
        </mxCell>
        <mxCell id="3i1GLZzZhCti5nv_dwvX-66" value="" style="ellipse;whiteSpace=wrap;html=1;aspect=fixed;fillColor=#F5F5F5;strokeColor=#666666;" parent="WIyWlLk6GJQsqaUBKTNV-1" vertex="1">
          <mxGeometry x="-3310" y="4490" width="20" height="20" as="geometry" />
        </mxCell>
        <mxCell id="3i1GLZzZhCti5nv_dwvX-68" value="&lt;span style=&quot;font-size: 20px&quot;&gt;hyperParams&lt;br&gt;(!)&lt;br&gt;&lt;/span&gt;" style="text;html=1;strokeColor=none;fillColor=none;align=center;verticalAlign=middle;whiteSpace=wrap;rounded=0;" parent="WIyWlLk6GJQsqaUBKTNV-1" vertex="1">
          <mxGeometry x="-3380" y="4480" width="40" height="20" as="geometry" />
        </mxCell>
        <mxCell id="3i1GLZzZhCti5nv_dwvX-69" value="" style="endArrow=classic;html=1;entryX=0.25;entryY=0;entryDx=0;entryDy=0;exitX=0.5;exitY=1;exitDx=0;exitDy=0;" parent="WIyWlLk6GJQsqaUBKTNV-1" target="Ut67D4-_fYfOlmeCOS3n-345" edge="1">
          <mxGeometry width="50" height="50" relative="1" as="geometry">
            <mxPoint x="-3298" y="4510" as="sourcePoint" />
            <mxPoint x="-3288" y="4650" as="targetPoint" />
          </mxGeometry>
        </mxCell>
        <mxCell id="7FSMs0WoNPrATZ0Mfe0N-0" value="" style="ellipse;whiteSpace=wrap;html=1;aspect=fixed;strokeColor=#666666;fontColor=#333333;fillColor=#F5F5F5;" vertex="1" parent="WIyWlLk6GJQsqaUBKTNV-1">
          <mxGeometry x="-4311" y="2300" width="20" height="20" as="geometry" />
        </mxCell>
        <mxCell id="7FSMs0WoNPrATZ0Mfe0N-1" value="" style="curved=1;endArrow=classic;html=1;dashed=1;exitX=0;exitY=0.5;exitDx=0;exitDy=0;entryX=1;entryY=1;entryDx=0;entryDy=0;" edge="1" parent="WIyWlLk6GJQsqaUBKTNV-1" source="Ut67D4-_fYfOlmeCOS3n-272" target="7FSMs0WoNPrATZ0Mfe0N-0">
          <mxGeometry width="50" height="50" relative="1" as="geometry">
            <mxPoint x="-3409" y="2162.1899999999996" as="sourcePoint" />
            <mxPoint x="-4320" y="2439.07" as="targetPoint" />
            <Array as="points">
              <mxPoint x="-3410" y="2520" />
              <mxPoint x="-3970" y="2380" />
            </Array>
          </mxGeometry>
        </mxCell>
        <mxCell id="7FSMs0WoNPrATZ0Mfe0N-2" value="" style="endArrow=classic;html=1;exitX=0;exitY=0;exitDx=0;exitDy=0;" edge="1" parent="WIyWlLk6GJQsqaUBKTNV-1" source="7FSMs0WoNPrATZ0Mfe0N-0">
          <mxGeometry width="50" height="50" relative="1" as="geometry">
            <mxPoint x="-4301" y="2164.4400000000005" as="sourcePoint" />
            <mxPoint x="-4580" y="2210" as="targetPoint" />
            <Array as="points" />
          </mxGeometry>
        </mxCell>
        <mxCell id="7FSMs0WoNPrATZ0Mfe0N-3" value="&lt;div style=&quot;text-align: center&quot;&gt;&lt;span style=&quot;font-family: &amp;#34;helvetica&amp;#34; ; font-size: 20px&quot;&gt;ttsObject&lt;br&gt;(!)&lt;/span&gt;&lt;br&gt;&lt;/div&gt;" style="text;whiteSpace=wrap;html=1;" vertex="1" parent="WIyWlLk6GJQsqaUBKTNV-1">
          <mxGeometry x="-4311" y="2250" width="80" height="50" as="geometry" />
        </mxCell>
        <mxCell id="7FSMs0WoNPrATZ0Mfe0N-4" value="" style="ellipse;whiteSpace=wrap;html=1;aspect=fixed;strokeColor=#666666;fontColor=#333333;fillColor=#F5F5F5;" vertex="1" parent="WIyWlLk6GJQsqaUBKTNV-1">
          <mxGeometry x="-4801" y="2177.75" width="20" height="20" as="geometry" />
        </mxCell>
        <mxCell id="7FSMs0WoNPrATZ0Mfe0N-5" value="" style="endArrow=classic;html=1;exitX=1;exitY=0.5;exitDx=0;exitDy=0;" edge="1" parent="WIyWlLk6GJQsqaUBKTNV-1" source="7FSMs0WoNPrATZ0Mfe0N-4">
          <mxGeometry width="50" height="50" relative="1" as="geometry">
            <mxPoint x="-4711" y="2060" as="sourcePoint" />
            <mxPoint x="-4620" y="2190" as="targetPoint" />
            <Array as="points" />
          </mxGeometry>
        </mxCell>
        <mxCell id="7FSMs0WoNPrATZ0Mfe0N-8" value="&lt;span style=&quot;font-size: 20px&quot;&gt;config&lt;br&gt;(!)&lt;br&gt;&lt;br&gt;&lt;/span&gt;" style="text;html=1;strokeColor=none;fillColor=none;align=center;verticalAlign=middle;whiteSpace=wrap;rounded=0;" vertex="1" parent="WIyWlLk6GJQsqaUBKTNV-1">
          <mxGeometry x="-4811" y="2230" width="40" height="20" as="geometry" />
        </mxCell>
        <mxCell id="7FSMs0WoNPrATZ0Mfe0N-10" value="" style="curved=1;endArrow=classic;html=1;dashed=1;entryX=0.5;entryY=0;entryDx=0;entryDy=0;" edge="1" parent="WIyWlLk6GJQsqaUBKTNV-1" target="7FSMs0WoNPrATZ0Mfe0N-4">
          <mxGeometry width="50" height="50" relative="1" as="geometry">
            <mxPoint x="-3410" y="-330" as="sourcePoint" />
            <mxPoint x="-4200" y="2380" as="targetPoint" />
            <Array as="points">
              <mxPoint x="-4101" y="-435" />
              <mxPoint x="-4411" y="-435" />
              <mxPoint x="-4611" y="-360" />
              <mxPoint x="-4691" y="-235" />
              <mxPoint x="-4711" y="-165" />
              <mxPoint x="-4691" y="-5" />
              <mxPoint x="-4501" y="875" />
              <mxPoint x="-4930" y="1760" />
            </Array>
          </mxGeometry>
        </mxCell>
      </root>
    </mxGraphModel>
  </diagram>
</mxfile>
